%FSLAX25Y25*%
%MOIN*%
G70*
G01*
G75*
G04 Layer_Physical_Order=1*
G04 Layer_Color=255*
%ADD10R,0.07874X0.03150*%
%ADD11R,0.03937X0.03740*%
%ADD12R,0.02362X0.03150*%
%ADD13R,0.07874X0.00787*%
%ADD14R,0.03937X0.03543*%
%ADD15R,0.03543X0.03937*%
%ADD16C,0.00800*%
%ADD17C,0.02000*%
%ADD18C,0.02600*%
D10*
X447500Y392362D02*
D03*
Y384488D02*
D03*
Y290000D02*
D03*
Y297874D02*
D03*
Y305748D02*
D03*
Y313622D02*
D03*
Y321496D02*
D03*
Y329370D02*
D03*
Y337244D02*
D03*
Y345118D02*
D03*
Y352992D02*
D03*
Y360866D02*
D03*
Y368740D02*
D03*
Y376614D02*
D03*
Y400236D02*
D03*
D11*
X464100Y383850D02*
D03*
Y377550D02*
D03*
X476400Y377450D02*
D03*
Y383750D02*
D03*
X462700Y348150D02*
D03*
Y354450D02*
D03*
D12*
X470400Y374800D02*
D03*
Y384643D02*
D03*
D13*
X480012Y345831D02*
D03*
X491823D02*
D03*
X480012Y347406D02*
D03*
X491823D02*
D03*
X480012Y348980D02*
D03*
X491823D02*
D03*
X480012Y350555D02*
D03*
X491823D02*
D03*
X480012Y352130D02*
D03*
X491823D02*
D03*
X480012Y353705D02*
D03*
X491823D02*
D03*
X480012Y355279D02*
D03*
X491823D02*
D03*
X480012Y356854D02*
D03*
X491823D02*
D03*
X480012Y358429D02*
D03*
X491823D02*
D03*
X480012Y360004D02*
D03*
X491823D02*
D03*
X480012Y361579D02*
D03*
X491823D02*
D03*
X480012Y363154D02*
D03*
X491823D02*
D03*
X480012Y364728D02*
D03*
X491823D02*
D03*
X480012Y366303D02*
D03*
Y367878D02*
D03*
X491823Y366303D02*
D03*
Y367878D02*
D03*
D14*
X466200Y327150D02*
D03*
Y333450D02*
D03*
X460200Y327150D02*
D03*
Y333450D02*
D03*
D15*
X469050Y306700D02*
D03*
X475350D02*
D03*
X469050Y300400D02*
D03*
X475350D02*
D03*
D16*
X480012Y348980D02*
X480031Y349000D01*
X486000D01*
X491803D01*
X491823Y348980D01*
X501631Y347131D02*
X502808Y345954D01*
X505600Y343163D01*
X501357Y347406D02*
X502808Y345954D01*
X491823Y347406D02*
X501357D01*
X500669Y345831D02*
X504000Y342500D01*
X491823Y345831D02*
X500669D01*
X504000Y310000D02*
Y342500D01*
X488737Y294737D02*
X504000Y310000D01*
X506100Y367837D02*
Y382400D01*
X502991Y364728D02*
X506100Y367837D01*
X491823Y364728D02*
X502991D01*
X502303Y366303D02*
X503500Y367500D01*
X491823Y366303D02*
X502303D01*
X503500Y367500D02*
X504500Y368500D01*
X502500Y366500D02*
X503500Y367500D01*
X505600Y309337D02*
Y343163D01*
X489400Y293137D02*
X505600Y309337D01*
X455137Y293137D02*
X489400D01*
X455137Y294737D02*
X488737D01*
X452000Y297874D02*
X455137Y294737D01*
X447500Y297874D02*
X452000D01*
Y290000D02*
X455137Y293137D01*
X447500Y290000D02*
X452000D01*
X447500Y305748D02*
X455752D01*
X460500Y315859D02*
Y316759D01*
X459600Y318359D02*
X460500Y319259D01*
X459600Y316759D02*
X460500Y315859D01*
X455137Y318359D02*
X459600D01*
X452000Y321496D02*
X455137Y318359D01*
X447500Y321496D02*
X452000D01*
X455137Y316759D02*
X459600D01*
X452000Y313622D02*
X455137Y316759D01*
X447500Y313622D02*
X452000D01*
X459100Y365603D02*
X460000Y366503D01*
X459100Y364003D02*
X460000Y363103D01*
X455137Y365603D02*
X459100D01*
X452000Y368740D02*
X455137Y365603D01*
X447500Y368740D02*
X452000D01*
X455137Y364003D02*
X459100D01*
X452000Y360866D02*
X455137Y364003D01*
X447500Y360866D02*
X452000D01*
X459600Y341981D02*
X460500Y342881D01*
X459600Y340381D02*
X460500Y339481D01*
X455137Y341981D02*
X459600D01*
X452000Y345118D02*
X455137Y341981D01*
X447500Y345118D02*
X452000D01*
X455137Y340381D02*
X459600D01*
X452000Y337244D02*
X455137Y340381D01*
X447500Y337244D02*
X452000D01*
X447500Y352992D02*
X455508D01*
X447500Y376614D02*
X455886D01*
X447500Y400236D02*
X455264D01*
X504500Y368500D02*
Y381737D01*
X498612Y387625D02*
X504500Y381737D01*
X455137Y387625D02*
X498612D01*
X499275Y389225D02*
X506100Y382400D01*
X455137Y389225D02*
X499275D01*
X452000Y392362D02*
X455137Y389225D01*
X447500Y392362D02*
X452000D01*
Y384488D02*
X455137Y387625D01*
X447500Y384488D02*
X452000D01*
X480012Y347406D02*
X484406D01*
X486000Y349000D01*
X480012Y345831D02*
X485331D01*
X486000Y346500D01*
Y349000D01*
X486047Y355310D02*
X487653Y353705D01*
X480012Y355279D02*
X485840D01*
X485861Y358429D02*
X485890Y358400D01*
X480012Y358429D02*
X485861D01*
X485823Y363154D02*
X491823D01*
X485823D02*
X485827Y363150D01*
X485850D01*
X491823Y367878D02*
Y371987D01*
X491810Y372000D02*
X491823Y371987D01*
X480012Y367878D02*
Y372018D01*
X491823Y360004D02*
X497428D01*
X502838Y361390D02*
X502840D01*
X485890Y355467D02*
Y358400D01*
X485861Y358429D02*
X491823D01*
X485980Y355310D02*
X486047D01*
X485870D02*
X485980D01*
X487653Y353705D02*
X491823D01*
X485890Y355467D02*
X486047Y355310D01*
X491823Y361579D02*
X499359D01*
X499440Y361660D01*
Y361720D01*
X497428Y360004D02*
X498212Y359220D01*
X500668D02*
X502838Y361390D01*
X498212Y359220D02*
X500668D01*
X491823Y356854D02*
X499424D01*
X499490Y356920D01*
X491823Y355279D02*
X497595D01*
X498455Y354420D01*
X500630D01*
X503090Y356880D01*
X491823Y352130D02*
X499310D01*
X499360Y352080D01*
X491823Y350555D02*
X497349D01*
X498324Y349580D01*
X500610D01*
X503070Y352040D01*
X472877Y366303D02*
X480012D01*
X470400Y368780D02*
X472877Y366303D01*
X470400Y368780D02*
Y374800D01*
X473392Y364728D02*
X480012D01*
X472877Y365243D02*
X473392Y364728D01*
X472877Y365243D02*
Y366303D01*
X469259Y361579D02*
X480012D01*
X466770Y359090D02*
X469259Y361579D01*
X465794Y363154D02*
X480012D01*
X461170Y358530D02*
X465794Y363154D01*
X462700Y354450D02*
Y357000D01*
X461170Y358530D02*
X462700Y357000D01*
X457230Y348150D02*
X462700D01*
X457120Y348040D02*
X457230Y348150D01*
X459650Y383850D02*
X464100D01*
X459200Y383400D02*
X459650Y383850D01*
X476400Y383750D02*
X482120D01*
X482200Y383670D01*
X457570Y354327D02*
X460577Y351320D01*
X457570Y354327D02*
Y357570D01*
X460577Y351320D02*
X466650D01*
X472184Y356854D01*
X480012D01*
X460200Y333450D02*
X468400Y341650D01*
X466200Y333450D02*
X470580Y337830D01*
X468400Y341650D02*
Y348960D01*
X460280Y310580D02*
X463540D01*
X473150Y320190D01*
X470580Y337830D02*
Y348580D01*
X473150Y320190D02*
Y347863D01*
X475842Y350555D01*
X480012D01*
X468400Y348960D02*
X473145Y353705D01*
X480012D01*
X470580Y348580D02*
X474130Y352130D01*
X480012D01*
X460200Y327150D02*
X466200D01*
Y316980D02*
Y327150D01*
X462470Y313250D02*
X466200Y316980D01*
X457750Y313250D02*
X462470D01*
X456990Y312490D02*
X457750Y313250D01*
X456990Y308340D02*
Y312490D01*
Y308340D02*
X459330Y306000D01*
X456410Y300400D02*
X469050D01*
X456230Y300220D02*
X456410Y300400D01*
X475350D02*
X479860D01*
X479900Y300360D01*
X447500Y329370D02*
X454940D01*
X454980Y329330D01*
X475350Y306700D02*
X480400D01*
X480810Y306290D01*
X459330Y306000D02*
X464610D01*
X465310Y306700D01*
X469050D01*
D17*
X470400Y381220D02*
Y384643D01*
X466730Y377550D02*
X470400Y381220D01*
X464100Y377550D02*
X466730D01*
X464100Y373620D02*
Y377550D01*
X461910Y371430D02*
X464100Y373620D01*
X454220Y371430D02*
X461910D01*
X470400Y374800D02*
X473750D01*
X476400Y377450D01*
D18*
X486000Y349000D02*
D03*
X455752Y305748D02*
D03*
X460500Y319259D02*
D03*
Y315859D02*
D03*
X460000Y363103D02*
D03*
X460500Y342881D02*
D03*
Y339481D02*
D03*
X455508Y352992D02*
D03*
X455886Y376614D02*
D03*
X455264Y400236D02*
D03*
X485850Y363150D02*
D03*
X491810Y372000D02*
D03*
X480012Y372018D02*
D03*
X502840Y361390D02*
D03*
X485980Y355310D02*
D03*
X499490Y356920D02*
D03*
X499440Y361720D02*
D03*
X503090Y356880D02*
D03*
X499360Y352080D02*
D03*
X503070Y352040D02*
D03*
X449390Y364580D02*
D03*
X449160Y357150D02*
D03*
X466770Y359090D02*
D03*
X461170Y358530D02*
D03*
X457120Y348040D02*
D03*
X459200Y383400D02*
D03*
X482200Y383670D02*
D03*
X457570Y357570D02*
D03*
X460280Y310580D02*
D03*
X459330Y306000D02*
D03*
X456230Y300220D02*
D03*
X479900Y300360D02*
D03*
X454980Y329330D02*
D03*
X480810Y306290D02*
D03*
X460000Y366503D02*
D03*
X454220Y371430D02*
D03*
M02*
