%FSLAX25Y25*%
%MOIN*%
G70*
G01*
G75*
G04 Layer_Physical_Order=2*
G04 Layer_Color=128*
%ADD10O,0.03150X0.01181*%
%ADD11O,0.01181X0.03150*%
%ADD12R,0.09843X0.09843*%
%ADD13R,0.06102X0.02362*%
%ADD14R,0.10236X0.01102*%
%ADD15R,0.05906X0.01181*%
%ADD16R,0.01181X0.05906*%
%ADD17R,0.09843X0.07874*%
%ADD18R,0.09055X0.01969*%
%ADD19R,0.03937X0.03740*%
%ADD20R,0.01870X0.00787*%
%ADD21R,0.03937X0.03937*%
%ADD22R,0.02362X0.03937*%
%ADD23R,0.03937X0.02362*%
%ADD24R,0.03937X0.03937*%
%ADD25O,0.06102X0.00984*%
%ADD26O,0.00984X0.06102*%
%ADD27R,0.19685X0.19685*%
%ADD28R,0.03740X0.03937*%
%ADD29R,0.05512X0.12598*%
%ADD30R,0.03937X0.04724*%
%ADD31R,0.08661X0.07874*%
%ADD32R,0.04724X0.05512*%
%ADD33R,0.09055X0.09055*%
%ADD34O,0.01181X0.03543*%
%ADD35O,0.03543X0.01181*%
%ADD36R,0.02362X0.03150*%
%ADD37R,0.03543X0.03937*%
%ADD38R,0.00984X0.02362*%
%ADD39O,0.00984X0.02362*%
%ADD40R,0.03150X0.02362*%
%ADD41R,0.12598X0.05512*%
%ADD42R,0.02559X0.03543*%
%ADD43R,0.03937X0.03543*%
%ADD44R,0.07874X0.03150*%
%ADD45R,0.03543X0.03150*%
%ADD46C,0.00600*%
%ADD47C,0.01200*%
%ADD48C,0.01000*%
%ADD49C,0.00787*%
%ADD50C,0.00800*%
%ADD51C,0.02000*%
%ADD52C,0.01500*%
%ADD53C,0.15000*%
%ADD54R,0.06000X0.06000*%
%ADD55C,0.06000*%
%ADD56C,0.10600*%
%ADD57C,0.01969*%
%ADD58R,0.05906X0.05906*%
%ADD59C,0.05906*%
%ADD60C,0.02600*%
%ADD61C,0.04000*%
%ADD62R,0.07087X0.12205*%
%ADD63R,0.10236X0.02362*%
%ADD64R,0.14961X0.08268*%
%ADD65R,0.07874X0.17323*%
%ADD66C,0.14998*%
%ADD67C,0.05400*%
%ADD68C,0.10400*%
%ADD69C,0.05943*%
%ADD70C,0.03600*%
G36*
X416300Y219619D02*
Y199619D01*
X405600Y188919D01*
Y184519D01*
X146600D01*
X145700Y185419D01*
X145669Y202756D01*
X163386D01*
Y220472D01*
X415300Y220619D01*
X416300Y219619D01*
D02*
G37*
G36*
X405800Y385800D02*
Y371700D01*
X415300Y362200D01*
X415200Y360200D01*
X146600D01*
X146500Y360300D01*
X146600Y360400D01*
Y394800D01*
X396800D01*
X405800Y385800D01*
D02*
G37*
D48*
X212100Y257900D02*
Y258000D01*
X320100Y314300D02*
X325100Y309300D01*
X320100Y314300D02*
Y318800D01*
X240700Y267400D02*
Y282900D01*
X240600Y282700D02*
X259800D01*
X240700Y267400D02*
Y282900D01*
X259800Y282700D02*
X269400D01*
Y268000D02*
Y282700D01*
Y268000D02*
X272000Y265400D01*
X276800D01*
X280200Y268800D01*
X301200Y306600D02*
Y319300D01*
X297800Y322700D02*
X301200Y319300D01*
X293400Y322700D02*
X297800D01*
X289800Y326300D02*
X293400Y322700D01*
X289800Y326300D02*
Y343300D01*
X249000Y300400D02*
Y302000D01*
X210100Y255900D02*
X212100Y257900D01*
X184300Y255900D02*
X210100D01*
X212100Y258000D02*
X213600Y259500D01*
X232800D01*
X240700Y267400D01*
X280200Y296400D02*
X280300Y296300D01*
X324000Y327200D02*
X336200D01*
X320100Y318800D02*
Y323300D01*
X324000Y327200D01*
X280200Y296500D02*
Y301100D01*
X282900Y303800D01*
X285900D01*
X288700Y306600D01*
X301200D01*
X243900Y295300D02*
X249000Y300400D01*
X325000Y309300D02*
X337900D01*
X340300Y306900D01*
Y303200D02*
Y306900D01*
Y303200D02*
X342900Y300600D01*
Y259400D02*
Y300600D01*
X341600Y258100D02*
X342900Y259400D01*
X341600Y245200D02*
Y258100D01*
X341000Y244600D02*
X341600Y245200D01*
X327400Y244600D02*
X341000D01*
X327400D02*
Y248400D01*
X325700Y250100D02*
X327400Y248400D01*
X322800Y250100D02*
X325700D01*
X321800Y249100D02*
X322800Y250100D01*
X321800Y245400D02*
Y249100D01*
X321100Y244700D02*
X321800Y245400D01*
X300500Y244700D02*
X321100D01*
X293200Y252000D02*
X300500Y244700D01*
X240400Y252000D02*
X293200D01*
X235300Y246900D02*
X240400Y252000D01*
X209900Y246900D02*
X235300D01*
X202400D02*
X209900D01*
X199500Y249800D02*
X202400Y246900D01*
X199500Y249800D02*
Y256200D01*
X353400Y270400D02*
X359900Y263900D01*
X353400Y270400D02*
Y281400D01*
X350500Y284300D02*
X353400Y281400D01*
X350500Y284300D02*
Y291600D01*
X352500Y293600D01*
X356400D01*
Y307300D01*
X351800Y315800D02*
X360500D01*
X348800Y318800D02*
X351800Y315800D01*
X336200Y318800D02*
X348800D01*
X336500Y352200D02*
X358800D01*
X376800Y334200D02*
X397900D01*
X399800Y332300D01*
Y311200D02*
Y332300D01*
Y311200D02*
X403800Y307200D01*
Y299600D02*
Y307200D01*
X399800Y295600D02*
X403800Y299600D01*
X399800Y266800D02*
Y295600D01*
X397100Y264100D02*
X399800Y266800D01*
X359800Y264100D02*
X397100D01*
X359800Y243000D02*
Y264100D01*
X356600Y239800D02*
X359800Y243000D01*
X204600Y239800D02*
X356600D01*
X204000Y240400D02*
X204600Y239800D01*
X197500Y240400D02*
X204000D01*
X183400D02*
X197500D01*
X183000Y240800D02*
X183400Y240400D01*
X183000Y240800D02*
Y254600D01*
X184300Y255900D01*
X217200Y266200D02*
X218900D01*
X249200Y352200D02*
X336500D01*
X237600Y340600D02*
X249200Y352200D01*
X213300Y340600D02*
X237600D01*
X209400Y336700D02*
X213300Y340600D01*
X209400Y333400D02*
Y336700D01*
X144800Y333400D02*
X209400D01*
X210700Y332100D01*
X225300D01*
X229200Y328200D01*
X238500D01*
X239600Y327100D01*
Y309200D02*
Y327100D01*
X233200Y302800D02*
X239600Y309200D01*
X228400Y302800D02*
X233200D01*
X226900Y301300D02*
X228400Y302800D01*
X224500Y301300D02*
X226900D01*
X223100Y302700D02*
X224500Y301300D01*
X207800Y302700D02*
X223100D01*
X206500Y301400D02*
X207800Y302700D01*
X206500Y294500D02*
Y301400D01*
X182700Y270700D02*
X206500Y294500D01*
X182700Y263400D02*
Y270700D01*
Y263400D02*
X184900Y261200D01*
X190400D01*
X191700Y262500D01*
Y270100D01*
X192400Y270800D01*
X213800D01*
X218600Y266000D01*
X225900D01*
X231000Y271100D01*
Y293000D01*
X233300Y295300D01*
X243900D01*
X249000Y300400D02*
Y302000D01*
X252400Y305400D01*
X255700D01*
X260700Y310400D01*
Y317000D01*
X258500Y319200D02*
X260700Y317000D01*
X256400Y319200D02*
X258500D01*
X255000Y320600D02*
X256400Y319200D01*
X255000Y320600D02*
Y322700D01*
X256200Y323900D01*
Y336100D01*
X257700Y337600D01*
X277000D01*
X282700Y343300D01*
X294200D01*
X296800Y345900D01*
X319700D01*
X322200Y343400D01*
X351100D01*
X336200Y333200D02*
X337600Y334600D01*
X336200Y318800D02*
Y333200D01*
X363300Y332200D02*
X366500Y329000D01*
X356400Y307300D02*
X360700Y311600D01*
Y315700D01*
X360500Y315800D02*
X360700Y315600D01*
X337500Y334500D02*
X350000D01*
X351100Y343400D02*
X352000Y342500D01*
Y336500D02*
Y342500D01*
X350000Y334500D02*
X352000Y336500D01*
X363300Y332200D02*
Y347700D01*
X358800Y352200D02*
X363300Y347700D01*
X366500Y329000D02*
X371600D01*
X376800Y334200D01*
X281000Y272700D02*
X285725Y277425D01*
X280200Y268800D02*
X280600D01*
X280200Y296300D02*
X285600D01*
X292100Y280300D02*
Y289800D01*
X285600Y296300D02*
X292100Y289800D01*
X281000Y269200D02*
Y272700D01*
X280600Y268800D02*
X281000Y269200D01*
X285725Y277425D02*
X289225D01*
X292100Y280300D01*
D49*
X155512Y216535D02*
X161417D01*
Y210630D02*
Y216535D01*
X155512Y210630D02*
X161417D01*
X155512D02*
Y216535D01*
D50*
X157649Y214510D02*
Y214679D01*
X157818Y215016D01*
X157986Y215185D01*
X158324Y215354D01*
X158999D01*
X159336Y215185D01*
X159505Y215016D01*
X159673Y214679D01*
Y214341D01*
X159505Y214004D01*
X159167Y213498D01*
X157480Y211811D01*
X159842D01*
D61*
X146000Y185000D02*
X406000D01*
Y190000D01*
X416000Y200000D01*
Y361400D01*
X406000Y371400D02*
X416000Y361400D01*
X406000Y371400D02*
Y385000D01*
X396000Y395000D02*
X406000Y385000D01*
X146000Y395000D02*
X396000D01*
X146000Y185000D02*
Y395000D01*
D62*
X164961Y212008D02*
D03*
D63*
X159449Y218110D02*
D03*
D64*
X159055Y206496D02*
D03*
D65*
X151575Y211024D02*
D03*
D66*
X406000Y215000D02*
D03*
X201000Y195000D02*
D03*
X206000Y385000D02*
D03*
D67*
X346000Y195000D02*
D03*
X356000D02*
D03*
X366000D02*
D03*
X376000D02*
D03*
X386000D02*
D03*
X396000D02*
D03*
X310000Y385000D02*
D03*
X300000D02*
D03*
X290000D02*
D03*
X280000D02*
D03*
X270000D02*
D03*
X260000D02*
D03*
X250000D02*
D03*
X240000D02*
D03*
X230000D02*
D03*
X220000D02*
D03*
X396000D02*
D03*
X366000D02*
D03*
X356000D02*
D03*
X346000D02*
D03*
X336000D02*
D03*
X326000D02*
D03*
X386000D02*
D03*
X376000D02*
D03*
X326000Y195000D02*
D03*
X296000D02*
D03*
X286000D02*
D03*
X276000D02*
D03*
X266000D02*
D03*
X256000D02*
D03*
X316000D02*
D03*
X306000D02*
D03*
D68*
X162743Y351443D02*
D03*
X186208D02*
D03*
Y294357D02*
D03*
X162743D02*
D03*
D69*
X168484Y235669D02*
D03*
Y252991D02*
D03*
X352306Y227178D02*
D03*
X342306D02*
D03*
X332306D02*
D03*
X322306D02*
D03*
X312306D02*
D03*
X302306D02*
D03*
D70*
X203700Y231500D02*
D03*
X203000Y235000D02*
D03*
X185400Y253200D02*
D03*
X193900Y238600D02*
D03*
X213758Y237492D02*
D03*
X218482D02*
D03*
X213758Y232768D02*
D03*
X218482D02*
D03*
X264800Y239800D02*
D03*
X282700Y225300D02*
D03*
X258400Y269700D02*
D03*
X256700Y274200D02*
D03*
X255400Y244100D02*
D03*
X265500Y246000D02*
D03*
X248300Y254800D02*
D03*
X238200Y266200D02*
D03*
X238500Y263000D02*
D03*
X233900Y274000D02*
D03*
X200700Y340200D02*
D03*
X207000Y335900D02*
D03*
X202500Y331500D02*
D03*
X198100Y330400D02*
D03*
X200220Y336680D02*
D03*
X310900Y330000D02*
D03*
X306500Y330800D02*
D03*
X405700Y306800D02*
D03*
X160100Y279000D02*
D03*
X151000Y277100D02*
D03*
X388100Y234800D02*
D03*
X392000Y235100D02*
D03*
X406352Y259548D02*
D03*
X385100Y224400D02*
D03*
X396500Y261300D02*
D03*
X392400D02*
D03*
X380500Y236200D02*
D03*
X369300Y297400D02*
D03*
X178400Y268100D02*
D03*
X387500Y335100D02*
D03*
X383000Y337500D02*
D03*
X297700Y341000D02*
D03*
X295500Y246100D02*
D03*
X244000Y241400D02*
D03*
X231500Y238800D02*
D03*
X250100Y229100D02*
D03*
X252600Y226800D02*
D03*
X238300Y232400D02*
D03*
X206300Y247600D02*
D03*
X213432Y255132D02*
D03*
X221700Y251100D02*
D03*
X293000Y354300D02*
D03*
X284800Y298748D02*
D03*
X329300Y306900D02*
D03*
Y303300D02*
D03*
X322000Y353100D02*
D03*
X307500Y353900D02*
D03*
X304300Y353800D02*
D03*
X311900Y354000D02*
D03*
X230400Y259700D02*
D03*
X231100Y255900D02*
D03*
X187200Y232200D02*
D03*
X156000Y277000D02*
D03*
X166200Y275500D02*
D03*
X162900Y283800D02*
D03*
X332400Y288400D02*
D03*
X356800Y282000D02*
D03*
X356300Y276800D02*
D03*
X316400Y285800D02*
D03*
X316500Y289100D02*
D03*
X335800Y295700D02*
D03*
X224126Y349874D02*
D03*
X158100Y323850D02*
D03*
X158300Y338350D02*
D03*
X158700Y309400D02*
D03*
X344100Y237500D02*
D03*
X329600Y233000D02*
D03*
X325000D02*
D03*
X317300Y232900D02*
D03*
X308100Y235400D02*
D03*
X260100Y341300D02*
D03*
X172500Y267600D02*
D03*
X176200Y296200D02*
D03*
X289500Y269100D02*
D03*
X291300Y265900D02*
D03*
X290200Y282800D02*
D03*
X287100Y284800D02*
D03*
X284787Y287013D02*
D03*
X296200Y363000D02*
D03*
X261800Y364200D02*
D03*
X275700Y365100D02*
D03*
X229300Y301800D02*
D03*
X285000Y315100D02*
D03*
Y311700D02*
D03*
X271550Y304350D02*
D03*
X275300Y287200D02*
D03*
X284900Y293100D02*
D03*
X268200Y320200D02*
D03*
X258000Y316700D02*
D03*
X253900Y309100D02*
D03*
X249600Y298500D02*
D03*
X253975Y305600D02*
D03*
X308000Y284700D02*
D03*
X305200Y278600D02*
D03*
X306300Y281800D02*
D03*
X258900Y276600D02*
D03*
X254400Y276700D02*
D03*
X309000Y246500D02*
D03*
X354400Y247300D02*
D03*
X326900Y256800D02*
D03*
X340200Y261300D02*
D03*
X339400Y257400D02*
D03*
X259000Y335200D02*
D03*
X214200Y320700D02*
D03*
X229300Y318300D02*
D03*
X228500Y321500D02*
D03*
X309554Y309854D02*
D03*
X332900Y326500D02*
D03*
X339100Y319300D02*
D03*
X339500Y322700D02*
D03*
X339682Y299618D02*
D03*
X214200Y317100D02*
D03*
X211700Y322900D02*
D03*
X211800Y326900D02*
D03*
X186231Y238031D02*
D03*
X178720Y233720D02*
D03*
X192800Y244100D02*
D03*
X406314Y330414D02*
D03*
X205907Y321793D02*
D03*
X181757Y313057D02*
D03*
X181563Y318963D02*
D03*
X182032Y324868D02*
D03*
X396800Y279700D02*
D03*
X396500Y288600D02*
D03*
X396900Y292100D02*
D03*
X396600Y300100D02*
D03*
X400769Y348131D02*
D03*
X405936Y354036D02*
D03*
X395500Y275200D02*
D03*
Y269300D02*
D03*
X324500Y259000D02*
D03*
X350434Y282966D02*
D03*
X382500Y269200D02*
D03*
Y275200D02*
D03*
X368631Y273331D02*
D03*
X382500Y281200D02*
D03*
Y287200D02*
D03*
X358300Y298700D02*
D03*
X369400Y286500D02*
D03*
X324300Y330200D02*
D03*
X306395Y307295D02*
D03*
X306187Y312413D02*
D03*
X304868Y327768D02*
D03*
X382500Y293200D02*
D03*
Y299200D02*
D03*
X358000Y310000D02*
D03*
X355705Y306795D02*
D03*
X382500Y305500D02*
D03*
Y311500D02*
D03*
Y317500D02*
D03*
X253000Y298600D02*
D03*
X216850Y337650D02*
D03*
X229400Y330900D02*
D03*
X236800Y330600D02*
D03*
X369500Y313500D02*
D03*
X369410Y300610D02*
D03*
X202800Y345800D02*
D03*
X219200Y348900D02*
D03*
X392900Y250000D02*
D03*
X402900Y242700D02*
D03*
X371000Y230900D02*
D03*
X355100Y261800D02*
D03*
X358100Y257200D02*
D03*
X358930Y274670D02*
D03*
X358638Y271362D02*
D03*
X377800Y264900D02*
D03*
X378200Y255000D02*
D03*
X367200Y230800D02*
D03*
X359900Y229700D02*
D03*
X405800Y275500D02*
D03*
X405670Y283170D02*
D03*
X388400Y260800D02*
D03*
X387000Y264600D02*
D03*
X355000Y232700D02*
D03*
X349100Y232800D02*
D03*
X368700Y261520D02*
D03*
X209600Y269800D02*
D03*
X209400Y279100D02*
D03*
Y281700D02*
D03*
X185850Y280800D02*
D03*
Y278200D02*
D03*
X166100Y261700D02*
D03*
X363200Y253000D02*
D03*
X360100Y251400D02*
D03*
X362700Y256600D02*
D03*
X185200Y269900D02*
D03*
X199859Y258581D02*
D03*
X244500Y256800D02*
D03*
X389800Y347500D02*
D03*
X258247Y311547D02*
D03*
X396000Y323500D02*
D03*
X382500D02*
D03*
X390000Y331500D02*
D03*
X297600Y353400D02*
D03*
X397000Y304700D02*
D03*
X396900Y316300D02*
D03*
X396800Y312600D02*
D03*
X339500Y330500D02*
D03*
X218000Y266000D02*
D03*
X313900Y316500D02*
D03*
X311000Y319200D02*
D03*
X313125Y326483D02*
D03*
X337500Y271700D02*
D03*
X305200Y266900D02*
D03*
X306000Y274200D02*
D03*
X336900Y279100D02*
D03*
X336500Y275500D02*
D03*
X339972Y274028D02*
D03*
X340100Y289000D02*
D03*
X194700Y255900D02*
D03*
X201300Y248900D02*
D03*
X175500Y255500D02*
D03*
X170000Y226500D02*
D03*
X321016Y260184D02*
D03*
X336400Y265800D02*
D03*
X329000Y261400D02*
D03*
X311900Y278000D02*
D03*
X318700Y257100D02*
D03*
X322900Y275900D02*
D03*
X318600Y274200D02*
D03*
X305200Y263500D02*
D03*
X309500Y257900D02*
D03*
X295600Y256900D02*
D03*
X288100Y241600D02*
D03*
X231400Y225100D02*
D03*
X229000Y225200D02*
D03*
X252200Y274300D02*
D03*
X242800Y283874D02*
D03*
X233100Y270700D02*
D03*
X213500Y304700D02*
D03*
X213600Y308610D02*
D03*
X205493Y310293D02*
D03*
X209200Y315046D02*
D03*
X209100Y311500D02*
D03*
X173200Y330700D02*
D03*
X223900Y340000D02*
D03*
X235200Y342100D02*
D03*
X193600Y290900D02*
D03*
X194400Y297800D02*
D03*
X210100Y290700D02*
D03*
X217500Y292900D02*
D03*
X260600Y296700D02*
D03*
X264400Y280000D02*
D03*
X285400Y269600D02*
D03*
X268100Y279100D02*
D03*
X272900Y284900D02*
D03*
X263400Y340700D02*
D03*
X273200Y347600D02*
D03*
X280800Y334500D02*
D03*
X296200Y328000D02*
D03*
X292500Y328200D02*
D03*
X279874Y331374D02*
D03*
X253800Y319000D02*
D03*
X203200Y353100D02*
D03*
X236200Y349300D02*
D03*
X258000Y344100D02*
D03*
X248600Y345800D02*
D03*
X253600Y324600D02*
D03*
X333200Y353300D02*
D03*
X242600Y354200D02*
D03*
X218800Y352900D02*
D03*
X245800Y354200D02*
D03*
X247900Y356900D02*
D03*
X234020Y321980D02*
D03*
X241500D02*
D03*
X248980D02*
D03*
X234020Y314500D02*
D03*
X241500D02*
D03*
X248980D02*
D03*
X241500Y307020D02*
D03*
X234020D02*
D03*
X248800Y307000D02*
D03*
X200500Y273000D02*
D03*
X195500Y268500D02*
D03*
X195638Y273162D02*
D03*
X200362Y268438D02*
D03*
X173300Y342200D02*
D03*
X187150Y302600D02*
D03*
X177500Y303800D02*
D03*
X197300Y282500D02*
D03*
X198200Y286000D02*
D03*
X153500Y358200D02*
D03*
X230100Y243200D02*
D03*
X291000Y262500D02*
D03*
X278100Y256400D02*
D03*
X283600Y240800D02*
D03*
X279200D02*
D03*
X281400Y245000D02*
D03*
X312900Y297500D02*
D03*
X352861Y352838D02*
D03*
X351200Y330200D02*
D03*
X351100Y327000D02*
D03*
X349000Y321200D02*
D03*
X338900Y312300D02*
D03*
X330200Y319100D02*
D03*
X322400Y301000D02*
D03*
X367100Y348000D02*
D03*
X331500Y341500D02*
D03*
X332000Y349500D02*
D03*
X347990Y351990D02*
D03*
X339685Y345829D02*
D03*
X351000Y298500D02*
D03*
X359043Y320983D02*
D03*
X351100Y323700D02*
D03*
X362000Y331500D02*
D03*
M02*
