M48
;Layer_Color=9474304
;FILE_FORMAT=2:5
INCH,LZ
;TYPE=PLATED
T1F00S00C0.01200
T2F00S00C0.03000
T3F00S00C0.03543
T4F00S00C0.08000
T5F00S00C0.12598
;TYPE=NON_PLATED
T6F00S00C0.03543
%
T01
X03173Y02329
X0325Y0233
X03296
X0335432Y0237732
X03441Y02375
X03491Y02328
X0355Y02327
X03599Y02297
X03672Y02308
X0371Y02309
X037474Y023046
X03805Y02362
X03881Y02348
X0392Y02351
X03929Y025
X03924Y02613
X03965
X03884Y02608
X0387Y02646
X03825Y02692
Y02752
Y02812
Y02872
Y02932
Y02992
Y03055
Y03115
X0397Y03047
X03966Y03001
X04015Y03015
Y0304
X0406Y0303
X04057Y03068
X04065Y03105
X03969Y02921
X03965Y02886
X03968Y02797
X03955Y02752
Y02693
X04058Y02755
X040567Y028317
X0406352Y0259548
X04029Y02427
X03979Y02244
X03851
X03782Y0255
X03778Y02649
X036963Y026697
X03687Y026152
X03627Y02566
X03632Y0253
X03601Y02514
X03581Y02572
X03551Y02618
X0358638Y0271362
X035893Y027467
X03563Y02768
X03568Y0282
X0350434Y0282966
X03541Y02899
X03545Y0297
X0351Y02985
X03583Y02987
X0355705Y0306795
X0358Y031
X036941Y030061
X03693Y02974
X03694Y02865
X0368631Y0273331
X0339972Y0274028
X03375Y02717
X03365Y02755
X03369Y02791
X0339705Y0281705
X03401Y0289
X03324Y02884
X03358Y02957
X0339682Y0299618
X03389Y03123
X03317Y03121
X03293Y03069
Y03033
X03224Y0301
X03129Y02975
X03165Y02891
X03164Y02858
X03186Y02742
X03229Y02759
X0321016Y0260184
X03245Y0259
X03269Y02568
X0329Y02614
X03402Y02613
X03394Y02574
X034015Y026635
X03364Y02658
X0338732Y0246532
X0324953Y0246553
X0319047Y0246753
X0313142Y0246658
X03187Y02571
X03544Y02473
X0309Y02465
X03095Y02579
X03052Y02635
Y02669
X0306Y02742
X03052Y02786
X03063Y02818
X0308Y02847
X0307Y02879
X0305741Y0297059
X0306395Y0307295
X0306187Y0312413
X0309554Y0309854
X0285Y03117
X0284727Y0307127
X02848Y0298748
X02849Y02931
X0284787Y0287013
X02871Y02848
X02902Y02828
X0289911Y0288211
X02753Y02872
X02729Y02849
X02681Y02791
X02644Y028
X02589Y02766
X02567Y02742
X02522Y02743
X02544Y02767
X02584Y02697
X0273806Y0269394
X02854Y02696
X02895Y02691
X02913Y02659
X0291Y02625
X02883Y0258673
X02956Y02602
Y02569
X02955Y02461
X02881Y02416
X02836Y02408
X02792
X02814Y0245
X02781Y02564
X02655Y0246
X02648Y02398
X02554Y02441
X0244Y02414
X02446Y02325
X02383Y02324
X02315Y02388
X02301Y02432
X02265Y02495
X02217Y02511
X0213432Y0255132
X02097Y0259
X02078Y02609
X0206Y0253
X02027Y02527
X02013Y02489
X02063Y02476
X02006Y02384
X0203Y0235
X02037Y02315
X0213758Y0232768
Y0237492
X0218482
Y0232768
X0229Y02252
X02314Y02251
X02501Y02291
X02526Y02268
X02827Y02253
X03081Y02354
X03119Y0278
X02945Y02701
X027155Y030435
X02606Y02967
X0253Y02986
X02496Y02985
X02531Y03024
X0253975Y03056
X02539Y03091
X0258247Y0311547
X02488Y0307
X02415Y030702
X023402
X02293Y03018
X02262Y03037
X02135Y03047
X02136Y030861
X02091Y03115
X0205493Y0310293
X02092Y02998
X02101Y02907
X02175Y02929
X02094Y02817
Y02791
X02096Y02698
X0200362Y0268438
X02005Y0273
X0195638Y0273162
X01955Y02685
X01852Y02699
X0185159Y026529
X01859Y02629
X01854Y02532
X0189Y02533
X0192
X01947Y02559
X0199859Y0258581
X01928Y02441
X01939Y02386
X0186231Y0238031
X01872Y02322
X01869Y02275
X017872Y023372
X017Y02265
X01755Y02555
X01725Y02676
X01784Y02681
X018585Y02782
Y02808
X01973Y02825
X01982Y0286
X01936Y02909
X01944Y02978
X0195132Y0302759
X018715Y03026
X01775Y03038
X01762Y02962
X01755Y02919
X01716Y0292
X01671Y02877
X01629Y02838
X01601Y0279
X01662Y02755
X01661Y02617
X01587Y03094
X0240516Y0297684
X0238547Y0287553
X02428Y0283874
X02339Y0274
X02331Y02707
X02285Y02715
X02216Y02677
X0218Y0266
X02304Y02597
X02311Y02559
X02445Y02568
X02483Y02548
X02385Y0263
X02382Y02662
X0156Y0277
X0151Y02771
X0154763Y0312737
X01535Y03582
X01583Y033835
X016549Y0331509
X01732Y03307
X01733Y03422
X0182032Y0324868
X0181563Y0318963
X0181757Y0313057
X02092Y0315046
X02142Y03171
Y03207
X02117Y03229
X02118Y03269
X02128Y0335
X0207Y03359
X020022Y033668
X02007Y03402
X02028Y03458
X02032Y03531
X02188Y03529
X02192Y03489
X0224126Y0349874
X02239Y034
X021685Y033765
X02259Y03288
X02294Y03309
X02336Y03311
X02368Y03306
X023402Y032198
X02285Y03215
X02293Y03183
X02255Y03155
X023402Y03145
X02415
Y032198
X024898
X02536Y03246
X02538Y0319
X02577Y03214
X0258Y03167
X0255705Y0314
X024898Y03145
X0250358Y0331358
X0259Y03352
X02644Y03353
X02634Y03407
X02601Y03413
X0258Y03441
X02527Y03459
X02486Y03458
X02458Y03542
X02426
X02479Y03569
X02562Y035615
X02618Y03642
X02757Y03651
X02732Y03476
X02808Y03345
X0279874Y0331374
X02925Y03282
X02962Y0328
X0304868Y0327768
X03065Y03308
X03109Y033
X0311Y03192
X02939Y03201
X0290093Y0322607
X0285Y03151
X02682Y03202
X02977Y0341
X0298083Y03442
X02976Y03534
X0293Y03543
X03043Y03538
X03075Y03539
X03119Y0354
X0307851Y0343351
X02962Y0363
X02362Y03493
X02352Y03421
X02025Y03315
X01981Y03304
X0205907Y0321793
X01581Y032385
X0313125Y0326483
X03139Y03165
X03302Y03191
X03391Y03193
X03395Y03227
Y03305
X03329Y03265
X03254Y03248
X03243Y03302
X03315Y03415
X0332Y03495
X03332Y03533
X0322Y03531
X03177Y03545
X0339685Y0345829
X03435Y03415
X03485
X034799Y035199
X0352861Y0352838
X03671Y0348
X03673Y03317
X0362Y03315
X03512Y03302
X03511Y0327
Y03237
X0349Y03212
X0359043Y0320983
X03575Y0318
X03584Y03134
X03695Y03135
X03825Y03175
Y03235
X0396
X03969Y03163
X03968Y03126
X04065Y0327
X0406314Y0330414
X04065Y0334
X039Y03315
X03875Y03351
X0383Y03375
X03795Y0338
X0389731Y0343131
X03898Y03475
X0400769Y0348131
X0405936Y0354036
T02
X0316Y0195
X0326
X0346
X0356
X0366
X0376
X0386
X0396
X0306
X0296
X0286
X0276
X0266
X0256
X026Y0385
X027
X028
X029
X03
X031
X025
X024
X023
X022
X0326
X0336
X0346
X0356
X0366
X0376
X0386
X0396
T03
X0322306Y0227178
X0332306
X0342306
X0352306
X0312306
X0302306
T04
X0162743Y0294357
X0186208
Y0351443
X0162743
T05
X0406Y0215
X0201Y0195
X0206Y0385
T06
X0168484Y0235669
Y0252991
M30
