%FSLAX25Y25*%
%MOIN*%
G70*
G01*
G75*
G04 Layer_Color=128*
%ADD10O,0.03150X0.01181*%
%ADD11O,0.01181X0.03150*%
%ADD12R,0.09843X0.09843*%
%ADD13R,0.06102X0.02362*%
%ADD14R,0.10236X0.01102*%
%ADD15R,0.05906X0.01181*%
%ADD16R,0.01181X0.05906*%
%ADD17R,0.09843X0.07874*%
%ADD18R,0.09055X0.01969*%
%ADD19R,0.03937X0.03740*%
%ADD20R,0.01870X0.00787*%
%ADD21R,0.03937X0.03937*%
%ADD22R,0.02362X0.03937*%
%ADD23R,0.03937X0.02362*%
%ADD24R,0.03937X0.03937*%
%ADD25O,0.06102X0.00984*%
%ADD26O,0.00984X0.06102*%
%ADD27R,0.19685X0.19685*%
%ADD28R,0.03740X0.03937*%
%ADD29R,0.05512X0.12598*%
%ADD30R,0.03937X0.04724*%
%ADD31R,0.08661X0.07874*%
%ADD32R,0.04724X0.05512*%
%ADD33R,0.09055X0.09055*%
%ADD34O,0.01181X0.03543*%
%ADD35O,0.03543X0.01181*%
%ADD36R,0.02362X0.03150*%
%ADD37R,0.03543X0.03937*%
%ADD38R,0.00984X0.02362*%
%ADD39O,0.00984X0.02362*%
%ADD40R,0.03150X0.02362*%
%ADD41R,0.12598X0.05512*%
%ADD42R,0.02559X0.03543*%
%ADD43R,0.03937X0.03543*%
%ADD44R,0.07874X0.03150*%
%ADD45R,0.03543X0.03150*%
%ADD46C,0.00600*%
%ADD47C,0.01200*%
%ADD48C,0.01000*%
%ADD49C,0.00787*%
%ADD50C,0.00800*%
%ADD51C,0.02000*%
%ADD52C,0.01500*%
%ADD53C,0.15000*%
%ADD54R,0.06000X0.06000*%
%ADD55C,0.06000*%
%ADD56C,0.10600*%
%ADD57C,0.01969*%
%ADD58R,0.05906X0.05906*%
%ADD59C,0.05906*%
%ADD60C,0.02600*%
%ADD61C,0.04000*%
%ADD62R,0.07087X0.12205*%
%ADD63R,0.10236X0.02362*%
%ADD64R,0.14961X0.08268*%
%ADD65R,0.07874X0.17323*%
%ADD66C,0.14998*%
%ADD67C,0.05400*%
%ADD68C,0.10400*%
%ADD69C,0.05943*%
%ADD70C,0.03600*%
%ADD71R,0.05512X0.14173*%
%ADD72R,0.15748X0.08268*%
%ADD73R,0.12205X0.17716*%
%ADD74R,0.19685X0.02756*%
%ADD75R,0.02362X0.00984*%
%ADD76O,0.02362X0.00984*%
%ADD77O,0.04921X0.01772*%
%ADD78R,0.03740X0.03543*%
%ADD79R,0.03740X0.03543*%
%ADD80C,0.00984*%
%ADD81C,0.02362*%
%ADD82C,0.00394*%
%ADD83C,0.00591*%
%ADD84C,0.01181*%
%ADD85C,0.00700*%
D19*
X263000Y318650D02*
D03*
Y312350D02*
D03*
X257500Y324850D02*
D03*
Y331150D02*
D03*
X293843Y286150D02*
D03*
Y279851D02*
D03*
X286444Y322607D02*
D03*
Y328906D02*
D03*
X284500Y260350D02*
D03*
Y266650D02*
D03*
X294000Y298650D02*
D03*
Y292350D02*
D03*
X364047Y268371D02*
D03*
Y274670D02*
D03*
X351000Y258850D02*
D03*
Y265150D02*
D03*
X350500Y279150D02*
D03*
Y272850D02*
D03*
X363944Y289135D02*
D03*
Y295434D02*
D03*
X357761Y292991D02*
D03*
Y286692D02*
D03*
X350434Y293150D02*
D03*
Y286851D02*
D03*
X363056Y313291D02*
D03*
Y319590D02*
D03*
X222000Y303150D02*
D03*
Y296850D02*
D03*
X238500Y283650D02*
D03*
Y277350D02*
D03*
X169900Y309350D02*
D03*
Y303050D02*
D03*
X153700Y347950D02*
D03*
Y354250D02*
D03*
X205500Y303150D02*
D03*
Y296850D02*
D03*
X287843Y298552D02*
D03*
Y292253D02*
D03*
X315500Y243650D02*
D03*
Y237350D02*
D03*
X384964Y341350D02*
D03*
Y347649D02*
D03*
D28*
X394750Y225000D02*
D03*
X388450D02*
D03*
X174850Y279500D02*
D03*
X181150D02*
D03*
X211350Y248000D02*
D03*
X217650D02*
D03*
X174850Y273000D02*
D03*
X181150D02*
D03*
X171948Y287434D02*
D03*
X178247D02*
D03*
X287607Y304453D02*
D03*
X293906D02*
D03*
X284850Y254500D02*
D03*
X291150D02*
D03*
X287350Y274000D02*
D03*
X293650D02*
D03*
X292950Y336500D02*
D03*
X286650D02*
D03*
X358090Y302342D02*
D03*
X351791D02*
D03*
X356509Y324851D02*
D03*
X362808D02*
D03*
X257350Y300000D02*
D03*
X263650D02*
D03*
X236650Y297500D02*
D03*
X230350D02*
D03*
X223150Y333500D02*
D03*
X216850D02*
D03*
X235650Y335000D02*
D03*
X229350D02*
D03*
X247150Y331500D02*
D03*
X240850D02*
D03*
X383150Y261000D02*
D03*
X376850D02*
D03*
X373650Y255000D02*
D03*
X367350D02*
D03*
X379150Y241500D02*
D03*
X372850D02*
D03*
X198750Y233400D02*
D03*
X192450D02*
D03*
X195650Y308500D02*
D03*
X189350D02*
D03*
Y326500D02*
D03*
X195650D02*
D03*
X182650Y260000D02*
D03*
X176350D02*
D03*
X268893Y269842D02*
D03*
X262594D02*
D03*
D30*
X203437Y263000D02*
D03*
X195563D02*
D03*
D37*
X280086Y280047D02*
D03*
X286385D02*
D03*
X385350Y293200D02*
D03*
X391650D02*
D03*
X373350D02*
D03*
X379650D02*
D03*
X391650Y299200D02*
D03*
X385350D02*
D03*
X379650D02*
D03*
X373350D02*
D03*
X373350Y305500D02*
D03*
X379650D02*
D03*
X385350D02*
D03*
X391650D02*
D03*
Y311500D02*
D03*
X385350D02*
D03*
X379650D02*
D03*
X373350D02*
D03*
X373350Y269200D02*
D03*
X379650D02*
D03*
X385350D02*
D03*
X391650D02*
D03*
Y275200D02*
D03*
X385350D02*
D03*
X379650D02*
D03*
X373350D02*
D03*
X373350Y317500D02*
D03*
X379650D02*
D03*
X385350D02*
D03*
X391650D02*
D03*
Y323500D02*
D03*
X385350D02*
D03*
X379650D02*
D03*
X373350D02*
D03*
X373350Y281200D02*
D03*
X379650D02*
D03*
X385350D02*
D03*
X391650D02*
D03*
Y287200D02*
D03*
X385350D02*
D03*
X379650D02*
D03*
X373350D02*
D03*
X199850Y243500D02*
D03*
X206150D02*
D03*
X395750Y240900D02*
D03*
X389450D02*
D03*
X379150Y247500D02*
D03*
X372850D02*
D03*
X340846Y233741D02*
D03*
X334546D02*
D03*
X189550Y341600D02*
D03*
X195850D02*
D03*
X220150Y259000D02*
D03*
X213850D02*
D03*
X205150Y290500D02*
D03*
X198850D02*
D03*
X195650Y314500D02*
D03*
X189350D02*
D03*
Y320500D02*
D03*
X195650D02*
D03*
X360350Y247500D02*
D03*
X366650D02*
D03*
X204850Y339500D02*
D03*
X211150D02*
D03*
X193850Y278000D02*
D03*
X200150D02*
D03*
X293922Y316556D02*
D03*
X287623D02*
D03*
X293922Y310658D02*
D03*
X287623D02*
D03*
X256914Y293761D02*
D03*
X250615D02*
D03*
X238670Y291361D02*
D03*
X244969D02*
D03*
X264422Y306453D02*
D03*
X258123D02*
D03*
X258914Y255058D02*
D03*
X252615D02*
D03*
D38*
X270472Y348583D02*
D03*
X261007Y280583D02*
D03*
X270205Y283165D02*
D03*
D39*
X268503Y348583D02*
D03*
X266535D02*
D03*
X264566D02*
D03*
X270472Y352520D02*
D03*
X268503D02*
D03*
X266535D02*
D03*
X264566D02*
D03*
X259039Y280583D02*
D03*
X257070D02*
D03*
X255102D02*
D03*
X261007Y284520D02*
D03*
X259039D02*
D03*
X257070D02*
D03*
X255102D02*
D03*
X268237Y283165D02*
D03*
X266268D02*
D03*
X264300D02*
D03*
X270205Y287102D02*
D03*
X268237D02*
D03*
X266268D02*
D03*
X264300D02*
D03*
D43*
X176100Y314450D02*
D03*
Y308150D02*
D03*
X182000Y302750D02*
D03*
Y309050D02*
D03*
X270400Y314150D02*
D03*
Y307850D02*
D03*
X252500Y356150D02*
D03*
Y349850D02*
D03*
X279954Y285570D02*
D03*
Y291869D02*
D03*
X246924Y284150D02*
D03*
Y277851D02*
D03*
X352000Y310850D02*
D03*
Y317150D02*
D03*
X163400Y303050D02*
D03*
Y309350D02*
D03*
X178600Y340950D02*
D03*
Y334650D02*
D03*
X177600Y326450D02*
D03*
Y320150D02*
D03*
X154900Y332050D02*
D03*
Y338350D02*
D03*
Y317550D02*
D03*
Y323850D02*
D03*
X260000Y356150D02*
D03*
Y349850D02*
D03*
X366000Y235350D02*
D03*
Y241650D02*
D03*
X174600Y353950D02*
D03*
Y347650D02*
D03*
X349000Y236850D02*
D03*
Y243150D02*
D03*
X355000Y243150D02*
D03*
Y236850D02*
D03*
X199000Y303150D02*
D03*
Y296850D02*
D03*
X214000Y271450D02*
D03*
Y265150D02*
D03*
X226500Y252850D02*
D03*
Y259150D02*
D03*
X189500Y265850D02*
D03*
Y272150D02*
D03*
X263239Y330922D02*
D03*
Y324623D02*
D03*
X269729Y254453D02*
D03*
Y248154D02*
D03*
D44*
X412400Y354036D02*
D03*
Y243800D02*
D03*
Y251674D02*
D03*
Y259548D02*
D03*
Y267422D02*
D03*
Y275296D02*
D03*
Y283170D02*
D03*
Y291044D02*
D03*
Y298918D02*
D03*
Y306792D02*
D03*
Y314666D02*
D03*
Y322540D02*
D03*
Y330414D02*
D03*
Y346162D02*
D03*
Y338288D02*
D03*
D75*
X221616Y313007D02*
D03*
X222516Y324972D02*
D03*
D76*
X221616Y311039D02*
D03*
Y309070D02*
D03*
Y307102D02*
D03*
X217679Y313007D02*
D03*
Y311039D02*
D03*
Y309070D02*
D03*
Y307102D02*
D03*
X218580Y319066D02*
D03*
Y321035D02*
D03*
Y323003D02*
D03*
Y324972D02*
D03*
X222516Y319066D02*
D03*
Y321035D02*
D03*
Y323003D02*
D03*
D77*
X344350Y253555D02*
D03*
Y256114D02*
D03*
Y258673D02*
D03*
Y261232D02*
D03*
Y263791D02*
D03*
Y266350D02*
D03*
Y268910D02*
D03*
Y271468D02*
D03*
Y274028D02*
D03*
Y276587D02*
D03*
Y279146D02*
D03*
Y281705D02*
D03*
Y284264D02*
D03*
Y286823D02*
D03*
Y289382D02*
D03*
Y291941D02*
D03*
Y294500D02*
D03*
Y297059D02*
D03*
Y299618D02*
D03*
Y302177D02*
D03*
Y304736D02*
D03*
Y307295D02*
D03*
Y309854D02*
D03*
Y312413D02*
D03*
Y314972D02*
D03*
Y317531D02*
D03*
Y320091D02*
D03*
Y322650D02*
D03*
Y325209D02*
D03*
Y327768D02*
D03*
Y330327D02*
D03*
Y332886D02*
D03*
Y335445D02*
D03*
X300650D02*
D03*
Y332886D02*
D03*
Y330327D02*
D03*
Y327768D02*
D03*
Y325209D02*
D03*
Y322650D02*
D03*
Y320091D02*
D03*
Y317531D02*
D03*
Y314972D02*
D03*
Y312413D02*
D03*
Y309854D02*
D03*
Y307295D02*
D03*
Y304736D02*
D03*
Y302177D02*
D03*
Y299618D02*
D03*
Y297059D02*
D03*
Y294500D02*
D03*
Y291941D02*
D03*
Y289382D02*
D03*
Y286823D02*
D03*
Y284264D02*
D03*
Y281705D02*
D03*
Y279146D02*
D03*
Y276587D02*
D03*
Y274028D02*
D03*
Y271468D02*
D03*
Y268910D02*
D03*
Y266350D02*
D03*
Y263791D02*
D03*
Y261232D02*
D03*
Y258673D02*
D03*
Y256114D02*
D03*
Y253555D02*
D03*
D78*
X161374Y316510D02*
D03*
X170626Y320250D02*
D03*
X161374Y331509D02*
D03*
X170626Y335250D02*
D03*
X199174Y350150D02*
D03*
X208426Y353890D02*
D03*
X224126Y353991D02*
D03*
X214874Y350250D02*
D03*
D79*
X161374Y323990D02*
D03*
Y338990D02*
D03*
X208426Y346410D02*
D03*
X224126Y346510D02*
D03*
M02*
