%FSLAX25Y25*%
%MOIN*%
G70*
G01*
G75*
G04 Layer_Physical_Order=3*
G04 Layer_Color=32768*
%ADD10O,0.03150X0.01181*%
%ADD11O,0.01181X0.03150*%
%ADD12R,0.09843X0.09843*%
%ADD13R,0.06102X0.02362*%
%ADD14R,0.10236X0.01102*%
%ADD15R,0.05906X0.01181*%
%ADD16R,0.01181X0.05906*%
%ADD17R,0.09843X0.07874*%
%ADD18R,0.09055X0.01969*%
%ADD19R,0.03937X0.03740*%
%ADD20R,0.01870X0.00787*%
%ADD21R,0.03937X0.03937*%
%ADD22R,0.02362X0.03937*%
%ADD23R,0.03937X0.02362*%
%ADD24R,0.03937X0.03937*%
%ADD25O,0.06102X0.00984*%
%ADD26O,0.00984X0.06102*%
%ADD27R,0.19685X0.19685*%
%ADD28R,0.03740X0.03937*%
%ADD29R,0.05512X0.12598*%
%ADD30R,0.03937X0.04724*%
%ADD31R,0.08661X0.07874*%
%ADD32R,0.04724X0.05512*%
%ADD33R,0.09055X0.09055*%
%ADD34O,0.01181X0.03543*%
%ADD35O,0.03543X0.01181*%
%ADD36R,0.02362X0.03150*%
%ADD37R,0.03543X0.03937*%
%ADD38R,0.00984X0.02362*%
%ADD39O,0.00984X0.02362*%
%ADD40R,0.03150X0.02362*%
%ADD41R,0.12598X0.05512*%
%ADD42R,0.02559X0.03543*%
%ADD43R,0.03937X0.03543*%
%ADD44R,0.07874X0.03150*%
%ADD45R,0.03543X0.03150*%
%ADD46C,0.00600*%
%ADD47C,0.01200*%
%ADD48C,0.01000*%
%ADD49C,0.00787*%
%ADD50C,0.00800*%
%ADD51C,0.02000*%
%ADD52C,0.01500*%
%ADD53C,0.15000*%
%ADD54R,0.06000X0.06000*%
%ADD55C,0.06000*%
%ADD56C,0.10600*%
%ADD57C,0.01969*%
%ADD58R,0.05906X0.05906*%
%ADD59C,0.05906*%
%ADD60C,0.02600*%
%ADD61C,0.04000*%
%ADD62R,0.07087X0.12205*%
%ADD63R,0.10236X0.02362*%
%ADD64R,0.14961X0.08268*%
%ADD65R,0.07874X0.17323*%
%ADD66C,0.14998*%
%ADD67C,0.05400*%
%ADD68C,0.10400*%
%ADD69C,0.05943*%
%ADD70C,0.03600*%
%ADD71R,0.05512X0.14173*%
%ADD72R,0.15748X0.08268*%
%ADD73R,0.12205X0.17716*%
%ADD74R,0.19685X0.02756*%
G36*
X415354Y198819D02*
X405512Y188976D01*
Y185039D01*
X320866D01*
Y218504D01*
X415354D01*
Y198819D01*
D02*
G37*
G36*
X301181Y185039D02*
X145669D01*
Y202756D01*
X167323D01*
Y218504D01*
X301181D01*
Y185039D01*
D02*
G37*
G36*
X415354Y362205D02*
X303150D01*
Y368110D01*
X401575D01*
X405512Y372047D01*
X415354Y362205D01*
D02*
G37*
G36*
X244094Y385827D02*
X250000Y379921D01*
X263779D01*
Y362205D01*
X145669D01*
Y395669D01*
X244094D01*
Y385827D01*
D02*
G37*
D49*
X149606Y210630D02*
X155512D01*
Y204724D02*
Y210630D01*
X149606Y204724D02*
X155512D01*
X149606D02*
Y210630D01*
D50*
X151912Y209448D02*
X153768D01*
X152756Y208099D01*
X153262D01*
X153599Y207930D01*
X153768Y207761D01*
X153937Y207255D01*
Y206918D01*
X153768Y206412D01*
X153430Y206074D01*
X152924Y205906D01*
X152418D01*
X151912Y206074D01*
X151743Y206243D01*
X151575Y206580D01*
D61*
X146000Y185000D02*
X406000D01*
Y190000D01*
X416000Y200000D01*
Y361400D01*
X406000Y371400D02*
X416000Y361400D01*
X406000Y371400D02*
Y385000D01*
X396000Y395000D02*
X406000Y385000D01*
X146000Y395000D02*
X396000D01*
X146000Y185000D02*
Y395000D01*
D66*
X406000Y215000D02*
D03*
X201000Y195000D02*
D03*
X206000Y385000D02*
D03*
D67*
X346000Y195000D02*
D03*
X356000D02*
D03*
X366000D02*
D03*
X376000D02*
D03*
X386000D02*
D03*
X396000D02*
D03*
X310000Y385000D02*
D03*
X300000D02*
D03*
X290000D02*
D03*
X280000D02*
D03*
X270000D02*
D03*
X260000D02*
D03*
X240000D02*
D03*
X230000D02*
D03*
X220000D02*
D03*
X396000D02*
D03*
X366000D02*
D03*
X356000D02*
D03*
X346000D02*
D03*
X336000D02*
D03*
X326000D02*
D03*
X386000D02*
D03*
X376000D02*
D03*
X326000Y195000D02*
D03*
X296000D02*
D03*
X286000D02*
D03*
X276000D02*
D03*
X266000D02*
D03*
X256000D02*
D03*
D68*
X162743Y351443D02*
D03*
X186208D02*
D03*
Y294357D02*
D03*
X162743D02*
D03*
D69*
X168484Y235669D02*
D03*
Y252991D02*
D03*
X342306Y227178D02*
D03*
X332306D02*
D03*
X322306D02*
D03*
X312306D02*
D03*
X302306D02*
D03*
D70*
X186900Y227500D02*
D03*
X203700Y231500D02*
D03*
X203000Y235000D02*
D03*
X185400Y253200D02*
D03*
X193900Y238600D02*
D03*
X264800Y239800D02*
D03*
X282700Y225300D02*
D03*
X256700Y274200D02*
D03*
X255400Y244100D02*
D03*
X248300Y254800D02*
D03*
X238547Y287553D02*
D03*
X200700Y340200D02*
D03*
X207000Y335900D02*
D03*
X198100Y330400D02*
D03*
X295600Y260200D02*
D03*
X310900Y330000D02*
D03*
X306500Y330800D02*
D03*
X160100Y279000D02*
D03*
X388100Y234800D02*
D03*
X392400Y261300D02*
D03*
X397900Y224400D02*
D03*
X369300Y297400D02*
D03*
X175500Y291900D02*
D03*
X221600Y267700D02*
D03*
X387500Y335100D02*
D03*
X383000Y337500D02*
D03*
X298083Y344200D02*
D03*
X226500Y249500D02*
D03*
X250100Y229100D02*
D03*
X252600Y226800D02*
D03*
X206300Y247600D02*
D03*
X293000Y354300D02*
D03*
X284800Y298748D02*
D03*
X329300Y306900D02*
D03*
Y303300D02*
D03*
X307500Y353900D02*
D03*
X293900Y320100D02*
D03*
X231100Y255900D02*
D03*
X200600Y238400D02*
D03*
X162900Y283800D02*
D03*
X332400Y288400D02*
D03*
X354100Y289900D02*
D03*
X356300Y276800D02*
D03*
X316400Y285800D02*
D03*
X316500Y289100D02*
D03*
X335800Y295700D02*
D03*
X158100Y323850D02*
D03*
X158300Y338350D02*
D03*
X228500Y271500D02*
D03*
X260100Y341300D02*
D03*
X291300Y265900D02*
D03*
X290200Y282800D02*
D03*
X284787Y287013D02*
D03*
X296200Y363000D02*
D03*
X261800Y364200D02*
D03*
X275700Y365100D02*
D03*
X285000Y315100D02*
D03*
Y311700D02*
D03*
X271550Y304350D02*
D03*
X275300Y287200D02*
D03*
X268200Y320200D02*
D03*
X258000Y316700D02*
D03*
X255705Y314000D02*
D03*
X253900Y309100D02*
D03*
X249600Y298500D02*
D03*
X253975Y305600D02*
D03*
X253100Y302400D02*
D03*
X294500Y270100D02*
D03*
X308000Y284700D02*
D03*
X305200Y278600D02*
D03*
X258900Y276600D02*
D03*
X254400Y276700D02*
D03*
X309000Y246500D02*
D03*
X354400Y247300D02*
D03*
X340200Y261300D02*
D03*
X225500Y315500D02*
D03*
X250358Y331358D02*
D03*
X214200Y320700D02*
D03*
X229300Y318300D02*
D03*
X228500Y321500D02*
D03*
X257700Y321400D02*
D03*
X309554Y309854D02*
D03*
X332900Y326500D02*
D03*
X339100Y319300D02*
D03*
X339500Y322700D02*
D03*
X214200Y317100D02*
D03*
X305741Y297059D02*
D03*
X338732Y246532D02*
D03*
X324953Y246553D02*
D03*
X211700Y322900D02*
D03*
X211800Y326900D02*
D03*
X192800Y244100D02*
D03*
X319047Y246753D02*
D03*
X324500Y259000D02*
D03*
X382500Y269200D02*
D03*
Y275200D02*
D03*
X368631Y273331D02*
D03*
X382500Y281200D02*
D03*
Y287200D02*
D03*
X358300Y298700D02*
D03*
X369400Y286500D02*
D03*
X306395Y307295D02*
D03*
X306187Y312413D02*
D03*
X304868Y327768D02*
D03*
X382500Y293200D02*
D03*
Y299200D02*
D03*
X358000Y310000D02*
D03*
X382500Y305500D02*
D03*
Y311500D02*
D03*
Y317500D02*
D03*
X253000Y298600D02*
D03*
X240516Y297684D02*
D03*
X225900Y328800D02*
D03*
X233600Y331100D02*
D03*
X369500Y313500D02*
D03*
X369410Y300610D02*
D03*
X307851Y343351D02*
D03*
X202800Y345800D02*
D03*
X219200Y348900D02*
D03*
X374740Y230460D02*
D03*
X355100Y261800D02*
D03*
X358100Y257200D02*
D03*
X358638Y271362D02*
D03*
X378200Y255000D02*
D03*
X367200Y230800D02*
D03*
X388400Y260800D02*
D03*
X387000Y264600D02*
D03*
X355000Y232700D02*
D03*
X368700Y261520D02*
D03*
X369630Y266970D02*
D03*
X209600Y269800D02*
D03*
X325400Y324800D02*
D03*
X358400Y313400D02*
D03*
X209400Y279100D02*
D03*
Y281700D02*
D03*
X185850Y280800D02*
D03*
Y278200D02*
D03*
X154763Y312737D02*
D03*
X165490Y331509D02*
D03*
X360100Y251400D02*
D03*
X362700Y256600D02*
D03*
X185200Y269900D02*
D03*
X199859Y258581D02*
D03*
X171600Y292000D02*
D03*
X244500Y256800D02*
D03*
X207800Y260900D02*
D03*
X258247Y311547D02*
D03*
X379500Y338000D02*
D03*
X382500Y323500D02*
D03*
X389731Y343131D02*
D03*
X390000Y331500D02*
D03*
X297600Y353400D02*
D03*
X406500Y334000D02*
D03*
Y327000D02*
D03*
X401500Y304000D02*
D03*
Y301500D02*
D03*
X406500Y310500D02*
D03*
X406000Y303000D02*
D03*
X339500Y330500D02*
D03*
X218000Y266000D02*
D03*
X313900Y316500D02*
D03*
X311000Y319200D02*
D03*
X313125Y326483D02*
D03*
X337500Y271700D02*
D03*
X206000Y253000D02*
D03*
X306000Y274200D02*
D03*
X336900Y279100D02*
D03*
X340150Y266350D02*
D03*
X336500Y275500D02*
D03*
X339705Y281705D02*
D03*
X284727Y307127D02*
D03*
X194700Y255900D02*
D03*
X192000Y253300D02*
D03*
X209700Y259000D02*
D03*
X189000Y253300D02*
D03*
X202700Y252700D02*
D03*
X321016Y260184D02*
D03*
X336400Y265800D02*
D03*
X329000Y261400D02*
D03*
X311900Y278000D02*
D03*
X318700Y257100D02*
D03*
X322900Y275900D02*
D03*
X318600Y274200D02*
D03*
X305200Y263500D02*
D03*
X309500Y257900D02*
D03*
X295600Y256900D02*
D03*
X288100Y241600D02*
D03*
X244600Y232500D02*
D03*
X231400Y225100D02*
D03*
X229000Y225200D02*
D03*
X252200Y274300D02*
D03*
X242800Y283874D02*
D03*
X233100Y270700D02*
D03*
X226200Y303700D02*
D03*
X213500Y304700D02*
D03*
X213600Y308610D02*
D03*
X209200Y315046D02*
D03*
X209100Y311500D02*
D03*
X173200Y330700D02*
D03*
X212800Y335000D02*
D03*
X223900Y340000D02*
D03*
X235200Y342100D02*
D03*
X195132Y302759D02*
D03*
X194400Y297800D02*
D03*
X209200Y299800D02*
D03*
X210100Y290700D02*
D03*
X264400Y280000D02*
D03*
X273806Y269394D02*
D03*
X268100Y279100D02*
D03*
X272900Y284900D02*
D03*
X263400Y340700D02*
D03*
X264400Y335300D02*
D03*
X273200Y347600D02*
D03*
X290093Y322607D02*
D03*
X296200Y328000D02*
D03*
X292500Y328200D02*
D03*
X253800Y319000D02*
D03*
X203200Y353100D02*
D03*
X252700Y345900D02*
D03*
X258000Y344100D02*
D03*
X248600Y345800D02*
D03*
X253600Y324600D02*
D03*
X333200Y353300D02*
D03*
X242600Y354200D02*
D03*
X245800D02*
D03*
X256200Y356150D02*
D03*
X247900Y356900D02*
D03*
X185159Y265290D02*
D03*
X185900Y262900D02*
D03*
X167100Y287700D02*
D03*
X173300Y342200D02*
D03*
X177500Y303800D02*
D03*
X197300Y282500D02*
D03*
X230100Y243200D02*
D03*
X291000Y262500D02*
D03*
X288300Y258673D02*
D03*
X283600Y240800D02*
D03*
X279200D02*
D03*
X281400Y245000D02*
D03*
X313142Y246658D02*
D03*
X312900Y297500D02*
D03*
X352861Y352838D02*
D03*
X351200Y330200D02*
D03*
X351100Y327000D02*
D03*
X349000Y321200D02*
D03*
X331700Y312100D02*
D03*
X338900Y312300D02*
D03*
X330200Y319100D02*
D03*
X322400Y301000D02*
D03*
X317700Y354500D02*
D03*
X367300Y331700D02*
D03*
X348500Y341500D02*
D03*
X343500D02*
D03*
X354500Y297000D02*
D03*
X359043Y320983D02*
D03*
X351100Y323700D02*
D03*
X357500Y318000D02*
D03*
X335432Y237732D02*
D03*
X289911Y288211D02*
D03*
X307000Y287900D02*
D03*
D71*
X146850Y204724D02*
D03*
D72*
X154331Y214764D02*
D03*
D73*
X161614Y210039D02*
D03*
D74*
X155905Y203740D02*
D03*
M02*
