M48
;Layer_Color=9474304
;FILE_FORMAT=2:5
INCH,LZ
;TYPE=PLATED
T1F00S00C0.01200
%
T01
X04716Y03016
X04662Y03089
X0454752Y0305748
X0454374Y0297874
X04535Y02935
X0454Y029
X045487Y032937
X04603Y03288
X04613Y03343
X0454244Y0337244
X0454382Y0345118
X0454Y03531
X04535Y03575
X0454366Y0360866
X0453Y03645
X045448Y03685
X04545Y0375
X0456Y03844
Y03878
X04577Y03926
X04556Y03969
X04553Y04003
X04595Y03992
X04662Y04015
X04664Y03813
X04491Y03962
X04662Y03231
X0477Y03485
X04742Y0353
X0475Y0369
X04745Y03775
X0472Y038
X0477897Y0379603
X04817Y03809
X04882Y03803
X04868Y03765
X0486Y03731
X04991Y03775
X0504Y03805
X05042Y03844
X05055Y0391
X04988Y03895
X04955
X0491886Y0389361
X04905Y03925
X0487Y03915
X04838Y03904
X04846Y03939
X0483802Y0401198
X0480102Y0401098
X04765Y0401
X04712Y04012
X04739Y0391
X0488527Y0401473
X04955Y04015
X04979Y03938
M30
