%FSLAX25Y25*%
%MOIN*%
G70*
G01*
G75*
G04 Layer_Physical_Order=3*
G04 Layer_Color=128*
%ADD10R,0.07874X0.03150*%
%ADD11R,0.01969X0.04724*%
%ADD12R,0.01181X0.03150*%
%ADD13R,0.03937X0.03543*%
%ADD14C,0.00800*%
%ADD15C,0.02000*%
%ADD16C,0.00600*%
%ADD17C,0.01500*%
%ADD18C,0.02600*%
%ADD19C,0.04000*%
%ADD20C,0.01000*%
%ADD21C,0.03200*%
D19*
X443500Y286000D02*
Y405000D01*
X513000D01*
Y286000D02*
Y405000D01*
X443500Y286000D02*
X513000D01*
D21*
X466200Y323100D02*
D03*
X477000Y348500D02*
D03*
X486800Y376500D02*
D03*
X461300Y334300D02*
D03*
X466400Y381300D02*
D03*
X481700Y380900D02*
D03*
X474500Y377500D02*
D03*
X477897Y379603D02*
D03*
X454244Y337244D02*
D03*
X486000Y373100D02*
D03*
X483802Y401198D02*
D03*
X471200Y401200D02*
D03*
X454374Y297874D02*
D03*
X454000Y290000D02*
D03*
X454480Y368500D02*
D03*
X454366Y360866D02*
D03*
X454382Y345118D02*
D03*
X453000Y364500D02*
D03*
X453500Y357500D02*
D03*
Y293500D02*
D03*
X449100Y396200D02*
D03*
X490500Y392500D02*
D03*
X504000Y380500D02*
D03*
X504200Y384400D02*
D03*
X498800Y389500D02*
D03*
X460300Y328800D02*
D03*
X466200Y308900D02*
D03*
X495500Y389500D02*
D03*
X491886Y389361D02*
D03*
X487000Y391500D02*
D03*
X484600Y393900D02*
D03*
X483800Y390400D02*
D03*
X473900Y391000D02*
D03*
X456000Y387800D02*
D03*
Y384400D02*
D03*
X497900Y393800D02*
D03*
X480102Y401098D02*
D03*
X476500Y401000D02*
D03*
X466200Y401500D02*
D03*
X455600Y396900D02*
D03*
M02*
