%FSLAX25Y25*%
%MOIN*%
G70*
G01*
G75*
G04 Layer_Color=16711935*
%ADD10R,0.07874X0.03150*%
%ADD11R,0.01969X0.04724*%
%ADD12R,0.01181X0.03150*%
%ADD13R,0.03937X0.03543*%
%ADD14C,0.00800*%
%ADD15C,0.02000*%
%ADD16C,0.00600*%
%ADD17C,0.01500*%
%ADD18C,0.02600*%
%ADD19C,0.04000*%
%ADD20C,0.01000*%
%ADD21C,0.03200*%
%ADD22R,0.03937X0.03740*%
%ADD23R,0.03740X0.03937*%
%ADD24R,0.03543X0.03937*%
%ADD25C,0.01200*%
%ADD26C,0.01181*%
%ADD27C,0.00787*%
%ADD28R,0.01181X0.17323*%
%ADD29R,0.08674X0.03950*%
%ADD30R,0.02769X0.05524*%
%ADD31R,0.01981X0.03950*%
%ADD32R,0.04737X0.04343*%
%ADD33R,0.04737X0.04540*%
%ADD34R,0.04540X0.04737*%
%ADD35R,0.04343X0.04737*%
D29*
X447500Y400236D02*
D03*
Y290000D02*
D03*
Y297874D02*
D03*
Y305748D02*
D03*
Y313622D02*
D03*
Y321496D02*
D03*
Y329370D02*
D03*
Y337244D02*
D03*
Y345118D02*
D03*
Y352992D02*
D03*
Y360866D02*
D03*
Y368740D02*
D03*
Y376614D02*
D03*
Y392362D02*
D03*
Y384488D02*
D03*
D32*
X464000Y369950D02*
D03*
Y376250D02*
D03*
D33*
X479100Y375150D02*
D03*
Y368850D02*
D03*
D34*
X473750Y396900D02*
D03*
X467450D02*
D03*
X460950Y389600D02*
D03*
X467250D02*
D03*
D35*
X460450Y301600D02*
D03*
X466750D02*
D03*
M02*
