%FSLAX25Y25*%
%MOIN*%
G70*
G01*
G75*
G04 Layer_Physical_Order=2*
G04 Layer_Color=32768*
%ADD10R,0.07874X0.03150*%
%ADD11R,0.01969X0.04724*%
%ADD12R,0.01181X0.03150*%
%ADD13R,0.03937X0.03543*%
%ADD14C,0.00800*%
%ADD15C,0.02000*%
%ADD16C,0.00600*%
%ADD17C,0.01500*%
%ADD18C,0.02600*%
%ADD19C,0.04000*%
%ADD20C,0.01000*%
%ADD21C,0.03200*%
D19*
X443500Y286000D02*
Y405000D01*
X513000D01*
Y286000D02*
Y405000D01*
X443500Y286000D02*
X513000D01*
D20*
X457600Y325800D02*
X462200D01*
X463700Y327300D01*
Y330500D01*
X462500Y331700D02*
X463700Y330500D01*
X458700Y331700D02*
X462500D01*
X457700Y332700D02*
X458700Y331700D01*
X457700Y332700D02*
Y334900D01*
X460300Y337500D01*
X465800Y343000D01*
Y374900D01*
X468900Y378000D01*
Y404500D01*
X467800Y405600D02*
X468900Y404500D01*
X463300Y405600D02*
X467800D01*
X462400Y404700D02*
X463300Y405600D01*
X462400Y381300D02*
Y404700D01*
X460400Y379300D02*
X462400Y381300D01*
X460400Y343900D02*
Y379300D01*
X457900Y341400D02*
X460400Y343900D01*
X454700Y341400D02*
X457900D01*
X453700Y340400D02*
X454700Y341400D01*
X453700Y329700D02*
Y340400D01*
Y329700D02*
X457600Y325800D01*
X468900Y394800D02*
X475900D01*
X476900Y393800D01*
Y374900D02*
Y393800D01*
X469900Y367900D02*
X476900Y374900D01*
X469900Y337400D02*
Y367900D01*
X463300Y330800D02*
X469900Y337400D01*
D21*
X466200Y323100D02*
D03*
X477000Y348500D02*
D03*
X474200Y353000D02*
D03*
X486800Y376500D02*
D03*
X488200Y380300D02*
D03*
X472000Y380000D02*
D03*
X475000Y369000D02*
D03*
X481700Y380900D02*
D03*
X474500Y377500D02*
D03*
X477897Y379603D02*
D03*
X454244Y337244D02*
D03*
X486000Y373100D02*
D03*
X505500Y391000D02*
D03*
X495500Y401500D02*
D03*
X488527Y401473D02*
D03*
X483802Y401198D02*
D03*
X471200Y401200D02*
D03*
X454374Y297874D02*
D03*
X454000Y290000D02*
D03*
X454752Y305748D02*
D03*
X454480Y368500D02*
D03*
X454366Y360866D02*
D03*
X454382Y345118D02*
D03*
X454870Y329370D02*
D03*
X471600Y301600D02*
D03*
X453500Y293500D02*
D03*
X454500Y375000D02*
D03*
X455300Y400300D02*
D03*
X449100Y396200D02*
D03*
X454000Y353100D02*
D03*
X490500Y392500D02*
D03*
X499100Y377500D02*
D03*
X504000Y380500D02*
D03*
X504200Y384400D02*
D03*
X498800Y389500D02*
D03*
X466200Y308900D02*
D03*
X495500Y389500D02*
D03*
X491886Y389361D02*
D03*
X487000Y391500D02*
D03*
X484600Y393900D02*
D03*
X483800Y390400D02*
D03*
X456000Y387800D02*
D03*
Y384400D02*
D03*
X457700Y392600D02*
D03*
X497900Y393800D02*
D03*
X480102Y401098D02*
D03*
X459500Y399200D02*
D03*
X455600Y396900D02*
D03*
M02*
