%FSLAX25Y25*%
%MOIN*%
G70*
G01*
G75*
G04 Layer_Physical_Order=4*
G04 Layer_Color=16711680*
%ADD10R,0.07874X0.03150*%
%ADD11R,0.01969X0.04724*%
%ADD12R,0.01181X0.03150*%
%ADD13R,0.03937X0.03543*%
%ADD14C,0.00800*%
%ADD15C,0.02000*%
%ADD16C,0.00600*%
%ADD17C,0.01500*%
%ADD18C,0.02600*%
%ADD19C,0.04000*%
%ADD20C,0.01000*%
%ADD21C,0.03200*%
%ADD22R,0.03937X0.03740*%
%ADD23R,0.03740X0.03937*%
%ADD24R,0.03543X0.03937*%
%ADD25C,0.01200*%
D10*
X447500Y400236D02*
D03*
Y290000D02*
D03*
Y297874D02*
D03*
Y305748D02*
D03*
Y313622D02*
D03*
Y321496D02*
D03*
Y329370D02*
D03*
Y337244D02*
D03*
Y345118D02*
D03*
Y352992D02*
D03*
Y360866D02*
D03*
Y368740D02*
D03*
Y376614D02*
D03*
Y392362D02*
D03*
Y384488D02*
D03*
D13*
X464000Y369950D02*
D03*
Y376250D02*
D03*
D14*
X457400Y340400D02*
X490563D01*
X457500Y342000D02*
X489900D01*
X495300Y347400D02*
Y383286D01*
X489900Y342000D02*
X495300Y347400D01*
X496800Y346637D02*
Y374400D01*
X490563Y340400D02*
X496800Y346637D01*
X502500Y305000D02*
Y378465D01*
X504100Y304337D02*
Y380400D01*
X487900Y384000D02*
X490600Y381300D01*
Y366300D02*
Y381300D01*
X489586Y384577D02*
Y391586D01*
Y384577D02*
X492200Y381963D01*
Y365637D02*
Y381963D01*
X484300Y375465D02*
Y382600D01*
X488863Y362300D02*
X492200Y365637D01*
X455800Y362300D02*
X488863D01*
X488200Y363900D02*
X490600Y366300D01*
X459080Y363900D02*
X488200D01*
X484300Y375465D02*
X486000Y373764D01*
X487900Y384000D02*
Y390600D01*
X482000Y384900D02*
X484300Y382600D01*
X485900Y377400D02*
Y383263D01*
X483600Y385563D02*
X485900Y383263D01*
X483600Y385563D02*
Y390200D01*
X481300Y388000D02*
X482000Y387300D01*
Y384900D02*
Y387300D01*
X478200Y391437D02*
X483563Y396800D01*
X476600Y392100D02*
X482900Y398400D01*
X483563Y396800D02*
X494900D01*
X482900Y398400D02*
X495700D01*
X454366Y360866D02*
X455800Y362300D01*
X454244Y337244D02*
X457400Y340400D01*
X475000Y368945D02*
Y369000D01*
Y368945D02*
X475095Y368850D01*
X477900D01*
X454374Y297874D02*
X457448Y294800D01*
X454000Y290000D02*
X457200Y293200D01*
X492963D01*
X457448Y294800D02*
X492300D01*
X476500Y399650D02*
Y401000D01*
X473750Y396900D02*
X476500Y399650D01*
X477897Y379603D02*
X477900Y379600D01*
X447500Y345118D02*
X447618D01*
X447500Y329370D02*
X454870D01*
X447500Y321496D02*
X450004D01*
X454870Y326362D01*
Y329370D01*
X454847Y301600D02*
X460450D01*
X452747Y299500D02*
X454847Y301600D01*
X447500Y297874D02*
X449874D01*
X451500Y299500D02*
X452747D01*
X449874Y297874D02*
X451500Y299500D01*
X466750Y301600D02*
X471600D01*
X447500Y290000D02*
X450000D01*
X453500Y293500D01*
X477900Y375150D02*
Y379600D01*
X501500Y379465D02*
Y381536D01*
X504200Y384236D02*
Y384400D01*
X501500Y381536D02*
X504200Y384236D01*
X466200Y308900D02*
Y323100D01*
X454382Y345118D02*
X457500Y342000D01*
X454480Y368500D02*
X459080Y363900D01*
X495500Y385349D02*
Y389500D01*
Y385349D02*
X496800Y384049D01*
Y374400D02*
Y384049D01*
X494043Y384543D02*
X495300Y383286D01*
X494043Y384543D02*
Y387204D01*
X491886Y389361D02*
X494043Y387204D01*
X487000Y391500D02*
X487900Y390600D01*
X489586Y391586D02*
X490500Y392500D01*
X486000Y373100D02*
Y373764D01*
X485900Y377400D02*
X486800Y376500D01*
X483765Y393900D02*
X484600D01*
X483600Y390200D02*
X483800Y390400D01*
X481300Y388000D02*
Y391436D01*
X483765Y393900D01*
X474215Y384700D02*
X478200Y388685D01*
X494900Y396800D02*
X497900Y393800D01*
X501500Y379465D02*
X502500Y378465D01*
X492300Y294800D02*
X502500Y305000D01*
X504000Y380500D02*
X504100Y380400D01*
X492963Y293200D02*
X504100Y304337D01*
X473553Y386300D02*
X476600Y389347D01*
Y392100D01*
X495700Y398400D02*
X497800Y396300D01*
X498936D01*
X500400Y394835D01*
Y391100D02*
Y394835D01*
X498800Y389500D02*
X500400Y391100D01*
X478200Y388685D02*
Y391437D01*
X462200Y399200D02*
X464500Y396900D01*
X459500Y399200D02*
X462200D01*
X464500Y396900D02*
X467450D01*
X456000Y387800D02*
X456136D01*
X457635Y386300D01*
X456000Y384400D02*
X456300Y384700D01*
X474215D01*
X457635Y386300D02*
X473553D01*
D15*
X453500Y348500D02*
X477000D01*
X453043Y334344D02*
X461256D01*
X447500Y305748D02*
X454752D01*
X447618Y345118D02*
X450118D01*
X453500Y348500D01*
X447500Y337244D02*
X450143D01*
X447500Y360866D02*
X449366D01*
X453000Y364500D01*
X447500Y360866D02*
X450134D01*
X453500Y357500D01*
X461256Y334344D02*
X461300Y334300D01*
X450143Y337244D02*
X453043Y334344D01*
D16*
X476520Y394559D02*
Y397515D01*
X475961Y394000D02*
X476520Y394559D01*
X471200Y369000D02*
X475000D01*
X470979Y400980D02*
X471200Y401200D01*
X449100Y393962D02*
Y396200D01*
X447500Y392362D02*
X449100Y393962D01*
X464000Y369950D02*
X470250D01*
X471200Y369000D01*
X447500Y380900D02*
X448400Y380000D01*
X447500Y380900D02*
Y384488D01*
X470979Y395318D02*
Y400980D01*
X469693Y394032D02*
X470979Y395318D01*
X464459Y394032D02*
X469693D01*
X455900Y396700D02*
X461791D01*
X464459Y394032D01*
X447500Y400236D02*
X452252D01*
X453400Y399089D01*
X456511Y394700D02*
X456611Y394800D01*
X462468Y392831D02*
X470532D01*
X471700Y394000D01*
X475961D01*
X476520Y397515D02*
X480102Y401098D01*
X456611Y394800D02*
X460500D01*
X462468Y392831D01*
X453400Y395400D02*
Y399089D01*
Y395400D02*
X453800Y395000D01*
X474500Y375000D02*
Y377500D01*
X473000Y373500D02*
X474500Y375000D01*
X459700Y373500D02*
X473000D01*
X448400Y380000D02*
X453200D01*
X459700Y373500D01*
X457489Y379800D02*
X463200D01*
X464000Y379000D01*
Y376250D02*
Y379000D01*
X453800Y383489D02*
X457489Y379800D01*
X453800Y394700D02*
X456511D01*
X453800Y383489D02*
Y394700D01*
Y395000D01*
D17*
X447500Y313622D02*
X450630D01*
X447500D02*
X455222D01*
X460300Y318700D01*
Y328800D01*
X472050Y391000D02*
X473900D01*
X470650Y389600D02*
X472050Y391000D01*
X467250Y389600D02*
X470650D01*
D18*
X466200Y323100D02*
D03*
X477000Y348500D02*
D03*
X474200Y353000D02*
D03*
X486800Y376500D02*
D03*
X488200Y380300D02*
D03*
X461300Y334300D02*
D03*
X472000Y380000D02*
D03*
X475000Y369000D02*
D03*
X466400Y381300D02*
D03*
X481700Y380900D02*
D03*
X474500Y377500D02*
D03*
X477897Y379603D02*
D03*
X454244Y337244D02*
D03*
X486000Y373100D02*
D03*
X505500Y391000D02*
D03*
X495500Y401500D02*
D03*
X488527Y401473D02*
D03*
X483802Y401198D02*
D03*
X471200Y401200D02*
D03*
X454374Y297874D02*
D03*
X454000Y290000D02*
D03*
X454752Y305748D02*
D03*
X454480Y368500D02*
D03*
X454366Y360866D02*
D03*
X454382Y345118D02*
D03*
X453000Y364500D02*
D03*
X453500Y357500D02*
D03*
X454870Y329370D02*
D03*
X471600Y301600D02*
D03*
X453500Y293500D02*
D03*
X454500Y375000D02*
D03*
X455300Y400300D02*
D03*
X449100Y396200D02*
D03*
X454000Y353100D02*
D03*
X490500Y392500D02*
D03*
X499100Y377500D02*
D03*
X504000Y380500D02*
D03*
X504200Y384400D02*
D03*
X498800Y389500D02*
D03*
X460300Y328800D02*
D03*
X466200Y308900D02*
D03*
X495500Y389500D02*
D03*
X491886Y389361D02*
D03*
X487000Y391500D02*
D03*
X484600Y393900D02*
D03*
X483800Y390400D02*
D03*
X473900Y391000D02*
D03*
X456000Y387800D02*
D03*
Y384400D02*
D03*
X457700Y392600D02*
D03*
X497900Y393800D02*
D03*
X480102Y401098D02*
D03*
X476500Y401000D02*
D03*
X459500Y399200D02*
D03*
X466200Y401500D02*
D03*
X455600Y396900D02*
D03*
D22*
X479100Y375150D02*
D03*
Y368850D02*
D03*
D23*
X473750Y396900D02*
D03*
X467450D02*
D03*
X460950Y389600D02*
D03*
X467250D02*
D03*
D24*
X460450Y301600D02*
D03*
X466750D02*
D03*
D25*
X457700Y392600D02*
X460000Y390300D01*
M02*
