%FSLAX25Y25*%
%MOIN*%
G70*
G01*
G75*
G04 Layer_Physical_Order=3*
G04 Layer_Color=128*
%ADD10R,0.07874X0.03150*%
%ADD11R,0.03937X0.03740*%
%ADD12R,0.02362X0.03150*%
%ADD13R,0.07874X0.00787*%
%ADD14R,0.03937X0.03543*%
%ADD15R,0.03543X0.03937*%
%ADD16C,0.00800*%
%ADD17C,0.02000*%
%ADD18C,0.02600*%
%ADD19C,0.04000*%
%ADD20C,0.03200*%
%ADD21C,0.01000*%
D19*
X443500Y286000D02*
Y405000D01*
X513000D01*
Y286000D02*
Y405000D01*
X443500Y286000D02*
X513000D01*
D20*
X460500Y319259D02*
D03*
Y315859D02*
D03*
X460000Y363103D02*
D03*
X460500Y342881D02*
D03*
Y339481D02*
D03*
X455508Y352992D02*
D03*
X502840Y361390D02*
D03*
X499490Y356920D02*
D03*
X499440Y361720D02*
D03*
X503090Y356880D02*
D03*
X499360Y352080D02*
D03*
X503070Y352040D02*
D03*
X466770Y359090D02*
D03*
X457570Y357570D02*
D03*
X460280Y310580D02*
D03*
X459330Y306000D02*
D03*
X456230Y300220D02*
D03*
X460000Y366503D02*
D03*
X454220Y371430D02*
D03*
D21*
X443500Y367140D02*
X451760D01*
X458050Y360850D01*
X462960D01*
X464240Y359570D01*
Y355150D02*
Y359570D01*
X461700Y352610D02*
X464240Y355150D01*
X443500Y352610D02*
X461700D01*
M02*
