M48
;Layer_Color=9474304
;FILE_FORMAT=2:5
INCH,LZ
;TYPE=PLATED
T1F00S00C0.01200
%
T01
X04799Y030036
X048081Y030629
X045933Y0306
X0455752Y0305748
X045623Y030022
X046028Y031058
X04605Y0315859
Y0319259
X045498Y032933
X04605Y0339481
Y0342881
X045712Y034804
X0455508Y0352992
X045757Y035757
X046117Y035853
X046Y0363103
Y0366503
X045422Y037143
X0455886Y0376614
X04592Y03834
X0455264Y0400236
X044939Y036458
X044916Y035715
X046677Y035909
X048598Y035531
X0486Y0349
X048585Y036315
X0480012Y0372018
X049181Y0372
X049944Y036172
X050284Y036139
X050309Y035688
X049949Y035692
X049936Y035208
X050307Y035204
X04822Y038367
M30
