%FSLAX25Y25*%
%MOIN*%
G70*
G01*
G75*
G04 Layer_Physical_Order=1*
G04 Layer_Color=255*
%ADD10R,0.07874X0.03150*%
%ADD11R,0.01969X0.04724*%
%ADD12R,0.01181X0.03150*%
%ADD13R,0.03937X0.03543*%
%ADD14C,0.00800*%
%ADD15C,0.02000*%
%ADD16C,0.00600*%
%ADD17C,0.01500*%
%ADD18C,0.02600*%
D10*
X447500Y400236D02*
D03*
Y376614D02*
D03*
Y368740D02*
D03*
Y360866D02*
D03*
Y352992D02*
D03*
Y345118D02*
D03*
Y337244D02*
D03*
Y329370D02*
D03*
Y321496D02*
D03*
Y313622D02*
D03*
Y305748D02*
D03*
Y297874D02*
D03*
Y290000D02*
D03*
Y384488D02*
D03*
Y392362D02*
D03*
D11*
X505653Y396713D02*
D03*
X464314D02*
D03*
D12*
X467267Y397500D02*
D03*
X468448Y385886D02*
D03*
X469629Y397500D02*
D03*
X470810Y385886D02*
D03*
X471991Y397500D02*
D03*
X473172Y385886D02*
D03*
X474354Y397500D02*
D03*
X475535Y385886D02*
D03*
X476716Y397500D02*
D03*
X477897Y385886D02*
D03*
X479078Y397500D02*
D03*
X480259Y385886D02*
D03*
X481440Y397500D02*
D03*
X482621Y385886D02*
D03*
X483802Y397500D02*
D03*
X484983Y385886D02*
D03*
X486165Y397500D02*
D03*
X487346Y385886D02*
D03*
X488527Y397500D02*
D03*
X489708Y385886D02*
D03*
X490889Y397500D02*
D03*
X492070Y385886D02*
D03*
X493251Y397500D02*
D03*
X494432Y385886D02*
D03*
X495613Y397500D02*
D03*
X496795Y385886D02*
D03*
X497976Y397500D02*
D03*
X499157Y385886D02*
D03*
X500338Y397500D02*
D03*
X501519Y385886D02*
D03*
X502700Y397500D02*
D03*
D13*
X469900Y368150D02*
D03*
Y374450D02*
D03*
X463900Y368250D02*
D03*
Y374550D02*
D03*
X470400Y352950D02*
D03*
Y359250D02*
D03*
D14*
X466200Y323100D02*
Y355050D01*
X474459Y318359D02*
X487000Y330900D01*
X455037Y318359D02*
X474459D01*
X475122Y316759D02*
X488600Y330237D01*
X455037Y316759D02*
X475122D01*
X487000Y330900D02*
Y371300D01*
X488600Y330237D02*
Y374600D01*
X469900Y359750D02*
Y368150D01*
X486500Y380500D02*
X488500D01*
X484983Y382016D02*
X486500Y380500D01*
X484983Y382016D02*
Y385886D01*
X486800Y376400D02*
Y376500D01*
Y376400D02*
X488600Y374600D01*
X447500Y321496D02*
X451900D01*
X455037Y318359D01*
X447500Y329370D02*
X454870D01*
X477897Y379603D02*
Y385886D01*
X473172Y381172D02*
Y385886D01*
X472000Y380000D02*
X473172Y381172D01*
X447500Y337244D02*
X454244D01*
X474150Y352950D02*
X474200Y353000D01*
X470400Y352950D02*
X474150D01*
X466200Y355050D02*
X470400Y359250D01*
X486400Y373500D02*
X487000Y372900D01*
X486000Y373100D02*
X486400Y373500D01*
X447500Y297874D02*
X454374D01*
X447500Y290000D02*
X454000D01*
X447500Y368740D02*
X454240D01*
X454480Y368500D01*
X447500Y360866D02*
X454366D01*
X447500Y345118D02*
X454382D01*
X453500Y293500D02*
X458500D01*
X447500Y400236D02*
X450264D01*
X447500Y392362D02*
X452638D01*
X447500Y376614D02*
X452886D01*
X454500Y375000D01*
X452638Y392362D02*
X454500Y390500D01*
X447500Y400236D02*
X455269D01*
X455300Y400267D01*
Y400300D01*
X463900Y368250D02*
X469800D01*
X469900Y368150D01*
Y359750D02*
X470400Y359250D01*
X458500Y293500D02*
X466200Y301200D01*
X447500Y352992D02*
X453892D01*
X454000Y353100D01*
X496795Y385886D02*
Y387494D01*
X498800Y389500D01*
X447500Y313622D02*
X451900D01*
X455037Y316759D01*
X466200Y301200D02*
Y308900D01*
X487346Y385886D02*
Y387103D01*
X484049Y390400D02*
X487346Y387103D01*
X487000Y371300D02*
Y372000D01*
Y371300D02*
Y372900D01*
X486165Y395665D02*
Y397500D01*
X484600Y394100D02*
X486165Y395665D01*
X484600Y393900D02*
Y394100D01*
X447500Y384488D02*
X455988D01*
X456000Y384476D01*
Y384400D02*
Y384476D01*
X454500Y389300D02*
X456000Y387800D01*
X454500Y389300D02*
Y390500D01*
X497900Y393800D02*
X497976Y393876D01*
Y397500D01*
X473900Y391000D02*
X477400D01*
X479078Y392678D01*
Y397500D01*
D15*
X477900Y349400D02*
Y379600D01*
X477000Y348500D02*
X477900Y349400D01*
X477897Y379603D02*
X477900Y379600D01*
X447500Y305748D02*
X454752D01*
D16*
X490500Y380000D02*
X492070Y381570D01*
X489000Y380000D02*
X490500D01*
X488500Y380500D02*
X489000Y380000D01*
X487000Y391500D02*
X489686Y388814D01*
X469700Y382200D02*
X470810Y383310D01*
X469700Y374650D02*
Y382200D01*
X470810Y383310D02*
Y385886D01*
X463900Y374550D02*
Y386000D01*
X468448Y383348D02*
Y385886D01*
X466400Y381300D02*
X468448Y383348D01*
X475535Y378535D02*
Y385886D01*
X474500Y377500D02*
X475535Y378535D01*
X495613Y397500D02*
Y401387D01*
X495500Y401500D02*
X495613Y401387D01*
X488527Y397500D02*
Y401473D01*
X490500Y392500D02*
X490889Y392889D01*
X483802Y397500D02*
Y401198D01*
X474300Y397553D02*
X474354Y397500D01*
X471200Y401200D02*
X473100D01*
X474300Y397553D02*
Y400000D01*
X473100Y401200D02*
X474300Y400000D01*
X490889Y392889D02*
Y397500D01*
X494432Y385886D02*
Y387932D01*
X501519Y382981D02*
Y385886D01*
Y382981D02*
X504000Y380500D01*
X494432Y387932D02*
X495500Y389000D01*
Y389500D01*
X489686Y385908D02*
X489708Y385886D01*
X492070Y381570D02*
Y385886D01*
X482621Y383121D02*
Y385886D01*
X481500Y382000D02*
X482621Y383121D01*
X489686Y385908D02*
Y388814D01*
X491886Y389886D02*
X493251Y391251D01*
Y397500D01*
X499157Y377557D02*
Y385886D01*
X502700Y393800D02*
Y397500D01*
Y393800D02*
X505500Y391000D01*
X499100Y377500D02*
X499157Y377557D01*
X504200Y384400D02*
Y389189D01*
X500338Y393051D02*
Y397500D01*
Y393051D02*
X504200Y389189D01*
X491886Y389361D02*
Y389886D01*
X469700Y374650D02*
X469900Y374450D01*
X481440Y397500D02*
Y399760D01*
X480102Y401098D02*
X481440Y399760D01*
X476500Y401000D02*
X476716Y400784D01*
Y397500D02*
Y400784D01*
X467267Y397500D02*
Y400033D01*
X466200Y401100D02*
Y401500D01*
Y401100D02*
X467267Y400033D01*
X463900Y386000D02*
X469629Y391729D01*
Y397500D01*
X449100Y396200D02*
X454900D01*
X455600Y396900D01*
D17*
X473800Y390900D02*
X473900Y391000D01*
D18*
X466200Y323100D02*
D03*
X477000Y348500D02*
D03*
X474200Y353000D02*
D03*
X486800Y376500D02*
D03*
X488200Y380300D02*
D03*
X461300Y334300D02*
D03*
X472000Y380000D02*
D03*
X475000Y369000D02*
D03*
X466400Y381300D02*
D03*
X481700Y380900D02*
D03*
X474500Y377500D02*
D03*
X477897Y379603D02*
D03*
X454244Y337244D02*
D03*
X486000Y373100D02*
D03*
X505500Y391000D02*
D03*
X495500Y401500D02*
D03*
X488527Y401473D02*
D03*
X483802Y401198D02*
D03*
X471200Y401200D02*
D03*
X454374Y297874D02*
D03*
X454000Y290000D02*
D03*
X454752Y305748D02*
D03*
X454480Y368500D02*
D03*
X454366Y360866D02*
D03*
X454382Y345118D02*
D03*
X453000Y364500D02*
D03*
X453500Y357500D02*
D03*
X454870Y329370D02*
D03*
X471600Y301600D02*
D03*
X453500Y293500D02*
D03*
X454500Y375000D02*
D03*
X455300Y400300D02*
D03*
X449100Y396200D02*
D03*
X454000Y353100D02*
D03*
X490500Y392500D02*
D03*
X499100Y377500D02*
D03*
X504000Y380500D02*
D03*
X504200Y384400D02*
D03*
X498800Y389500D02*
D03*
X460300Y328800D02*
D03*
X466200Y308900D02*
D03*
X495500Y389500D02*
D03*
X491886Y389361D02*
D03*
X487000Y391500D02*
D03*
X484600Y393900D02*
D03*
X483800Y390400D02*
D03*
X473900Y391000D02*
D03*
X456000Y387800D02*
D03*
Y384400D02*
D03*
X457700Y392600D02*
D03*
X497900Y393800D02*
D03*
X480102Y401098D02*
D03*
X476500Y401000D02*
D03*
X459500Y399200D02*
D03*
X466200Y401500D02*
D03*
X455600Y396900D02*
D03*
M02*
