%FSLAX25Y25*%
%MOIN*%
G70*
G01*
G75*
G04 Layer_Color=32896*
%ADD10C,0.02362*%
%ADD11C,0.00984*%
%ADD12C,0.00787*%
%ADD13C,0.00591*%
%ADD14C,0.00800*%
D10*
X309803Y254539D02*
G03*
X309803Y254539I-1181J0D01*
G01*
D11*
X301142Y250504D02*
G03*
X301142Y250504I-492J0D01*
G01*
X224618Y357927D02*
G03*
X224618Y357927I-492J0D01*
G01*
X208918Y357828D02*
G03*
X208918Y357828I-492J0D01*
G01*
X161866Y327572D02*
G03*
X161866Y327572I-492J0D01*
G01*
Y312573D02*
G03*
X161866Y312573I-492J0D01*
G01*
D12*
X376500Y267231D02*
Y271168D01*
X376500Y273232D02*
Y277168D01*
X376500Y279232D02*
Y283169D01*
X376500Y285231D02*
Y289169D01*
X376500Y291231D02*
Y295168D01*
X376500Y297232D02*
Y301168D01*
X376500Y303532D02*
Y307469D01*
X376500Y309531D02*
Y313469D01*
X376500Y315531D02*
Y319468D01*
X376500Y321532D02*
Y325468D01*
X388500Y321532D02*
Y325468D01*
Y315531D02*
Y319468D01*
Y309531D02*
Y313469D01*
Y303532D02*
Y307469D01*
Y297232D02*
Y301168D01*
Y291231D02*
Y295168D01*
Y285231D02*
Y289169D01*
Y279232D02*
Y283169D01*
Y273232D02*
Y277168D01*
Y267231D02*
Y271168D01*
X380000Y259032D02*
Y262968D01*
X370500Y253031D02*
Y256968D01*
X363500Y245532D02*
Y249468D01*
X364032Y238500D02*
X367969D01*
X376000Y239531D02*
Y243468D01*
X376000Y245532D02*
Y249468D01*
X392600Y238931D02*
Y242868D01*
X391600Y223031D02*
Y226969D01*
X382995Y344499D02*
X386932D01*
X304685Y250602D02*
X340315D01*
X304685D02*
Y338398D01*
X340315D01*
Y250602D02*
Y338398D01*
X285875Y295402D02*
X289812D01*
X288000Y252532D02*
Y256469D01*
X282531Y263500D02*
X286469D01*
X290500Y272031D02*
Y275969D01*
X283236Y278078D02*
Y282015D01*
X291875Y283001D02*
X295812D01*
X277985Y288720D02*
X281922D01*
X292032Y295500D02*
X295969D01*
X290757Y302485D02*
Y306422D01*
X290772Y308690D02*
Y312627D01*
Y314587D02*
Y318524D01*
X289800Y334531D02*
Y338469D01*
X284476Y325757D02*
X288413D01*
X362078Y271520D02*
X366015D01*
X348532Y276000D02*
X352468D01*
X349031Y262000D02*
X352969D01*
X353031Y240000D02*
X356968D01*
X347031Y240000D02*
X350969D01*
X337696Y231772D02*
Y235709D01*
X313531Y240500D02*
X317469D01*
X253765Y291792D02*
Y295729D01*
X260500Y298031D02*
Y301969D01*
X261272Y304485D02*
Y308422D01*
X261032Y315500D02*
X264968D01*
X261271Y327772D02*
X265208D01*
X255532Y328000D02*
X259469D01*
X258032Y353000D02*
X261968D01*
X250532D02*
X254468D01*
X244000Y329532D02*
Y333469D01*
X232500Y333032D02*
Y336968D01*
X214874Y353597D02*
Y355368D01*
X220681D01*
X214874Y345132D02*
Y346904D01*
Y345132D02*
X220681D01*
X199174Y345032D02*
X204981D01*
X199174D02*
Y346804D01*
Y355269D02*
X204981D01*
X199174Y353497D02*
Y355269D01*
X208000Y337531D02*
Y341469D01*
X220000Y331532D02*
Y335469D01*
X220031Y300000D02*
X223969D01*
X233500Y295532D02*
Y299468D01*
X241820Y289393D02*
Y293330D01*
X244955Y281001D02*
X248892D01*
X236531Y280500D02*
X240469D01*
X265743Y267873D02*
Y271810D01*
X267760Y251304D02*
X271697D01*
X255765Y253090D02*
Y257027D01*
X214500Y246031D02*
Y249969D01*
X217000Y257031D02*
Y260968D01*
X224532Y256000D02*
X228468D01*
X199461Y261032D02*
Y264968D01*
X198713Y261032D02*
Y264968D01*
X200287D01*
X198713Y261032D02*
X200287D01*
X195600Y231432D02*
Y235368D01*
X203000Y241531D02*
Y245468D01*
X212032Y268300D02*
X215968D01*
X187531Y269000D02*
X191469D01*
X179500Y258032D02*
Y261968D01*
X178000Y271031D02*
Y274969D01*
Y277532D02*
Y281469D01*
X175098Y285465D02*
Y289402D01*
X180032Y305900D02*
X183968D01*
X197000Y276031D02*
Y279969D01*
X202000Y288531D02*
Y292469D01*
X203532Y300000D02*
X207469D01*
X192500Y306532D02*
Y310469D01*
X192500Y312531D02*
Y316469D01*
Y318531D02*
Y322468D01*
X192500Y324532D02*
Y328468D01*
X192700Y339632D02*
Y343568D01*
X152931Y335200D02*
X156869D01*
X170626Y330132D02*
Y331903D01*
X164819Y330132D02*
X170626D01*
Y338596D02*
Y340368D01*
X164819D02*
X170626D01*
X152931Y320700D02*
X156869D01*
X170626Y315131D02*
Y316903D01*
X164819Y315131D02*
X170626D01*
Y323596D02*
Y325368D01*
X164819D02*
X170626D01*
X161432Y306200D02*
X165368D01*
X167931Y306200D02*
X171869D01*
X174132Y311300D02*
X178068D01*
X175631Y323300D02*
X179569D01*
X176631Y337800D02*
X180569D01*
X172632Y350800D02*
X176568D01*
X151732Y351100D02*
X155668D01*
X197031Y300000D02*
X200969D01*
X361087Y316440D02*
X365024D01*
X359658Y322883D02*
Y326820D01*
X348465Y290001D02*
X352402D01*
X354940Y300373D02*
Y304310D01*
X355792Y289842D02*
X359729D01*
X361976Y292284D02*
X365913D01*
X350031Y314000D02*
X353969D01*
X268431Y311000D02*
X272369D01*
D13*
X271456Y347598D02*
Y353504D01*
X263582Y347598D02*
Y353504D01*
X216694Y313991D02*
X222600D01*
X216694Y306117D02*
X222600D01*
X217595Y318082D02*
X223501D01*
X217595Y325956D02*
X223501D01*
X271189Y282181D02*
Y288086D01*
X263315Y282181D02*
Y288086D01*
X261991Y279598D02*
Y285504D01*
X254117Y279598D02*
Y285504D01*
D14*
X380200Y266599D02*
Y263400D01*
Y266599D02*
X378829D01*
X378372Y266447D01*
X378220Y266295D01*
X378067Y265990D01*
Y265685D01*
X378220Y265381D01*
X378372Y265228D01*
X378829Y265076D01*
X380200D01*
X379134D02*
X378067Y263400D01*
X375523Y266142D02*
X375675Y266447D01*
X376132Y266599D01*
X376437D01*
X376894Y266447D01*
X377199Y265990D01*
X377351Y265228D01*
Y264466D01*
X377199Y263857D01*
X376894Y263552D01*
X376437Y263400D01*
X376285D01*
X375828Y263552D01*
X375523Y263857D01*
X375371Y264314D01*
Y264466D01*
X375523Y264924D01*
X375828Y265228D01*
X376285Y265381D01*
X376437D01*
X376894Y265228D01*
X377199Y264924D01*
X377351Y264466D01*
X374670Y266599D02*
Y263400D01*
Y266599D02*
X373299D01*
X372842Y266447D01*
X372689Y266295D01*
X372537Y265990D01*
Y265685D01*
X372689Y265381D01*
X372842Y265228D01*
X373299Y265076D01*
X374670D02*
X373299D01*
X372842Y264924D01*
X372689Y264771D01*
X372537Y264466D01*
Y264009D01*
X372689Y263705D01*
X372842Y263552D01*
X373299Y263400D01*
X374670D01*
X370599Y261200D02*
X367400D01*
X370599D02*
Y262571D01*
X370447Y263028D01*
X370295Y263180D01*
X369990Y263333D01*
X369685D01*
X369380Y263180D01*
X369228Y263028D01*
X369076Y262571D01*
Y261200D01*
Y262266D02*
X367400Y263333D01*
X369990Y264049D02*
X370142Y264354D01*
X370599Y264811D01*
X367400D01*
X370599Y266395D02*
X367400D01*
X370599D02*
Y267766D01*
X370447Y268223D01*
X370295Y268376D01*
X369990Y268528D01*
X369685D01*
X369380Y268376D01*
X369228Y268223D01*
X369076Y267766D01*
Y266395D02*
Y267766D01*
X368923Y268223D01*
X368771Y268376D01*
X368466Y268528D01*
X368009D01*
X367705Y268376D01*
X367552Y268223D01*
X367400Y267766D01*
Y266395D01*
X370399Y270300D02*
X367200D01*
X370399D02*
Y271671D01*
X370247Y272128D01*
X370095Y272281D01*
X369790Y272433D01*
X369485D01*
X369180Y272281D01*
X369028Y272128D01*
X368876Y271671D01*
Y270300D01*
Y271366D02*
X367200Y272433D01*
X369942Y274977D02*
X370247Y274825D01*
X370399Y274368D01*
Y274063D01*
X370247Y273606D01*
X369790Y273301D01*
X369028Y273149D01*
X368266D01*
X367657Y273301D01*
X367352Y273606D01*
X367200Y274063D01*
Y274215D01*
X367352Y274672D01*
X367657Y274977D01*
X368114Y275129D01*
X368266D01*
X368724Y274977D01*
X369028Y274672D01*
X369180Y274215D01*
Y274063D01*
X369028Y273606D01*
X368724Y273301D01*
X368266Y273149D01*
X369638Y278116D02*
X369942Y277963D01*
X370247Y277658D01*
X370399Y277354D01*
Y276744D01*
X370247Y276440D01*
X369942Y276135D01*
X369638Y275983D01*
X369180Y275830D01*
X368419D01*
X367962Y275983D01*
X367657Y276135D01*
X367352Y276440D01*
X367200Y276744D01*
Y277354D01*
X367352Y277658D01*
X367657Y277963D01*
X367962Y278116D01*
X368800Y282599D02*
Y279400D01*
Y282599D02*
X367429D01*
X366972Y282447D01*
X366820Y282295D01*
X366667Y281990D01*
Y281685D01*
X366820Y281381D01*
X366972Y281228D01*
X367429Y281076D01*
X368800D01*
X367734D02*
X366667Y279400D01*
X365951Y281990D02*
X365646Y282142D01*
X365189Y282599D01*
Y279400D01*
X361320Y281838D02*
X361472Y282142D01*
X361777Y282447D01*
X362081Y282599D01*
X362691D01*
X362996Y282447D01*
X363300Y282142D01*
X363453Y281838D01*
X363605Y281381D01*
Y280619D01*
X363453Y280162D01*
X363300Y279857D01*
X362996Y279552D01*
X362691Y279400D01*
X362081D01*
X361777Y279552D01*
X361472Y279857D01*
X361320Y280162D01*
X370399Y283900D02*
X367200D01*
X370399D02*
Y285271D01*
X370247Y285728D01*
X370095Y285880D01*
X369790Y286033D01*
X369485D01*
X369180Y285880D01*
X369028Y285728D01*
X368876Y285271D01*
Y283900D01*
Y284966D02*
X367200Y286033D01*
X369942Y288577D02*
X370247Y288425D01*
X370399Y287968D01*
Y287663D01*
X370247Y287206D01*
X369790Y286901D01*
X369028Y286749D01*
X368266D01*
X367657Y286901D01*
X367352Y287206D01*
X367200Y287663D01*
Y287815D01*
X367352Y288272D01*
X367657Y288577D01*
X368114Y288729D01*
X368266D01*
X368724Y288577D01*
X369028Y288272D01*
X369180Y287815D01*
Y287663D01*
X369028Y287206D01*
X368724Y286901D01*
X368266Y286749D01*
X367200Y291868D02*
X370399Y290649D01*
X367200Y289430D01*
X368266Y289887D02*
Y291411D01*
X370499Y293200D02*
X367300D01*
X370499D02*
Y294571D01*
X370347Y295028D01*
X370195Y295181D01*
X369890Y295333D01*
X369585D01*
X369281Y295181D01*
X369128Y295028D01*
X368976Y294571D01*
Y293200D01*
Y294266D02*
X367300Y295333D01*
X369890Y296049D02*
X370042Y296354D01*
X370499Y296811D01*
X367300D01*
Y300833D02*
X370499Y299614D01*
X367300Y298395D01*
X368366Y298852D02*
Y300376D01*
X370499Y302000D02*
X367300D01*
X370499D02*
Y303371D01*
X370347Y303828D01*
X370195Y303980D01*
X369890Y304133D01*
X369585D01*
X369281Y303980D01*
X369128Y303828D01*
X368976Y303371D01*
Y302000D01*
Y303066D02*
X367300Y304133D01*
X370042Y306677D02*
X370347Y306525D01*
X370499Y306068D01*
Y305763D01*
X370347Y305306D01*
X369890Y305001D01*
X369128Y304849D01*
X368366D01*
X367757Y305001D01*
X367452Y305306D01*
X367300Y305763D01*
Y305915D01*
X367452Y306372D01*
X367757Y306677D01*
X368214Y306829D01*
X368366D01*
X368824Y306677D01*
X369128Y306372D01*
X369281Y305915D01*
Y305763D01*
X369128Y305306D01*
X368824Y305001D01*
X368366Y304849D01*
X370499Y307530D02*
X367300D01*
X370499D02*
Y308597D01*
X370347Y309054D01*
X370042Y309358D01*
X369738Y309511D01*
X369281Y309663D01*
X368519D01*
X368062Y309511D01*
X367757Y309358D01*
X367452Y309054D01*
X367300Y308597D01*
Y307530D01*
X370599Y310900D02*
X367400D01*
X370599D02*
Y312271D01*
X370447Y312728D01*
X370295Y312880D01*
X369990Y313033D01*
X369685D01*
X369380Y312880D01*
X369228Y312728D01*
X369076Y312271D01*
Y310900D01*
Y311966D02*
X367400Y313033D01*
X369990Y313749D02*
X370142Y314054D01*
X370599Y314511D01*
X367400D01*
X370599Y316095D02*
X367400D01*
X370599D02*
Y317161D01*
X370447Y317619D01*
X370142Y317923D01*
X369838Y318076D01*
X369380Y318228D01*
X368619D01*
X368162Y318076D01*
X367857Y317923D01*
X367552Y317619D01*
X367400Y317161D01*
Y316095D01*
X370499Y319600D02*
X367300D01*
X370499D02*
Y320971D01*
X370347Y321428D01*
X370195Y321581D01*
X369890Y321733D01*
X369585D01*
X369281Y321581D01*
X369128Y321428D01*
X368976Y320971D01*
Y319600D01*
Y320666D02*
X367300Y321733D01*
X370042Y324277D02*
X370347Y324125D01*
X370499Y323668D01*
Y323363D01*
X370347Y322906D01*
X369890Y322601D01*
X369128Y322449D01*
X368366D01*
X367757Y322601D01*
X367452Y322906D01*
X367300Y323363D01*
Y323515D01*
X367452Y323972D01*
X367757Y324277D01*
X368214Y324429D01*
X368366D01*
X368824Y324277D01*
X369128Y323972D01*
X369281Y323515D01*
Y323363D01*
X369128Y322906D01*
X368824Y322601D01*
X368366Y322449D01*
X370499Y327111D02*
Y325130D01*
X367300D01*
Y327111D01*
X368976Y325130D02*
Y326349D01*
X380700Y330999D02*
Y327800D01*
Y330999D02*
X379329D01*
X378872Y330847D01*
X378719Y330695D01*
X378567Y330390D01*
Y330085D01*
X378719Y329781D01*
X378872Y329628D01*
X379329Y329476D01*
X380700D01*
X379634D02*
X378567Y327800D01*
X377851Y330390D02*
X377546Y330542D01*
X377089Y330999D01*
Y327800D01*
X373524Y330999D02*
X375505D01*
Y327800D01*
X373524D01*
X375505Y329476D02*
X374286D01*
X402500Y324999D02*
Y321800D01*
Y324999D02*
X401129D01*
X400672Y324847D01*
X400520Y324695D01*
X400367Y324390D01*
Y324085D01*
X400520Y323780D01*
X400672Y323628D01*
X401129Y323476D01*
X402500D01*
X401434D02*
X400367Y321800D01*
X399346Y324999D02*
X397671D01*
X398585Y323780D01*
X398128D01*
X397823Y323628D01*
X397671Y323476D01*
X397518Y323019D01*
Y322714D01*
X397671Y322257D01*
X397975Y321952D01*
X398432Y321800D01*
X398889D01*
X399346Y321952D01*
X399499Y322105D01*
X399651Y322409D01*
X394822Y324999D02*
X396802D01*
Y321800D01*
X394822D01*
X396802Y323476D02*
X395583D01*
X402500Y318999D02*
Y315800D01*
Y318999D02*
X401129D01*
X400672Y318847D01*
X400520Y318695D01*
X400367Y318390D01*
Y318085D01*
X400520Y317780D01*
X400672Y317628D01*
X401129Y317476D01*
X402500D01*
X401434D02*
X400367Y315800D01*
X398128Y318999D02*
X399651Y316866D01*
X397366D01*
X398128Y318999D02*
Y315800D01*
X394822Y318999D02*
X396802D01*
Y315800D01*
X394822D01*
X396802Y317476D02*
X395583D01*
X402400Y313199D02*
Y310000D01*
Y313199D02*
X401029D01*
X400572Y313047D01*
X400420Y312895D01*
X400267Y312590D01*
Y312285D01*
X400420Y311981D01*
X400572Y311828D01*
X401029Y311676D01*
X402400D01*
X401334D02*
X400267Y310000D01*
X399246Y313199D02*
X397571D01*
X398485Y311981D01*
X398028D01*
X397723Y311828D01*
X397571Y311676D01*
X397418Y311219D01*
Y310914D01*
X397571Y310457D01*
X397875Y310152D01*
X398332Y310000D01*
X398789D01*
X399246Y310152D01*
X399399Y310305D01*
X399551Y310609D01*
X396702Y313199D02*
Y310000D01*
Y313199D02*
X395636D01*
X395179Y313047D01*
X394874Y312742D01*
X394722Y312438D01*
X394569Y311981D01*
Y311219D01*
X394722Y310762D01*
X394874Y310457D01*
X395179Y310152D01*
X395636Y310000D01*
X396702D01*
X402800Y306799D02*
Y303600D01*
Y306799D02*
X401429D01*
X400972Y306647D01*
X400819Y306495D01*
X400667Y306190D01*
Y305885D01*
X400819Y305580D01*
X400972Y305428D01*
X401429Y305276D01*
X402800D01*
X401734D02*
X400667Y303600D01*
X398428Y306799D02*
X399951Y304666D01*
X397666D01*
X398428Y306799D02*
Y303600D01*
X397102Y306799D02*
Y303600D01*
Y306799D02*
X396036D01*
X395579Y306647D01*
X395274Y306342D01*
X395122Y306038D01*
X394969Y305580D01*
Y304819D01*
X395122Y304362D01*
X395274Y304057D01*
X395579Y303752D01*
X396036Y303600D01*
X397102D01*
X403100Y300799D02*
Y297600D01*
Y300799D02*
X401729D01*
X401272Y300647D01*
X401120Y300495D01*
X400967Y300190D01*
Y299885D01*
X401120Y299581D01*
X401272Y299428D01*
X401729Y299276D01*
X403100D01*
X402034D02*
X400967Y297600D01*
X399946Y300799D02*
X398271D01*
X399185Y299581D01*
X398728D01*
X398423Y299428D01*
X398271Y299276D01*
X398118Y298819D01*
Y298514D01*
X398271Y298057D01*
X398575Y297752D01*
X399032Y297600D01*
X399489D01*
X399946Y297752D01*
X400099Y297905D01*
X400251Y298209D01*
X394965Y297600D02*
X396183Y300799D01*
X397402Y297600D01*
X396945Y298666D02*
X395422D01*
X403000Y295099D02*
Y291900D01*
Y295099D02*
X401629D01*
X401172Y294947D01*
X401019Y294795D01*
X400867Y294490D01*
Y294185D01*
X401019Y293881D01*
X401172Y293728D01*
X401629Y293576D01*
X403000D01*
X401934D02*
X400867Y291900D01*
X398628Y295099D02*
X400151Y292966D01*
X397866D01*
X398628Y295099D02*
Y291900D01*
X394865D02*
X396083Y295099D01*
X397302Y291900D01*
X396845Y292966D02*
X395322D01*
X402800Y288899D02*
Y285700D01*
Y288899D02*
X401429D01*
X400972Y288747D01*
X400819Y288595D01*
X400667Y288290D01*
Y287985D01*
X400819Y287681D01*
X400972Y287528D01*
X401429Y287376D01*
X402800D01*
X401734D02*
X400667Y285700D01*
X399646Y288899D02*
X397971D01*
X398885Y287681D01*
X398428D01*
X398123Y287528D01*
X397971Y287376D01*
X397818Y286919D01*
Y286614D01*
X397971Y286157D01*
X398275Y285852D01*
X398732Y285700D01*
X399189D01*
X399646Y285852D01*
X399799Y286005D01*
X399951Y286309D01*
X394817Y288138D02*
X394969Y288442D01*
X395274Y288747D01*
X395579Y288899D01*
X396188D01*
X396493Y288747D01*
X396797Y288442D01*
X396950Y288138D01*
X397102Y287681D01*
Y286919D01*
X396950Y286462D01*
X396797Y286157D01*
X396493Y285852D01*
X396188Y285700D01*
X395579D01*
X395274Y285852D01*
X394969Y286157D01*
X394817Y286462D01*
X402800Y283199D02*
Y280000D01*
Y283199D02*
X401429D01*
X400972Y283047D01*
X400819Y282895D01*
X400667Y282590D01*
Y282285D01*
X400819Y281980D01*
X400972Y281828D01*
X401429Y281676D01*
X402800D01*
X401734D02*
X400667Y280000D01*
X398428Y283199D02*
X399951Y281066D01*
X397666D01*
X398428Y283199D02*
Y280000D01*
X394817Y282438D02*
X394969Y282742D01*
X395274Y283047D01*
X395579Y283199D01*
X396188D01*
X396493Y283047D01*
X396797Y282742D01*
X396950Y282438D01*
X397102Y281980D01*
Y281219D01*
X396950Y280762D01*
X396797Y280457D01*
X396493Y280152D01*
X396188Y280000D01*
X395579D01*
X395274Y280152D01*
X394969Y280457D01*
X394817Y280762D01*
X402700Y276899D02*
Y273700D01*
Y276899D02*
X401329D01*
X400872Y276747D01*
X400719Y276595D01*
X400567Y276290D01*
Y275985D01*
X400719Y275680D01*
X400872Y275528D01*
X401329Y275376D01*
X402700D01*
X401634D02*
X400567Y273700D01*
X399546Y276899D02*
X397871D01*
X398785Y275680D01*
X398328D01*
X398023Y275528D01*
X397871Y275376D01*
X397718Y274919D01*
Y274614D01*
X397871Y274157D01*
X398175Y273852D01*
X398632Y273700D01*
X399089D01*
X399546Y273852D01*
X399699Y274005D01*
X399851Y274309D01*
X397002Y276899D02*
Y273700D01*
Y276899D02*
X395631D01*
X395174Y276747D01*
X395022Y276595D01*
X394869Y276290D01*
Y275985D01*
X395022Y275680D01*
X395174Y275528D01*
X395631Y275376D01*
X397002D02*
X395631D01*
X395174Y275223D01*
X395022Y275071D01*
X394869Y274766D01*
Y274309D01*
X395022Y274005D01*
X395174Y273852D01*
X395631Y273700D01*
X397002D01*
X402700Y270999D02*
Y267800D01*
Y270999D02*
X401329D01*
X400872Y270847D01*
X400719Y270695D01*
X400567Y270390D01*
Y270085D01*
X400719Y269780D01*
X400872Y269628D01*
X401329Y269476D01*
X402700D01*
X401634D02*
X400567Y267800D01*
X398328Y270999D02*
X399851Y268866D01*
X397566D01*
X398328Y270999D02*
Y267800D01*
X397002Y270999D02*
Y267800D01*
Y270999D02*
X395631D01*
X395174Y270847D01*
X395022Y270695D01*
X394869Y270390D01*
Y270085D01*
X395022Y269780D01*
X395174Y269628D01*
X395631Y269476D01*
X397002D02*
X395631D01*
X395174Y269323D01*
X395022Y269171D01*
X394869Y268866D01*
Y268409D01*
X395022Y268105D01*
X395174Y267952D01*
X395631Y267800D01*
X397002D01*
X392715Y261438D02*
X392867Y261742D01*
X393172Y262047D01*
X393477Y262199D01*
X394086D01*
X394391Y262047D01*
X394695Y261742D01*
X394848Y261438D01*
X395000Y260981D01*
Y260219D01*
X394848Y259762D01*
X394695Y259457D01*
X394391Y259152D01*
X394086Y259000D01*
X393477D01*
X393172Y259152D01*
X392867Y259457D01*
X392715Y259762D01*
X390292Y262199D02*
X391816Y260066D01*
X389531D01*
X390292Y262199D02*
Y259000D01*
X387139Y262199D02*
X388662D01*
X388815Y260828D01*
X388662Y260981D01*
X388205Y261133D01*
X387748D01*
X387291Y260981D01*
X386986Y260676D01*
X386834Y260219D01*
Y259914D01*
X386986Y259457D01*
X387291Y259152D01*
X387748Y259000D01*
X388205D01*
X388662Y259152D01*
X388815Y259305D01*
X388967Y259609D01*
X383315Y255938D02*
X383467Y256242D01*
X383772Y256547D01*
X384076Y256699D01*
X384686D01*
X384991Y256547D01*
X385295Y256242D01*
X385448Y255938D01*
X385600Y255481D01*
Y254719D01*
X385448Y254262D01*
X385295Y253957D01*
X384991Y253652D01*
X384686Y253500D01*
X384076D01*
X383772Y253652D01*
X383467Y253957D01*
X383315Y254262D01*
X380892Y256699D02*
X382416Y254566D01*
X380131D01*
X380892Y256699D02*
Y253500D01*
X378805Y256699D02*
X379262Y256547D01*
X379415Y256242D01*
Y255938D01*
X379262Y255633D01*
X378958Y255481D01*
X378348Y255328D01*
X377891Y255176D01*
X377587Y254871D01*
X377434Y254566D01*
Y254109D01*
X377587Y253805D01*
X377739Y253652D01*
X378196Y253500D01*
X378805D01*
X379262Y253652D01*
X379415Y253805D01*
X379567Y254109D01*
Y254566D01*
X379415Y254871D01*
X379110Y255176D01*
X378653Y255328D01*
X378044Y255481D01*
X377739Y255633D01*
X377587Y255938D01*
Y256242D01*
X377739Y256547D01*
X378196Y256699D01*
X378805D01*
X363600Y253999D02*
Y250800D01*
Y253999D02*
X362229D01*
X361772Y253847D01*
X361619Y253695D01*
X361467Y253390D01*
Y253085D01*
X361619Y252781D01*
X361772Y252628D01*
X362229Y252476D01*
X363600D01*
X362534D02*
X361467Y250800D01*
X359228Y253999D02*
X360751Y251866D01*
X358466D01*
X359228Y253999D02*
Y250800D01*
X356379Y253999D02*
X357902Y251866D01*
X355617D01*
X356379Y253999D02*
Y250800D01*
X367599Y224300D02*
X364400D01*
X367599D02*
Y225671D01*
X367447Y226128D01*
X367295Y226280D01*
X366990Y226433D01*
X366685D01*
X366381Y226280D01*
X366228Y226128D01*
X366076Y225671D01*
Y224300D01*
Y225366D02*
X364400Y226433D01*
X367599Y228672D02*
X365466Y227149D01*
Y229434D01*
X367599Y228672D02*
X364400D01*
X366838Y230150D02*
X366990D01*
X367295Y230303D01*
X367447Y230455D01*
X367599Y230760D01*
Y231369D01*
X367447Y231674D01*
X367295Y231826D01*
X366990Y231978D01*
X366685D01*
X366381Y231826D01*
X365924Y231521D01*
X364400Y229998D01*
Y232131D01*
X377415Y237238D02*
X377567Y237542D01*
X377872Y237847D01*
X378176Y237999D01*
X378786D01*
X379091Y237847D01*
X379395Y237542D01*
X379548Y237238D01*
X379700Y236781D01*
Y236019D01*
X379548Y235562D01*
X379395Y235257D01*
X379091Y234952D01*
X378786Y234800D01*
X378176D01*
X377872Y234952D01*
X377567Y235257D01*
X377415Y235562D01*
X374992Y237999D02*
X376516Y235866D01*
X374231D01*
X374992Y237999D02*
Y234800D01*
X371687Y236933D02*
X371839Y236476D01*
X372144Y236171D01*
X372601Y236019D01*
X372753D01*
X373210Y236171D01*
X373515Y236476D01*
X373667Y236933D01*
Y237085D01*
X373515Y237542D01*
X373210Y237847D01*
X372753Y237999D01*
X372601D01*
X372144Y237847D01*
X371839Y237542D01*
X371687Y236933D01*
Y236171D01*
X371839Y235409D01*
X372144Y234952D01*
X372601Y234800D01*
X372905D01*
X373362Y234952D01*
X373515Y235257D01*
X390300Y249199D02*
Y246000D01*
Y249199D02*
X388929D01*
X388472Y249047D01*
X388319Y248895D01*
X388167Y248590D01*
Y248285D01*
X388319Y247980D01*
X388472Y247828D01*
X388929Y247676D01*
X390300D01*
X389234D02*
X388167Y246000D01*
X387146Y249199D02*
X385471D01*
X386385Y247980D01*
X385928D01*
X385623Y247828D01*
X385471Y247676D01*
X385318Y247219D01*
Y246914D01*
X385471Y246457D01*
X385775Y246152D01*
X386232Y246000D01*
X386689D01*
X387146Y246152D01*
X387299Y246305D01*
X387451Y246609D01*
X382622Y248133D02*
X382774Y247676D01*
X383079Y247371D01*
X383536Y247219D01*
X383688D01*
X384145Y247371D01*
X384450Y247676D01*
X384602Y248133D01*
Y248285D01*
X384450Y248742D01*
X384145Y249047D01*
X383688Y249199D01*
X383536D01*
X383079Y249047D01*
X382774Y248742D01*
X382622Y248133D01*
Y247371D01*
X382774Y246609D01*
X383079Y246152D01*
X383536Y246000D01*
X383840D01*
X384297Y246152D01*
X384450Y246457D01*
X406600Y242399D02*
Y239200D01*
Y242399D02*
X405229D01*
X404772Y242247D01*
X404620Y242095D01*
X404467Y241790D01*
Y241485D01*
X404620Y241180D01*
X404772Y241028D01*
X405229Y240876D01*
X406600D01*
X405534D02*
X404467Y239200D01*
X402228Y242399D02*
X403751Y240266D01*
X401466D01*
X402228Y242399D02*
Y239200D01*
X398769Y242399D02*
X400293Y239200D01*
X400902Y242399D02*
X398769D01*
X405915Y225938D02*
X406067Y226242D01*
X406372Y226547D01*
X406676Y226699D01*
X407286D01*
X407591Y226547D01*
X407895Y226242D01*
X408048Y225938D01*
X408200Y225481D01*
Y224719D01*
X408048Y224262D01*
X407895Y223957D01*
X407591Y223652D01*
X407286Y223500D01*
X406676D01*
X406372Y223652D01*
X406067Y223957D01*
X405915Y224262D01*
X403188Y226242D02*
X403340Y226547D01*
X403797Y226699D01*
X404102D01*
X404559Y226547D01*
X404864Y226090D01*
X405016Y225328D01*
Y224566D01*
X404864Y223957D01*
X404559Y223652D01*
X404102Y223500D01*
X403949D01*
X403492Y223652D01*
X403188Y223957D01*
X403035Y224414D01*
Y224566D01*
X403188Y225024D01*
X403492Y225328D01*
X403949Y225481D01*
X404102D01*
X404559Y225328D01*
X404864Y225024D01*
X405016Y224566D01*
X402030Y226699D02*
X400354D01*
X401268Y225481D01*
X400811D01*
X400506Y225328D01*
X400354Y225176D01*
X400202Y224719D01*
Y224414D01*
X400354Y223957D01*
X400659Y223652D01*
X401116Y223500D01*
X401573D01*
X402030Y223652D01*
X402182Y223805D01*
X402335Y224109D01*
X379838Y344985D02*
X380142Y344833D01*
X380447Y344528D01*
X380599Y344223D01*
Y343614D01*
X380447Y343309D01*
X380142Y343005D01*
X379838Y342852D01*
X379380Y342700D01*
X378619D01*
X378162Y342852D01*
X377857Y343005D01*
X377552Y343309D01*
X377400Y343614D01*
Y344223D01*
X377552Y344528D01*
X377857Y344833D01*
X378162Y344985D01*
X379838Y346036D02*
X379990D01*
X380295Y346189D01*
X380447Y346341D01*
X380599Y346646D01*
Y347255D01*
X380447Y347560D01*
X380295Y347712D01*
X379990Y347865D01*
X379685D01*
X379380Y347712D01*
X378924Y347408D01*
X377400Y345884D01*
Y348017D01*
X325100Y343499D02*
Y340300D01*
X322145Y342738D02*
X322297Y343042D01*
X322602Y343347D01*
X322906Y343499D01*
X323516D01*
X323820Y343347D01*
X324125Y343042D01*
X324277Y342738D01*
X324430Y342281D01*
Y341519D01*
X324277Y341062D01*
X324125Y340757D01*
X323820Y340452D01*
X323516Y340300D01*
X322906D01*
X322602Y340452D01*
X322297Y340757D01*
X322145Y341062D01*
X321246Y342890D02*
X320941Y343042D01*
X320484Y343499D01*
Y340300D01*
X317985Y343499D02*
X318442Y343347D01*
X318747Y342890D01*
X318899Y342128D01*
Y341671D01*
X318747Y340909D01*
X318442Y340452D01*
X317985Y340300D01*
X317681D01*
X317224Y340452D01*
X316919Y340909D01*
X316767Y341671D01*
Y342128D01*
X316919Y342890D01*
X317224Y343347D01*
X317681Y343499D01*
X317985D01*
X277838Y297285D02*
X278142Y297133D01*
X278447Y296828D01*
X278599Y296523D01*
Y295914D01*
X278447Y295609D01*
X278142Y295305D01*
X277838Y295152D01*
X277380Y295000D01*
X276619D01*
X276162Y295152D01*
X275857Y295305D01*
X275552Y295609D01*
X275400Y295914D01*
Y296523D01*
X275552Y296828D01*
X275857Y297133D01*
X276162Y297285D01*
X277838Y298336D02*
X277990D01*
X278295Y298489D01*
X278447Y298641D01*
X278599Y298946D01*
Y299555D01*
X278447Y299860D01*
X278295Y300012D01*
X277990Y300165D01*
X277685D01*
X277380Y300012D01*
X276923Y299708D01*
X275400Y298184D01*
Y300317D01*
X277990Y301033D02*
X278142Y301338D01*
X278599Y301795D01*
X275400D01*
X278915Y255638D02*
X279067Y255942D01*
X279372Y256247D01*
X279677Y256399D01*
X280286D01*
X280591Y256247D01*
X280895Y255942D01*
X281048Y255638D01*
X281200Y255181D01*
Y254419D01*
X281048Y253962D01*
X280895Y253657D01*
X280591Y253352D01*
X280286Y253200D01*
X279677D01*
X279372Y253352D01*
X279067Y253657D01*
X278915Y253962D01*
X275883Y256399D02*
X277407Y253200D01*
X278016Y256399D02*
X275883D01*
X275015Y255638D02*
Y255790D01*
X274862Y256095D01*
X274710Y256247D01*
X274405Y256399D01*
X273796D01*
X273491Y256247D01*
X273339Y256095D01*
X273186Y255790D01*
Y255485D01*
X273339Y255181D01*
X273643Y254724D01*
X275167Y253200D01*
X273034D01*
X279638Y261485D02*
X279942Y261333D01*
X280247Y261028D01*
X280399Y260723D01*
Y260114D01*
X280247Y259809D01*
X279942Y259505D01*
X279638Y259352D01*
X279181Y259200D01*
X278419D01*
X277962Y259352D01*
X277657Y259505D01*
X277352Y259809D01*
X277200Y260114D01*
Y260723D01*
X277352Y261028D01*
X277657Y261333D01*
X277962Y261485D01*
X279942Y264212D02*
X280247Y264060D01*
X280399Y263603D01*
Y263298D01*
X280247Y262841D01*
X279790Y262536D01*
X279028Y262384D01*
X278266D01*
X277657Y262536D01*
X277352Y262841D01*
X277200Y263298D01*
Y263451D01*
X277352Y263908D01*
X277657Y264212D01*
X278114Y264365D01*
X278266D01*
X278724Y264212D01*
X279028Y263908D01*
X279181Y263451D01*
Y263298D01*
X279028Y262841D01*
X278724Y262536D01*
X278266Y262384D01*
X280399Y267198D02*
X277200Y265675D01*
X280399Y265065D02*
Y267198D01*
X281215Y274838D02*
X281367Y275142D01*
X281672Y275447D01*
X281977Y275599D01*
X282586D01*
X282891Y275447D01*
X283195Y275142D01*
X283348Y274838D01*
X283500Y274380D01*
Y273619D01*
X283348Y273162D01*
X283195Y272857D01*
X282891Y272552D01*
X282586Y272400D01*
X281977D01*
X281672Y272552D01*
X281367Y272857D01*
X281215Y273162D01*
X278183Y275599D02*
X279707Y272400D01*
X280316Y275599D02*
X278183D01*
X277162D02*
X275486D01*
X276401Y274380D01*
X275943D01*
X275639Y274228D01*
X275486Y274076D01*
X275334Y273619D01*
Y273314D01*
X275486Y272857D01*
X275791Y272552D01*
X276248Y272400D01*
X276705D01*
X277162Y272552D01*
X277315Y272705D01*
X277467Y273009D01*
X276400Y281299D02*
Y278100D01*
Y281299D02*
X275029D01*
X274572Y281147D01*
X274419Y280995D01*
X274267Y280690D01*
Y280385D01*
X274419Y280081D01*
X274572Y279928D01*
X275029Y279776D01*
X276400D01*
X275334D02*
X274267Y278100D01*
X273551Y280690D02*
X273246Y280842D01*
X272789Y281299D01*
Y278100D01*
X270900Y281299D02*
X269224D01*
X270139Y280081D01*
X269681D01*
X269377Y279928D01*
X269224Y279776D01*
X269072Y279319D01*
Y279014D01*
X269224Y278557D01*
X269529Y278252D01*
X269986Y278100D01*
X270443D01*
X270900Y278252D01*
X271053Y278405D01*
X271205Y278709D01*
X287715Y286938D02*
X287867Y287242D01*
X288172Y287547D01*
X288476Y287699D01*
X289086D01*
X289391Y287547D01*
X289695Y287242D01*
X289848Y286938D01*
X290000Y286480D01*
Y285719D01*
X289848Y285262D01*
X289695Y284957D01*
X289391Y284652D01*
X289086Y284500D01*
X288476D01*
X288172Y284652D01*
X287867Y284957D01*
X287715Y285262D01*
X286816Y287090D02*
X286511Y287242D01*
X286054Y287699D01*
Y284500D01*
X284470Y287090D02*
X284165Y287242D01*
X283708Y287699D01*
Y284500D01*
X276199Y286800D02*
X273000D01*
X276199D02*
Y288171D01*
X276047Y288628D01*
X275895Y288780D01*
X275590Y288933D01*
X275285D01*
X274980Y288780D01*
X274828Y288628D01*
X274676Y288171D01*
Y286800D01*
Y287866D02*
X273000Y288933D01*
X275590Y289649D02*
X275742Y289954D01*
X276199Y290411D01*
X273000D01*
X276199Y293519D02*
X274066Y291995D01*
Y294280D01*
X276199Y293519D02*
X273000D01*
X282238Y296985D02*
X282542Y296833D01*
X282847Y296528D01*
X282999Y296223D01*
Y295614D01*
X282847Y295309D01*
X282542Y295005D01*
X282238Y294852D01*
X281781Y294700D01*
X281019D01*
X280562Y294852D01*
X280257Y295005D01*
X279952Y295309D01*
X279800Y295614D01*
Y296223D01*
X279952Y296528D01*
X280257Y296833D01*
X280562Y296985D01*
X282999Y300017D02*
X279800Y298494D01*
X282999Y297884D02*
Y300017D01*
Y301647D02*
X282847Y301190D01*
X282390Y300885D01*
X281628Y300733D01*
X281171D01*
X280409Y300885D01*
X279952Y301190D01*
X279800Y301647D01*
Y301952D01*
X279952Y302409D01*
X280409Y302713D01*
X281171Y302866D01*
X281628D01*
X282390Y302713D01*
X282847Y302409D01*
X282999Y301952D01*
Y301647D01*
X281115Y307138D02*
X281267Y307442D01*
X281572Y307747D01*
X281876Y307899D01*
X282486D01*
X282791Y307747D01*
X283095Y307442D01*
X283248Y307138D01*
X283400Y306680D01*
Y305919D01*
X283248Y305462D01*
X283095Y305157D01*
X282791Y304852D01*
X282486Y304700D01*
X281876D01*
X281572Y304852D01*
X281267Y305157D01*
X281115Y305462D01*
X280216Y307290D02*
X279911Y307442D01*
X279454Y307899D01*
Y304700D01*
X276042Y307442D02*
X276194Y307747D01*
X276651Y307899D01*
X276956D01*
X277413Y307747D01*
X277717Y307290D01*
X277870Y306528D01*
Y305766D01*
X277717Y305157D01*
X277413Y304852D01*
X276956Y304700D01*
X276803D01*
X276346Y304852D01*
X276042Y305157D01*
X275889Y305614D01*
Y305766D01*
X276042Y306224D01*
X276346Y306528D01*
X276803Y306680D01*
X276956D01*
X277413Y306528D01*
X277717Y306224D01*
X277870Y305766D01*
X283400Y312699D02*
Y309500D01*
Y312699D02*
X282029D01*
X281572Y312547D01*
X281419Y312395D01*
X281267Y312090D01*
Y311785D01*
X281419Y311480D01*
X281572Y311328D01*
X282029Y311176D01*
X283400D01*
X282334D02*
X281267Y309500D01*
X280551Y312090D02*
X280246Y312242D01*
X279789Y312699D01*
Y309500D01*
X276377Y312699D02*
X277900D01*
X278053Y311328D01*
X277900Y311480D01*
X277443Y311633D01*
X276986D01*
X276529Y311480D01*
X276224Y311176D01*
X276072Y310719D01*
Y310414D01*
X276224Y309957D01*
X276529Y309652D01*
X276986Y309500D01*
X277443D01*
X277900Y309652D01*
X278053Y309805D01*
X278205Y310109D01*
X283700Y318699D02*
Y315500D01*
Y318699D02*
X282329D01*
X281872Y318547D01*
X281719Y318395D01*
X281567Y318090D01*
Y317785D01*
X281719Y317480D01*
X281872Y317328D01*
X282329Y317176D01*
X283700D01*
X282634D02*
X281567Y315500D01*
X280851Y318090D02*
X280546Y318242D01*
X280089Y318699D01*
Y315500D01*
X276677Y318242D02*
X276829Y318547D01*
X277286Y318699D01*
X277591D01*
X278048Y318547D01*
X278353Y318090D01*
X278505Y317328D01*
Y316566D01*
X278353Y315957D01*
X278048Y315652D01*
X277591Y315500D01*
X277438D01*
X276981Y315652D01*
X276677Y315957D01*
X276524Y316414D01*
Y316566D01*
X276677Y317023D01*
X276981Y317328D01*
X277438Y317480D01*
X277591D01*
X278048Y317328D01*
X278353Y317023D01*
X278505Y316566D01*
X280515Y337438D02*
X280667Y337742D01*
X280972Y338047D01*
X281276Y338199D01*
X281886D01*
X282191Y338047D01*
X282495Y337742D01*
X282648Y337438D01*
X282800Y336981D01*
Y336219D01*
X282648Y335762D01*
X282495Y335457D01*
X282191Y335152D01*
X281886Y335000D01*
X281276D01*
X280972Y335152D01*
X280667Y335457D01*
X280515Y335762D01*
X277788Y337742D02*
X277940Y338047D01*
X278397Y338199D01*
X278702D01*
X279159Y338047D01*
X279464Y337590D01*
X279616Y336828D01*
Y336066D01*
X279464Y335457D01*
X279159Y335152D01*
X278702Y335000D01*
X278550D01*
X278092Y335152D01*
X277788Y335457D01*
X277635Y335914D01*
Y336066D01*
X277788Y336524D01*
X278092Y336828D01*
X278550Y336981D01*
X278702D01*
X279159Y336828D01*
X279464Y336524D01*
X279616Y336066D01*
X276173Y338199D02*
X276630Y338047D01*
X276782Y337742D01*
Y337438D01*
X276630Y337133D01*
X276325Y336981D01*
X275716Y336828D01*
X275259Y336676D01*
X274954Y336371D01*
X274802Y336066D01*
Y335609D01*
X274954Y335305D01*
X275106Y335152D01*
X275564Y335000D01*
X276173D01*
X276630Y335152D01*
X276782Y335305D01*
X276935Y335609D01*
Y336066D01*
X276782Y336371D01*
X276478Y336676D01*
X276021Y336828D01*
X275411Y336981D01*
X275106Y337133D01*
X274954Y337438D01*
Y337742D01*
X275106Y338047D01*
X275564Y338199D01*
X276173D01*
X281538Y323885D02*
X281842Y323733D01*
X282147Y323428D01*
X282299Y323124D01*
Y322514D01*
X282147Y322209D01*
X281842Y321905D01*
X281538Y321752D01*
X281081Y321600D01*
X280319D01*
X279862Y321752D01*
X279557Y321905D01*
X279252Y322209D01*
X279100Y322514D01*
Y323124D01*
X279252Y323428D01*
X279557Y323733D01*
X279862Y323885D01*
X281690Y324784D02*
X281842Y325089D01*
X282299Y325546D01*
X279100D01*
X282299Y328958D02*
Y327435D01*
X280928Y327283D01*
X281081Y327435D01*
X281233Y327892D01*
Y328349D01*
X281081Y328806D01*
X280776Y329111D01*
X280319Y329263D01*
X280014D01*
X279557Y329111D01*
X279252Y328806D01*
X279100Y328349D01*
Y327892D01*
X279252Y327435D01*
X279405Y327283D01*
X279709Y327130D01*
X364438Y260085D02*
X364742Y259933D01*
X365047Y259628D01*
X365199Y259324D01*
Y258714D01*
X365047Y258409D01*
X364742Y258105D01*
X364438Y257952D01*
X363981Y257800D01*
X363219D01*
X362762Y257952D01*
X362457Y258105D01*
X362152Y258409D01*
X362000Y258714D01*
Y259324D01*
X362152Y259628D01*
X362457Y259933D01*
X362762Y260085D01*
X364438Y261136D02*
X364590D01*
X364895Y261289D01*
X365047Y261441D01*
X365199Y261746D01*
Y262355D01*
X365047Y262660D01*
X364895Y262812D01*
X364590Y262965D01*
X364285D01*
X363981Y262812D01*
X363524Y262508D01*
X362000Y260984D01*
Y263117D01*
X364742Y265661D02*
X365047Y265509D01*
X365199Y265052D01*
Y264747D01*
X365047Y264290D01*
X364590Y263985D01*
X363828Y263833D01*
X363066D01*
X362457Y263985D01*
X362152Y264290D01*
X362000Y264747D01*
Y264899D01*
X362152Y265356D01*
X362457Y265661D01*
X362914Y265813D01*
X363066D01*
X363524Y265661D01*
X363828Y265356D01*
X363981Y264899D01*
Y264747D01*
X363828Y264290D01*
X363524Y263985D01*
X363066Y263833D01*
X356438Y272785D02*
X356742Y272633D01*
X357047Y272328D01*
X357199Y272024D01*
Y271414D01*
X357047Y271109D01*
X356742Y270805D01*
X356438Y270652D01*
X355980Y270500D01*
X355219D01*
X354762Y270652D01*
X354457Y270805D01*
X354152Y271109D01*
X354000Y271414D01*
Y272024D01*
X354152Y272328D01*
X354457Y272633D01*
X354762Y272785D01*
X356742Y275512D02*
X357047Y275360D01*
X357199Y274903D01*
Y274598D01*
X357047Y274141D01*
X356590Y273836D01*
X355828Y273684D01*
X355066D01*
X354457Y273836D01*
X354152Y274141D01*
X354000Y274598D01*
Y274750D01*
X354152Y275208D01*
X354457Y275512D01*
X354914Y275665D01*
X355066D01*
X355523Y275512D01*
X355828Y275208D01*
X355980Y274750D01*
Y274598D01*
X355828Y274141D01*
X355523Y273836D01*
X355066Y273684D01*
X356133Y278346D02*
X355676Y278194D01*
X355371Y277889D01*
X355219Y277432D01*
Y277279D01*
X355371Y276822D01*
X355676Y276518D01*
X356133Y276365D01*
X356285D01*
X356742Y276518D01*
X357047Y276822D01*
X357199Y277279D01*
Y277432D01*
X357047Y277889D01*
X356742Y278194D01*
X356133Y278346D01*
X355371D01*
X354609Y278194D01*
X354152Y277889D01*
X354000Y277432D01*
Y277127D01*
X354152Y276670D01*
X354457Y276518D01*
X357138Y260485D02*
X357442Y260333D01*
X357747Y260028D01*
X357899Y259723D01*
Y259114D01*
X357747Y258809D01*
X357442Y258505D01*
X357138Y258352D01*
X356680Y258200D01*
X355919D01*
X355462Y258352D01*
X355157Y258505D01*
X354852Y258809D01*
X354700Y259114D01*
Y259723D01*
X354852Y260028D01*
X355157Y260333D01*
X355462Y260485D01*
X357899Y263517D02*
X354700Y261994D01*
X357899Y261384D02*
Y263517D01*
Y266061D02*
Y264538D01*
X356528Y264385D01*
X356680Y264538D01*
X356833Y264995D01*
Y265452D01*
X356680Y265909D01*
X356376Y266213D01*
X355919Y266366D01*
X355614D01*
X355157Y266213D01*
X354852Y265909D01*
X354700Y265452D01*
Y264995D01*
X354852Y264538D01*
X355005Y264385D01*
X355309Y264233D01*
X354999Y246600D02*
X351800D01*
X354999D02*
Y247971D01*
X354847Y248428D01*
X354695Y248581D01*
X354390Y248733D01*
X354085D01*
X353781Y248581D01*
X353628Y248428D01*
X353476Y247971D01*
Y246600D01*
Y247666D02*
X351800Y248733D01*
X354542Y251277D02*
X354847Y251125D01*
X354999Y250668D01*
Y250363D01*
X354847Y249906D01*
X354390Y249601D01*
X353628Y249449D01*
X352866D01*
X352257Y249601D01*
X351952Y249906D01*
X351800Y250363D01*
Y250515D01*
X351952Y250972D01*
X352257Y251277D01*
X352714Y251429D01*
X352866D01*
X353324Y251277D01*
X353628Y250972D01*
X353781Y250515D01*
Y250363D01*
X353628Y249906D01*
X353324Y249601D01*
X352866Y249449D01*
X354999Y252892D02*
X354847Y252435D01*
X354542Y252283D01*
X354238D01*
X353933Y252435D01*
X353781Y252740D01*
X353628Y253349D01*
X353476Y253806D01*
X353171Y254111D01*
X352866Y254263D01*
X352409D01*
X352105Y254111D01*
X351952Y253958D01*
X351800Y253501D01*
Y252892D01*
X351952Y252435D01*
X352105Y252283D01*
X352409Y252130D01*
X352866D01*
X353171Y252283D01*
X353476Y252587D01*
X353628Y253044D01*
X353781Y253654D01*
X353933Y253958D01*
X354238Y254111D01*
X354542D01*
X354847Y253958D01*
X354999Y253501D01*
Y252892D01*
X350499Y246700D02*
X347300D01*
X350499D02*
Y248071D01*
X350347Y248528D01*
X350195Y248680D01*
X349890Y248833D01*
X349585D01*
X349281Y248680D01*
X349128Y248528D01*
X348976Y248071D01*
Y246700D01*
Y247766D02*
X347300Y248833D01*
X350042Y251377D02*
X350347Y251225D01*
X350499Y250768D01*
Y250463D01*
X350347Y250006D01*
X349890Y249701D01*
X349128Y249549D01*
X348366D01*
X347757Y249701D01*
X347452Y250006D01*
X347300Y250463D01*
Y250615D01*
X347452Y251072D01*
X347757Y251377D01*
X348214Y251529D01*
X348366D01*
X348823Y251377D01*
X349128Y251072D01*
X349281Y250615D01*
Y250463D01*
X349128Y250006D01*
X348823Y249701D01*
X348366Y249549D01*
X349433Y254211D02*
X348976Y254058D01*
X348671Y253754D01*
X348519Y253297D01*
Y253144D01*
X348671Y252687D01*
X348976Y252383D01*
X349433Y252230D01*
X349585D01*
X350042Y252383D01*
X350347Y252687D01*
X350499Y253144D01*
Y253297D01*
X350347Y253754D01*
X350042Y254058D01*
X349433Y254211D01*
X348671D01*
X347909Y254058D01*
X347452Y253754D01*
X347300Y253297D01*
Y252992D01*
X347452Y252535D01*
X347757Y252383D01*
X330600Y236099D02*
Y232900D01*
Y236099D02*
X329229D01*
X328772Y235947D01*
X328620Y235795D01*
X328467Y235490D01*
Y235185D01*
X328620Y234880D01*
X328772Y234728D01*
X329229Y234576D01*
X330600D01*
X329534D02*
X328467Y232900D01*
X325618Y236099D02*
X327142Y232900D01*
X327751Y236099D02*
X325618D01*
X311138Y238285D02*
X311442Y238133D01*
X311747Y237828D01*
X311899Y237524D01*
Y236914D01*
X311747Y236609D01*
X311442Y236305D01*
X311138Y236152D01*
X310681Y236000D01*
X309919D01*
X309462Y236152D01*
X309157Y236305D01*
X308852Y236609D01*
X308700Y236914D01*
Y237524D01*
X308852Y237828D01*
X309157Y238133D01*
X309462Y238285D01*
X311442Y241012D02*
X311747Y240860D01*
X311899Y240403D01*
Y240098D01*
X311747Y239641D01*
X311290Y239336D01*
X310528Y239184D01*
X309766D01*
X309157Y239336D01*
X308852Y239641D01*
X308700Y240098D01*
Y240250D01*
X308852Y240708D01*
X309157Y241012D01*
X309614Y241165D01*
X309766D01*
X310224Y241012D01*
X310528Y240708D01*
X310681Y240250D01*
Y240098D01*
X310528Y239641D01*
X310224Y239336D01*
X309766Y239184D01*
X311899Y243389D02*
X309766Y241865D01*
Y244151D01*
X311899Y243389D02*
X308700D01*
X268400Y295299D02*
Y292100D01*
Y295299D02*
X267029D01*
X266572Y295147D01*
X266420Y294995D01*
X266267Y294690D01*
Y294385D01*
X266420Y294080D01*
X266572Y293928D01*
X267029Y293776D01*
X268400D01*
X267334D02*
X266267Y292100D01*
X265551Y294690D02*
X265246Y294842D01*
X264789Y295299D01*
Y292100D01*
X263053Y294538D02*
Y294690D01*
X262900Y294995D01*
X262748Y295147D01*
X262443Y295299D01*
X261834D01*
X261529Y295147D01*
X261377Y294995D01*
X261224Y294690D01*
Y294385D01*
X261377Y294080D01*
X261681Y293623D01*
X263205Y292100D01*
X261072D01*
X250215Y301238D02*
X250367Y301542D01*
X250672Y301847D01*
X250976Y301999D01*
X251586D01*
X251891Y301847D01*
X252195Y301542D01*
X252348Y301238D01*
X252500Y300781D01*
Y300019D01*
X252348Y299562D01*
X252195Y299257D01*
X251891Y298952D01*
X251586Y298800D01*
X250976D01*
X250672Y298952D01*
X250367Y299257D01*
X250215Y299562D01*
X249011Y301999D02*
X247335D01*
X248250Y300781D01*
X247792D01*
X247488Y300628D01*
X247335Y300476D01*
X247183Y300019D01*
Y299714D01*
X247335Y299257D01*
X247640Y298952D01*
X248097Y298800D01*
X248554D01*
X249011Y298952D01*
X249164Y299105D01*
X249316Y299409D01*
X244334Y301999D02*
X245858Y298800D01*
X246467Y301999D02*
X244334D01*
X253600Y308299D02*
Y305100D01*
Y308299D02*
X252229D01*
X251772Y308147D01*
X251620Y307995D01*
X251467Y307690D01*
Y307385D01*
X251620Y307081D01*
X251772Y306928D01*
X252229Y306776D01*
X253600D01*
X252534D02*
X251467Y305100D01*
X250751Y307690D02*
X250446Y307842D01*
X249989Y308299D01*
Y305100D01*
X246272Y308299D02*
X247796Y305100D01*
X248405Y308299D02*
X246272D01*
X258538Y313885D02*
X258842Y313733D01*
X259147Y313428D01*
X259299Y313123D01*
Y312514D01*
X259147Y312209D01*
X258842Y311905D01*
X258538Y311752D01*
X258081Y311600D01*
X257319D01*
X256862Y311752D01*
X256557Y311905D01*
X256252Y312209D01*
X256100Y312514D01*
Y313123D01*
X256252Y313428D01*
X256557Y313733D01*
X256862Y313885D01*
X259299Y315089D02*
Y316765D01*
X258081Y315850D01*
Y316308D01*
X257928Y316612D01*
X257776Y316765D01*
X257319Y316917D01*
X257014D01*
X256557Y316765D01*
X256252Y316460D01*
X256100Y316003D01*
Y315546D01*
X256252Y315089D01*
X256405Y314936D01*
X256709Y314784D01*
X258690Y317633D02*
X258842Y317938D01*
X259299Y318395D01*
X256100D01*
X265099Y335900D02*
X261900D01*
X265099D02*
Y337271D01*
X264947Y337728D01*
X264795Y337880D01*
X264490Y338033D01*
X264185D01*
X263880Y337880D01*
X263728Y337728D01*
X263576Y337271D01*
Y335900D01*
Y336966D02*
X261900Y338033D01*
X264490Y338749D02*
X264642Y339054D01*
X265099Y339511D01*
X261900D01*
X265099Y341857D02*
X264947Y341400D01*
X264642Y341247D01*
X264338D01*
X264033Y341400D01*
X263880Y341705D01*
X263728Y342314D01*
X263576Y342771D01*
X263271Y343076D01*
X262966Y343228D01*
X262509D01*
X262205Y343076D01*
X262052Y342923D01*
X261900Y342466D01*
Y341857D01*
X262052Y341400D01*
X262205Y341247D01*
X262509Y341095D01*
X262966D01*
X263271Y341247D01*
X263576Y341552D01*
X263728Y342009D01*
X263880Y342619D01*
X264033Y342923D01*
X264338Y343076D01*
X264642D01*
X264947Y342923D01*
X265099Y342466D01*
Y341857D01*
X257838Y337685D02*
X258142Y337533D01*
X258447Y337228D01*
X258599Y336924D01*
Y336314D01*
X258447Y336009D01*
X258142Y335705D01*
X257838Y335552D01*
X257381Y335400D01*
X256619D01*
X256162Y335552D01*
X255857Y335705D01*
X255552Y336009D01*
X255400Y336314D01*
Y336924D01*
X255552Y337228D01*
X255857Y337533D01*
X256162Y337685D01*
X258599Y338889D02*
Y340565D01*
X257381Y339651D01*
Y340108D01*
X257228Y340412D01*
X257076Y340565D01*
X256619Y340717D01*
X256314D01*
X255857Y340565D01*
X255552Y340260D01*
X255400Y339803D01*
Y339346D01*
X255552Y338889D01*
X255705Y338736D01*
X256009Y338584D01*
X258142Y343261D02*
X258447Y343109D01*
X258599Y342652D01*
Y342347D01*
X258447Y341890D01*
X257990Y341585D01*
X257228Y341433D01*
X256466D01*
X255857Y341585D01*
X255552Y341890D01*
X255400Y342347D01*
Y342499D01*
X255552Y342956D01*
X255857Y343261D01*
X256314Y343413D01*
X256466D01*
X256924Y343261D01*
X257228Y342956D01*
X257381Y342499D01*
Y342347D01*
X257228Y341890D01*
X256924Y341585D01*
X256466Y341433D01*
X272000Y358499D02*
Y355300D01*
Y358499D02*
X270629D01*
X270172Y358347D01*
X270020Y358195D01*
X269867Y357890D01*
Y357585D01*
X270020Y357280D01*
X270172Y357128D01*
X270629Y356976D01*
X272000D01*
X270934D02*
X269867Y355300D01*
X269151Y356823D02*
X267780D01*
X267323Y356976D01*
X267171Y357128D01*
X267018Y357433D01*
Y357890D01*
X267171Y358195D01*
X267323Y358347D01*
X267780Y358499D01*
X269151D01*
Y355300D01*
X264474Y358042D02*
X264626Y358347D01*
X265083Y358499D01*
X265388D01*
X265845Y358347D01*
X266150Y357890D01*
X266302Y357128D01*
Y356366D01*
X266150Y355757D01*
X265845Y355452D01*
X265388Y355300D01*
X265236D01*
X264779Y355452D01*
X264474Y355757D01*
X264322Y356214D01*
Y356366D01*
X264474Y356823D01*
X264779Y357128D01*
X265236Y357280D01*
X265388D01*
X265845Y357128D01*
X266150Y356823D01*
X266302Y356366D01*
X261299Y360000D02*
X258100D01*
X261299D02*
Y361371D01*
X261147Y361828D01*
X260995Y361981D01*
X260690Y362133D01*
X260385D01*
X260081Y361981D01*
X259928Y361828D01*
X259776Y361371D01*
Y360000D01*
Y361066D02*
X258100Y362133D01*
X261299Y363154D02*
Y364829D01*
X260081Y363915D01*
Y364372D01*
X259928Y364677D01*
X259776Y364829D01*
X259319Y364982D01*
X259014D01*
X258557Y364829D01*
X258252Y364525D01*
X258100Y364068D01*
Y363611D01*
X258252Y363154D01*
X258405Y363001D01*
X258709Y362849D01*
X261299Y366002D02*
Y367678D01*
X260081Y366764D01*
Y367221D01*
X259928Y367526D01*
X259776Y367678D01*
X259319Y367831D01*
X259014D01*
X258557Y367678D01*
X258252Y367374D01*
X258100Y366917D01*
Y366460D01*
X258252Y366002D01*
X258405Y365850D01*
X258709Y365698D01*
X254499Y359900D02*
X251300D01*
X254499D02*
Y361271D01*
X254347Y361728D01*
X254195Y361880D01*
X253890Y362033D01*
X253585D01*
X253280Y361880D01*
X253128Y361728D01*
X252976Y361271D01*
Y359900D01*
Y360966D02*
X251300Y362033D01*
X254499Y363054D02*
Y364729D01*
X253280Y363815D01*
Y364272D01*
X253128Y364577D01*
X252976Y364729D01*
X252519Y364882D01*
X252214D01*
X251757Y364729D01*
X251452Y364425D01*
X251300Y363968D01*
Y363511D01*
X251452Y363054D01*
X251605Y362901D01*
X251909Y362749D01*
X254499Y367121D02*
X252366Y365598D01*
Y367883D01*
X254499Y367121D02*
X251300D01*
X247215Y337738D02*
X247367Y338042D01*
X247672Y338347D01*
X247976Y338499D01*
X248586D01*
X248891Y338347D01*
X249195Y338042D01*
X249348Y337738D01*
X249500Y337281D01*
Y336519D01*
X249348Y336062D01*
X249195Y335757D01*
X248891Y335452D01*
X248586Y335300D01*
X247976D01*
X247672Y335452D01*
X247367Y335757D01*
X247215Y336062D01*
X246011Y338499D02*
X244335D01*
X245250Y337281D01*
X244792D01*
X244488Y337128D01*
X244335Y336976D01*
X244183Y336519D01*
Y336214D01*
X244335Y335757D01*
X244640Y335452D01*
X245097Y335300D01*
X245554D01*
X246011Y335452D01*
X246164Y335605D01*
X246316Y335909D01*
X241944Y338499D02*
X243467Y336366D01*
X241182D01*
X241944Y338499D02*
Y335300D01*
X233615Y341438D02*
X233767Y341742D01*
X234072Y342047D01*
X234377Y342199D01*
X234986D01*
X235291Y342047D01*
X235595Y341742D01*
X235748Y341438D01*
X235900Y340981D01*
Y340219D01*
X235748Y339762D01*
X235595Y339457D01*
X235291Y339152D01*
X234986Y339000D01*
X234377D01*
X234072Y339152D01*
X233767Y339457D01*
X233615Y339762D01*
X232411Y342199D02*
X230735D01*
X231649Y340981D01*
X231192D01*
X230888Y340828D01*
X230735Y340676D01*
X230583Y340219D01*
Y339914D01*
X230735Y339457D01*
X231040Y339152D01*
X231497Y339000D01*
X231954D01*
X232411Y339152D01*
X232564Y339305D01*
X232716Y339609D01*
X229562Y342199D02*
X227887D01*
X228801Y340981D01*
X228344D01*
X228039Y340828D01*
X227887Y340676D01*
X227734Y340219D01*
Y339914D01*
X227887Y339457D01*
X228191Y339152D01*
X228648Y339000D01*
X229105D01*
X229562Y339152D01*
X229715Y339305D01*
X229867Y339609D01*
X220986Y361999D02*
X221291Y361847D01*
X221595Y361542D01*
X221748Y361238D01*
X221900Y360781D01*
Y360019D01*
X221748Y359562D01*
X221595Y359257D01*
X221291Y358952D01*
X220986Y358800D01*
X220376D01*
X220072Y358952D01*
X219767Y359257D01*
X219615Y359562D01*
X219462Y360019D01*
Y360781D01*
X219615Y361238D01*
X219767Y361542D01*
X220072Y361847D01*
X220376Y361999D01*
X220986D01*
X220529Y359409D02*
X219615Y358495D01*
X218564Y361238D02*
Y361390D01*
X218411Y361695D01*
X218259Y361847D01*
X217954Y361999D01*
X217345D01*
X217040Y361847D01*
X216888Y361695D01*
X216735Y361390D01*
Y361085D01*
X216888Y360781D01*
X217192Y360324D01*
X218716Y358800D01*
X216583D01*
X204986Y361299D02*
X205291Y361147D01*
X205595Y360842D01*
X205748Y360538D01*
X205900Y360081D01*
Y359319D01*
X205748Y358862D01*
X205595Y358557D01*
X205291Y358252D01*
X204986Y358100D01*
X204377D01*
X204072Y358252D01*
X203767Y358557D01*
X203615Y358862D01*
X203462Y359319D01*
Y360081D01*
X203615Y360538D01*
X203767Y360842D01*
X204072Y361147D01*
X204377Y361299D01*
X204986D01*
X204529Y358709D02*
X203615Y357795D01*
X202716Y360690D02*
X202411Y360842D01*
X201954Y361299D01*
Y358100D01*
X222500Y341099D02*
Y337900D01*
Y341099D02*
X221129D01*
X220672Y340947D01*
X220519Y340795D01*
X220367Y340490D01*
Y340185D01*
X220519Y339880D01*
X220672Y339728D01*
X221129Y339576D01*
X222500D01*
X221434D02*
X220367Y337900D01*
X219346Y341099D02*
X217671D01*
X218585Y339880D01*
X218128D01*
X217823Y339728D01*
X217671Y339576D01*
X217518Y339119D01*
Y338814D01*
X217671Y338357D01*
X217975Y338052D01*
X218432Y337900D01*
X218889D01*
X219346Y338052D01*
X219499Y338205D01*
X219651Y338509D01*
X216650Y340338D02*
Y340490D01*
X216497Y340795D01*
X216345Y340947D01*
X216040Y341099D01*
X215431D01*
X215126Y340947D01*
X214974Y340795D01*
X214822Y340490D01*
Y340185D01*
X214974Y339880D01*
X215279Y339423D01*
X216802Y337900D01*
X214669D01*
X211315Y334238D02*
X211467Y334542D01*
X211772Y334847D01*
X212076Y334999D01*
X212686D01*
X212991Y334847D01*
X213295Y334542D01*
X213448Y334238D01*
X213600Y333781D01*
Y333019D01*
X213448Y332562D01*
X213295Y332257D01*
X212991Y331952D01*
X212686Y331800D01*
X212076D01*
X211772Y331952D01*
X211467Y332257D01*
X211315Y332562D01*
X208892Y334999D02*
X210416Y332866D01*
X208131D01*
X208892Y334999D02*
Y331800D01*
X206653Y334999D02*
X207110Y334847D01*
X207415Y334390D01*
X207567Y333628D01*
Y333171D01*
X207415Y332409D01*
X207110Y331952D01*
X206653Y331800D01*
X206348D01*
X205891Y331952D01*
X205587Y332409D01*
X205434Y333171D01*
Y333628D01*
X205587Y334390D01*
X205891Y334847D01*
X206348Y334999D01*
X206653D01*
X232600Y313099D02*
Y309900D01*
Y313099D02*
X231229D01*
X230772Y312947D01*
X230620Y312795D01*
X230467Y312490D01*
Y312185D01*
X230620Y311880D01*
X230772Y311728D01*
X231229Y311576D01*
X232600D01*
X231534D02*
X230467Y309900D01*
X229751Y311423D02*
X228380D01*
X227923Y311576D01*
X227771Y311728D01*
X227618Y312033D01*
Y312490D01*
X227771Y312795D01*
X227923Y312947D01*
X228380Y313099D01*
X229751D01*
Y309900D01*
X226597Y313099D02*
X224922D01*
X225836Y311880D01*
X225379D01*
X225074Y311728D01*
X224922Y311576D01*
X224769Y311119D01*
Y310814D01*
X224922Y310357D01*
X225226Y310052D01*
X225683Y309900D01*
X226140D01*
X226597Y310052D01*
X226750Y310205D01*
X226902Y310509D01*
X232500Y325999D02*
Y322800D01*
Y325999D02*
X231129D01*
X230672Y325847D01*
X230520Y325695D01*
X230367Y325390D01*
Y325085D01*
X230520Y324781D01*
X230672Y324628D01*
X231129Y324476D01*
X232500D01*
X231434D02*
X230367Y322800D01*
X229651Y324324D02*
X228280D01*
X227823Y324476D01*
X227671Y324628D01*
X227518Y324933D01*
Y325390D01*
X227671Y325695D01*
X227823Y325847D01*
X228280Y325999D01*
X229651D01*
Y322800D01*
X225279Y325999D02*
X226802Y323866D01*
X224517D01*
X225279Y325999D02*
Y322800D01*
X223138Y287285D02*
X223442Y287133D01*
X223747Y286828D01*
X223899Y286524D01*
Y285914D01*
X223747Y285609D01*
X223442Y285305D01*
X223138Y285152D01*
X222680Y285000D01*
X221919D01*
X221462Y285152D01*
X221157Y285305D01*
X220852Y285609D01*
X220700Y285914D01*
Y286524D01*
X220852Y286828D01*
X221157Y287133D01*
X221462Y287285D01*
X223899Y288489D02*
Y290165D01*
X222680Y289250D01*
Y289708D01*
X222528Y290012D01*
X222376Y290165D01*
X221919Y290317D01*
X221614D01*
X221157Y290165D01*
X220852Y289860D01*
X220700Y289403D01*
Y288946D01*
X220852Y288489D01*
X221005Y288336D01*
X221309Y288184D01*
X223899Y292861D02*
Y291338D01*
X222528Y291185D01*
X222680Y291338D01*
X222833Y291795D01*
Y292252D01*
X222680Y292709D01*
X222376Y293014D01*
X221919Y293166D01*
X221614D01*
X221157Y293014D01*
X220852Y292709D01*
X220700Y292252D01*
Y291795D01*
X220852Y291338D01*
X221005Y291185D01*
X221309Y291033D01*
X236915Y303938D02*
X237067Y304242D01*
X237372Y304547D01*
X237677Y304699D01*
X238286D01*
X238591Y304547D01*
X238895Y304242D01*
X239048Y303938D01*
X239200Y303481D01*
Y302719D01*
X239048Y302262D01*
X238895Y301957D01*
X238591Y301652D01*
X238286Y301500D01*
X237677D01*
X237372Y301652D01*
X237067Y301957D01*
X236915Y302262D01*
X235711Y304699D02*
X234035D01*
X234949Y303481D01*
X234492D01*
X234188Y303328D01*
X234035Y303176D01*
X233883Y302719D01*
Y302414D01*
X234035Y301957D01*
X234340Y301652D01*
X234797Y301500D01*
X235254D01*
X235711Y301652D01*
X235864Y301805D01*
X236016Y302109D01*
X232253Y304699D02*
X232710Y304547D01*
X233015Y304090D01*
X233167Y303328D01*
Y302871D01*
X233015Y302109D01*
X232710Y301652D01*
X232253Y301500D01*
X231948D01*
X231491Y301652D01*
X231187Y302109D01*
X231034Y302871D01*
Y303328D01*
X231187Y304090D01*
X231491Y304547D01*
X231948Y304699D01*
X232253D01*
X234500Y293199D02*
Y290000D01*
Y293199D02*
X233129D01*
X232672Y293047D01*
X232520Y292895D01*
X232367Y292590D01*
Y292285D01*
X232520Y291981D01*
X232672Y291828D01*
X233129Y291676D01*
X234500D01*
X233434D02*
X232367Y290000D01*
X231651Y292590D02*
X231346Y292742D01*
X230889Y293199D01*
Y290000D01*
X229305Y292590D02*
X229000Y292742D01*
X228543Y293199D01*
Y290000D01*
X248500Y274299D02*
Y271100D01*
Y274299D02*
X247129D01*
X246672Y274147D01*
X246519Y273995D01*
X246367Y273690D01*
Y273385D01*
X246519Y273080D01*
X246672Y272928D01*
X247129Y272776D01*
X248500D01*
X247434D02*
X246367Y271100D01*
X245651Y273690D02*
X245346Y273842D01*
X244889Y274299D01*
Y271100D01*
X241324Y273233D02*
X241477Y272776D01*
X241781Y272471D01*
X242238Y272319D01*
X242391D01*
X242848Y272471D01*
X243153Y272776D01*
X243305Y273233D01*
Y273385D01*
X243153Y273842D01*
X242848Y274147D01*
X242391Y274299D01*
X242238D01*
X241781Y274147D01*
X241477Y273842D01*
X241324Y273233D01*
Y272471D01*
X241477Y271709D01*
X241781Y271252D01*
X242238Y271100D01*
X242543D01*
X243000Y271252D01*
X243153Y271557D01*
X232215Y282038D02*
X232367Y282342D01*
X232672Y282647D01*
X232977Y282799D01*
X233586D01*
X233891Y282647D01*
X234195Y282342D01*
X234348Y282038D01*
X234500Y281580D01*
Y280819D01*
X234348Y280362D01*
X234195Y280057D01*
X233891Y279752D01*
X233586Y279600D01*
X232977D01*
X232672Y279752D01*
X232367Y280057D01*
X232215Y280362D01*
X231011Y282799D02*
X229335D01*
X230250Y281580D01*
X229792D01*
X229488Y281428D01*
X229335Y281276D01*
X229183Y280819D01*
Y280514D01*
X229335Y280057D01*
X229640Y279752D01*
X230097Y279600D01*
X230554D01*
X231011Y279752D01*
X231164Y279905D01*
X231316Y280209D01*
X227705Y282799D02*
X228162Y282647D01*
X228315Y282342D01*
Y282038D01*
X228162Y281733D01*
X227858Y281580D01*
X227248Y281428D01*
X226791Y281276D01*
X226486Y280971D01*
X226334Y280666D01*
Y280209D01*
X226486Y279905D01*
X226639Y279752D01*
X227096Y279600D01*
X227705D01*
X228162Y279752D01*
X228315Y279905D01*
X228467Y280209D01*
Y280666D01*
X228315Y280971D01*
X228010Y281276D01*
X227553Y281428D01*
X226943Y281580D01*
X226639Y281733D01*
X226486Y282038D01*
Y282342D01*
X226639Y282647D01*
X227096Y282799D01*
X227705D01*
X269500Y277299D02*
Y274100D01*
Y277299D02*
X268129D01*
X267672Y277147D01*
X267519Y276995D01*
X267367Y276690D01*
Y276385D01*
X267519Y276080D01*
X267672Y275928D01*
X268129Y275776D01*
X269500D01*
X268434D02*
X267367Y274100D01*
X266651Y275623D02*
X265280D01*
X264823Y275776D01*
X264671Y275928D01*
X264518Y276233D01*
Y276690D01*
X264671Y276995D01*
X264823Y277147D01*
X265280Y277299D01*
X266651D01*
Y274100D01*
X263650Y276538D02*
Y276690D01*
X263497Y276995D01*
X263345Y277147D01*
X263040Y277299D01*
X262431D01*
X262126Y277147D01*
X261974Y276995D01*
X261822Y276690D01*
Y276385D01*
X261974Y276080D01*
X262279Y275623D01*
X263802Y274100D01*
X261669D01*
X261200Y290099D02*
Y286900D01*
Y290099D02*
X259829D01*
X259372Y289947D01*
X259220Y289795D01*
X259067Y289490D01*
Y289185D01*
X259220Y288880D01*
X259372Y288728D01*
X259829Y288576D01*
X261200D01*
X260134D02*
X259067Y286900D01*
X258351Y288423D02*
X256980D01*
X256523Y288576D01*
X256371Y288728D01*
X256218Y289033D01*
Y289490D01*
X256371Y289795D01*
X256523Y289947D01*
X256980Y290099D01*
X258351D01*
Y286900D01*
X255502Y289490D02*
X255198Y289642D01*
X254740Y290099D01*
Y286900D01*
X255715Y271038D02*
X255867Y271342D01*
X256172Y271647D01*
X256476Y271799D01*
X257086D01*
X257391Y271647D01*
X257695Y271342D01*
X257848Y271038D01*
X258000Y270581D01*
Y269819D01*
X257848Y269362D01*
X257695Y269057D01*
X257391Y268752D01*
X257086Y268600D01*
X256476D01*
X256172Y268752D01*
X255867Y269057D01*
X255715Y269362D01*
X254816Y271190D02*
X254511Y271342D01*
X254054Y271799D01*
Y268600D01*
X250946Y271799D02*
X252470Y269666D01*
X250184D01*
X250946Y271799D02*
Y268600D01*
X271399Y237300D02*
X268200D01*
X271399D02*
Y238671D01*
X271247Y239128D01*
X271095Y239281D01*
X270790Y239433D01*
X270485D01*
X270181Y239281D01*
X270028Y239128D01*
X269876Y238671D01*
Y237300D01*
Y238366D02*
X268200Y239433D01*
X270638Y240301D02*
X270790D01*
X271095Y240454D01*
X271247Y240606D01*
X271399Y240911D01*
Y241520D01*
X271247Y241825D01*
X271095Y241977D01*
X270790Y242129D01*
X270485D01*
X270181Y241977D01*
X269724Y241672D01*
X268200Y240149D01*
Y242282D01*
X270790Y242998D02*
X270942Y243302D01*
X271399Y243760D01*
X268200D01*
X247800Y257299D02*
Y254100D01*
Y257299D02*
X246429D01*
X245972Y257147D01*
X245819Y256995D01*
X245667Y256690D01*
Y256385D01*
X245819Y256081D01*
X245972Y255928D01*
X246429Y255776D01*
X247800D01*
X246734D02*
X245667Y254100D01*
X244799Y256538D02*
Y256690D01*
X244646Y256995D01*
X244494Y257147D01*
X244189Y257299D01*
X243580D01*
X243275Y257147D01*
X243123Y256995D01*
X242971Y256690D01*
Y256385D01*
X243123Y256081D01*
X243428Y255624D01*
X244951Y254100D01*
X242818D01*
X241188Y257299D02*
X241645Y257147D01*
X241950Y256690D01*
X242102Y255928D01*
Y255471D01*
X241950Y254709D01*
X241645Y254252D01*
X241188Y254100D01*
X240883D01*
X240426Y254252D01*
X240122Y254709D01*
X239969Y255471D01*
Y255928D01*
X240122Y256690D01*
X240426Y257147D01*
X240883Y257299D01*
X241188D01*
X226515Y247438D02*
X226667Y247742D01*
X226972Y248047D01*
X227276Y248199D01*
X227886D01*
X228191Y248047D01*
X228495Y247742D01*
X228648Y247438D01*
X228800Y246981D01*
Y246219D01*
X228648Y245762D01*
X228495Y245457D01*
X228191Y245152D01*
X227886Y245000D01*
X227276D01*
X226972Y245152D01*
X226667Y245457D01*
X226515Y245762D01*
X223788Y247742D02*
X223940Y248047D01*
X224397Y248199D01*
X224702D01*
X225159Y248047D01*
X225464Y247590D01*
X225616Y246828D01*
Y246066D01*
X225464Y245457D01*
X225159Y245152D01*
X224702Y245000D01*
X224550D01*
X224092Y245152D01*
X223788Y245457D01*
X223635Y245914D01*
Y246066D01*
X223788Y246523D01*
X224092Y246828D01*
X224550Y246981D01*
X224702D01*
X225159Y246828D01*
X225464Y246523D01*
X225616Y246066D01*
X221106Y247742D02*
X221259Y248047D01*
X221716Y248199D01*
X222021D01*
X222478Y248047D01*
X222782Y247590D01*
X222935Y246828D01*
Y246066D01*
X222782Y245457D01*
X222478Y245152D01*
X222021Y245000D01*
X221868D01*
X221411Y245152D01*
X221106Y245457D01*
X220954Y245914D01*
Y246066D01*
X221106Y246523D01*
X221411Y246828D01*
X221868Y246981D01*
X222021D01*
X222478Y246828D01*
X222782Y246523D01*
X222935Y246066D01*
X210000Y259899D02*
Y256700D01*
Y259899D02*
X208629D01*
X208172Y259747D01*
X208019Y259595D01*
X207867Y259290D01*
Y258985D01*
X208019Y258681D01*
X208172Y258528D01*
X208629Y258376D01*
X210000D01*
X208934D02*
X207867Y256700D01*
X205628Y259899D02*
X207151Y257766D01*
X204866D01*
X205628Y259899D02*
Y256700D01*
X203388Y259899D02*
X203845Y259747D01*
X204150Y259290D01*
X204302Y258528D01*
Y258071D01*
X204150Y257309D01*
X203845Y256852D01*
X203388Y256700D01*
X203083D01*
X202626Y256852D01*
X202322Y257309D01*
X202169Y258071D01*
Y258528D01*
X202322Y259290D01*
X202626Y259747D01*
X203083Y259899D01*
X203388D01*
X228199Y262400D02*
X225000D01*
X228199D02*
Y263771D01*
X228047Y264228D01*
X227895Y264381D01*
X227590Y264533D01*
X227285D01*
X226980Y264381D01*
X226828Y264228D01*
X226676Y263771D01*
Y262400D01*
Y263466D02*
X225000Y264533D01*
X228199Y265554D02*
Y267229D01*
X226980Y266315D01*
Y266772D01*
X226828Y267077D01*
X226676Y267229D01*
X226219Y267382D01*
X225914D01*
X225457Y267229D01*
X225152Y266925D01*
X225000Y266468D01*
Y266011D01*
X225152Y265554D01*
X225305Y265401D01*
X225609Y265249D01*
X228199Y268860D02*
X228047Y268403D01*
X227742Y268250D01*
X227438D01*
X227133Y268403D01*
X226980Y268707D01*
X226828Y269317D01*
X226676Y269774D01*
X226371Y270078D01*
X226066Y270231D01*
X225609D01*
X225305Y270078D01*
X225152Y269926D01*
X225000Y269469D01*
Y268860D01*
X225152Y268403D01*
X225305Y268250D01*
X225609Y268098D01*
X226066D01*
X226371Y268250D01*
X226676Y268555D01*
X226828Y269012D01*
X226980Y269621D01*
X227133Y269926D01*
X227438Y270078D01*
X227742D01*
X228047Y269926D01*
X228199Y269469D01*
Y268860D01*
X201515Y269438D02*
X201667Y269742D01*
X201972Y270047D01*
X202276Y270199D01*
X202886D01*
X203191Y270047D01*
X203495Y269742D01*
X203648Y269438D01*
X203800Y268981D01*
Y268219D01*
X203648Y267762D01*
X203495Y267457D01*
X203191Y267152D01*
X202886Y267000D01*
X202276D01*
X201972Y267152D01*
X201667Y267457D01*
X201515Y267762D01*
X199092Y270199D02*
X200616Y268066D01*
X198331D01*
X199092Y270199D02*
Y267000D01*
X195939Y269742D02*
X196091Y270047D01*
X196548Y270199D01*
X196853D01*
X197310Y270047D01*
X197615Y269590D01*
X197767Y268828D01*
Y268066D01*
X197615Y267457D01*
X197310Y267152D01*
X196853Y267000D01*
X196701D01*
X196244Y267152D01*
X195939Y267457D01*
X195786Y267914D01*
Y268066D01*
X195939Y268524D01*
X196244Y268828D01*
X196701Y268981D01*
X196853D01*
X197310Y268828D01*
X197615Y268524D01*
X197767Y268066D01*
X187415Y234938D02*
X187567Y235242D01*
X187872Y235547D01*
X188177Y235699D01*
X188786D01*
X189091Y235547D01*
X189395Y235242D01*
X189548Y234938D01*
X189700Y234481D01*
Y233719D01*
X189548Y233262D01*
X189395Y232957D01*
X189091Y232652D01*
X188786Y232500D01*
X188177D01*
X187872Y232652D01*
X187567Y232957D01*
X187415Y233262D01*
X184383Y235699D02*
X185907Y232500D01*
X186516Y235699D02*
X184383D01*
X181534D02*
X183058Y232500D01*
X183667Y235699D02*
X181534D01*
X196400Y245099D02*
Y241900D01*
Y245099D02*
X195029D01*
X194572Y244947D01*
X194420Y244795D01*
X194267Y244490D01*
Y244185D01*
X194420Y243881D01*
X194572Y243728D01*
X195029Y243576D01*
X196400D01*
X195334D02*
X194267Y241900D01*
X191418Y245099D02*
X192942Y241900D01*
X193551Y245099D02*
X191418D01*
X190702Y244490D02*
X190398Y244642D01*
X189940Y245099D01*
Y241900D01*
X215399Y274300D02*
X212200D01*
X215399D02*
Y275671D01*
X215247Y276128D01*
X215095Y276280D01*
X214790Y276433D01*
X214485D01*
X214180Y276280D01*
X214028Y276128D01*
X213876Y275671D01*
Y274300D01*
Y275366D02*
X212200Y276433D01*
X215399Y277454D02*
Y279129D01*
X214180Y278215D01*
Y278672D01*
X214028Y278977D01*
X213876Y279129D01*
X213419Y279282D01*
X213114D01*
X212657Y279129D01*
X212352Y278825D01*
X212200Y278368D01*
Y277911D01*
X212352Y277454D01*
X212505Y277301D01*
X212809Y277149D01*
X215399Y281826D02*
Y280303D01*
X214028Y280150D01*
X214180Y280303D01*
X214333Y280760D01*
Y281217D01*
X214180Y281674D01*
X213876Y281978D01*
X213419Y282131D01*
X213114D01*
X212657Y281978D01*
X212352Y281674D01*
X212200Y281217D01*
Y280760D01*
X212352Y280303D01*
X212505Y280150D01*
X212809Y279998D01*
X190899Y275600D02*
X187700D01*
X190899D02*
Y276971D01*
X190747Y277428D01*
X190595Y277580D01*
X190290Y277733D01*
X189985D01*
X189681Y277580D01*
X189528Y277428D01*
X189376Y276971D01*
Y275600D01*
Y276666D02*
X187700Y277733D01*
X190899Y278754D02*
Y280429D01*
X189681Y279515D01*
Y279972D01*
X189528Y280277D01*
X189376Y280429D01*
X188919Y280582D01*
X188614D01*
X188157Y280429D01*
X187852Y280125D01*
X187700Y279668D01*
Y279211D01*
X187852Y278754D01*
X188005Y278601D01*
X188309Y278449D01*
X190442Y283126D02*
X190747Y282974D01*
X190899Y282517D01*
Y282212D01*
X190747Y281755D01*
X190290Y281450D01*
X189528Y281298D01*
X188766D01*
X188157Y281450D01*
X187852Y281755D01*
X187700Y282212D01*
Y282364D01*
X187852Y282821D01*
X188157Y283126D01*
X188614Y283278D01*
X188766D01*
X189224Y283126D01*
X189528Y282821D01*
X189681Y282364D01*
Y282212D01*
X189528Y281755D01*
X189224Y281450D01*
X188766Y281298D01*
X171015Y261338D02*
X171167Y261642D01*
X171472Y261947D01*
X171776Y262099D01*
X172386D01*
X172691Y261947D01*
X172995Y261642D01*
X173148Y261338D01*
X173300Y260880D01*
Y260119D01*
X173148Y259662D01*
X172995Y259357D01*
X172691Y259052D01*
X172386Y258900D01*
X171776D01*
X171472Y259052D01*
X171167Y259357D01*
X171015Y259662D01*
X168592Y262099D02*
X170116Y259966D01*
X167831D01*
X168592Y262099D02*
Y258900D01*
X165134Y262099D02*
X166658Y258900D01*
X167267Y262099D02*
X165134D01*
X169215Y274338D02*
X169367Y274642D01*
X169672Y274947D01*
X169976Y275099D01*
X170586D01*
X170891Y274947D01*
X171195Y274642D01*
X171348Y274338D01*
X171500Y273881D01*
Y273119D01*
X171348Y272662D01*
X171195Y272357D01*
X170891Y272052D01*
X170586Y271900D01*
X169976D01*
X169672Y272052D01*
X169367Y272357D01*
X169215Y272662D01*
X166792Y275099D02*
X168316Y272966D01*
X166031D01*
X166792Y275099D02*
Y271900D01*
X165315Y274338D02*
Y274490D01*
X165162Y274795D01*
X165010Y274947D01*
X164705Y275099D01*
X164096D01*
X163791Y274947D01*
X163639Y274795D01*
X163487Y274490D01*
Y274185D01*
X163639Y273881D01*
X163944Y273424D01*
X165467Y271900D01*
X163334D01*
X169515Y280638D02*
X169667Y280942D01*
X169972Y281247D01*
X170276Y281399D01*
X170886D01*
X171191Y281247D01*
X171495Y280942D01*
X171648Y280638D01*
X171800Y280181D01*
Y279419D01*
X171648Y278962D01*
X171495Y278657D01*
X171191Y278352D01*
X170886Y278200D01*
X170276D01*
X169972Y278352D01*
X169667Y278657D01*
X169515Y278962D01*
X167092Y281399D02*
X168616Y279266D01*
X166331D01*
X167092Y281399D02*
Y278200D01*
X165462Y281399D02*
X163786D01*
X164701Y280181D01*
X164243D01*
X163939Y280028D01*
X163786Y279876D01*
X163634Y279419D01*
Y279114D01*
X163786Y278657D01*
X164091Y278352D01*
X164548Y278200D01*
X165005D01*
X165462Y278352D01*
X165615Y278505D01*
X165767Y278809D01*
X183515Y287038D02*
X183667Y287342D01*
X183972Y287647D01*
X184276Y287799D01*
X184886D01*
X185191Y287647D01*
X185495Y287342D01*
X185648Y287038D01*
X185800Y286580D01*
Y285819D01*
X185648Y285362D01*
X185495Y285057D01*
X185191Y284752D01*
X184886Y284600D01*
X184276D01*
X183972Y284752D01*
X183667Y285057D01*
X183515Y285362D01*
X182616Y287190D02*
X182311Y287342D01*
X181854Y287799D01*
Y284600D01*
X183999Y312800D02*
X180800D01*
X183999D02*
Y314171D01*
X183847Y314628D01*
X183695Y314780D01*
X183390Y314933D01*
X183085D01*
X182781Y314780D01*
X182628Y314628D01*
X182476Y314171D01*
Y312800D01*
Y313866D02*
X180800Y314933D01*
X183999Y315954D02*
Y317629D01*
X182781Y316715D01*
Y317172D01*
X182628Y317477D01*
X182476Y317629D01*
X182019Y317782D01*
X181714D01*
X181257Y317629D01*
X180952Y317325D01*
X180800Y316868D01*
Y316411D01*
X180952Y315954D01*
X181105Y315801D01*
X181409Y315649D01*
X183390Y318498D02*
X183542Y318802D01*
X183999Y319260D01*
X180800D01*
X200400Y284699D02*
Y281500D01*
Y284699D02*
X199029D01*
X198572Y284547D01*
X198419Y284395D01*
X198267Y284090D01*
Y283785D01*
X198419Y283481D01*
X198572Y283328D01*
X199029Y283176D01*
X200400D01*
X199334D02*
X198267Y281500D01*
X197246Y284699D02*
X195571D01*
X196485Y283481D01*
X196028D01*
X195723Y283328D01*
X195571Y283176D01*
X195418Y282719D01*
Y282414D01*
X195571Y281957D01*
X195875Y281652D01*
X196332Y281500D01*
X196789D01*
X197246Y281652D01*
X197399Y281805D01*
X197551Y282109D01*
X192569Y284699D02*
X194093Y281500D01*
X194702Y284699D02*
X192569D01*
X216500Y292399D02*
Y289200D01*
Y292399D02*
X215129D01*
X214672Y292247D01*
X214520Y292095D01*
X214367Y291790D01*
Y291485D01*
X214520Y291180D01*
X214672Y291028D01*
X215129Y290876D01*
X216500D01*
X215434D02*
X214367Y289200D01*
X212128Y292399D02*
X213651Y290266D01*
X211366D01*
X212128Y292399D02*
Y289200D01*
X210497Y292399D02*
X208822D01*
X209736Y291180D01*
X209279D01*
X208974Y291028D01*
X208822Y290876D01*
X208669Y290419D01*
Y290114D01*
X208822Y289657D01*
X209126Y289352D01*
X209583Y289200D01*
X210040D01*
X210497Y289352D01*
X210650Y289505D01*
X210802Y289809D01*
X211638Y297385D02*
X211942Y297233D01*
X212247Y296928D01*
X212399Y296623D01*
Y296014D01*
X212247Y295709D01*
X211942Y295405D01*
X211638Y295252D01*
X211180Y295100D01*
X210419D01*
X209962Y295252D01*
X209657Y295405D01*
X209352Y295709D01*
X209200Y296014D01*
Y296623D01*
X209352Y296928D01*
X209657Y297233D01*
X209962Y297385D01*
X212399Y300112D02*
Y298589D01*
X211028Y298436D01*
X211180Y298589D01*
X211333Y299046D01*
Y299503D01*
X211180Y299960D01*
X210876Y300265D01*
X210419Y300417D01*
X210114D01*
X209657Y300265D01*
X209352Y299960D01*
X209200Y299503D01*
Y299046D01*
X209352Y298589D01*
X209505Y298436D01*
X209809Y298284D01*
X212399Y301438D02*
Y303114D01*
X211180Y302199D01*
Y302657D01*
X211028Y302961D01*
X210876Y303114D01*
X210419Y303266D01*
X210114D01*
X209657Y303114D01*
X209352Y302809D01*
X209200Y302352D01*
Y301895D01*
X209352Y301438D01*
X209505Y301285D01*
X209809Y301133D01*
X192115Y304038D02*
X192267Y304342D01*
X192572Y304647D01*
X192877Y304799D01*
X193486D01*
X193791Y304647D01*
X194095Y304342D01*
X194248Y304038D01*
X194400Y303580D01*
Y302819D01*
X194248Y302362D01*
X194095Y302057D01*
X193791Y301752D01*
X193486Y301600D01*
X192877D01*
X192572Y301752D01*
X192267Y302057D01*
X192115Y302362D01*
X189388Y304799D02*
X190911D01*
X191064Y303428D01*
X190911Y303580D01*
X190454Y303733D01*
X189997D01*
X189540Y303580D01*
X189235Y303276D01*
X189083Y302819D01*
Y302514D01*
X189235Y302057D01*
X189540Y301752D01*
X189997Y301600D01*
X190454D01*
X190911Y301752D01*
X191064Y301905D01*
X191216Y302209D01*
X186234Y304799D02*
X187758Y301600D01*
X188367Y304799D02*
X186234D01*
X207000Y316899D02*
Y313700D01*
Y316899D02*
X205629D01*
X205172Y316747D01*
X205019Y316595D01*
X204867Y316290D01*
Y315985D01*
X205019Y315681D01*
X205172Y315528D01*
X205629Y315376D01*
X207000D01*
X205934D02*
X204867Y313700D01*
X202628Y316899D02*
X204151Y314766D01*
X201866D01*
X202628Y316899D02*
Y313700D01*
X199474Y316899D02*
X200997D01*
X201150Y315528D01*
X200997Y315681D01*
X200540Y315833D01*
X200083D01*
X199626Y315681D01*
X199322Y315376D01*
X199169Y314919D01*
Y314614D01*
X199322Y314157D01*
X199626Y313852D01*
X200083Y313700D01*
X200540D01*
X200997Y313852D01*
X201150Y314005D01*
X201302Y314309D01*
X206800Y322299D02*
Y319100D01*
Y322299D02*
X205429D01*
X204972Y322147D01*
X204819Y321995D01*
X204667Y321690D01*
Y321385D01*
X204819Y321080D01*
X204972Y320928D01*
X205429Y320776D01*
X206800D01*
X205734D02*
X204667Y319100D01*
X202428Y322299D02*
X203951Y320166D01*
X201666D01*
X202428Y322299D02*
Y319100D01*
X199274Y321842D02*
X199426Y322147D01*
X199883Y322299D01*
X200188D01*
X200645Y322147D01*
X200950Y321690D01*
X201102Y320928D01*
Y320166D01*
X200950Y319557D01*
X200645Y319252D01*
X200188Y319100D01*
X200036D01*
X199579Y319252D01*
X199274Y319557D01*
X199122Y320014D01*
Y320166D01*
X199274Y320623D01*
X199579Y320928D01*
X200036Y321080D01*
X200188D01*
X200645Y320928D01*
X200950Y320623D01*
X201102Y320166D01*
X204615Y327538D02*
X204767Y327842D01*
X205072Y328147D01*
X205377Y328299D01*
X205986D01*
X206291Y328147D01*
X206595Y327842D01*
X206748Y327538D01*
X206900Y327080D01*
Y326319D01*
X206748Y325862D01*
X206595Y325557D01*
X206291Y325252D01*
X205986Y325100D01*
X205377D01*
X205072Y325252D01*
X204767Y325557D01*
X204615Y325862D01*
X201888Y328299D02*
X203411D01*
X203564Y326928D01*
X203411Y327080D01*
X202954Y327233D01*
X202497D01*
X202040Y327080D01*
X201735Y326776D01*
X201583Y326319D01*
Y326014D01*
X201735Y325557D01*
X202040Y325252D01*
X202497Y325100D01*
X202954D01*
X203411Y325252D01*
X203564Y325405D01*
X203716Y325709D01*
X198887Y327233D02*
X199039Y326776D01*
X199344Y326471D01*
X199801Y326319D01*
X199953D01*
X200410Y326471D01*
X200715Y326776D01*
X200867Y327233D01*
Y327385D01*
X200715Y327842D01*
X200410Y328147D01*
X199953Y328299D01*
X199801D01*
X199344Y328147D01*
X199039Y327842D01*
X198887Y327233D01*
Y326471D01*
X199039Y325709D01*
X199344Y325252D01*
X199801Y325100D01*
X200105D01*
X200562Y325252D01*
X200715Y325557D01*
X198100Y347999D02*
Y344800D01*
Y347999D02*
X196729D01*
X196272Y347847D01*
X196119Y347695D01*
X195967Y347390D01*
Y347085D01*
X196119Y346780D01*
X196272Y346628D01*
X196729Y346476D01*
X198100D01*
X197034D02*
X195967Y344800D01*
X195099Y347238D02*
Y347390D01*
X194946Y347695D01*
X194794Y347847D01*
X194489Y347999D01*
X193880D01*
X193575Y347847D01*
X193423Y347695D01*
X193271Y347390D01*
Y347085D01*
X193423Y346780D01*
X193728Y346323D01*
X195251Y344800D01*
X193118D01*
X192097Y347999D02*
X190422D01*
X191336Y346780D01*
X190879D01*
X190574Y346628D01*
X190422Y346476D01*
X190269Y346019D01*
Y345714D01*
X190422Y345257D01*
X190726Y344952D01*
X191183Y344800D01*
X191640D01*
X192097Y344952D01*
X192250Y345105D01*
X192402Y345409D01*
X151199Y331100D02*
X148000D01*
X151199D02*
Y332471D01*
X151047Y332928D01*
X150895Y333081D01*
X150590Y333233D01*
X150285D01*
X149980Y333081D01*
X149828Y332928D01*
X149676Y332471D01*
Y331100D01*
Y332166D02*
X148000Y333233D01*
X150438Y334101D02*
X150590D01*
X150895Y334254D01*
X151047Y334406D01*
X151199Y334711D01*
Y335320D01*
X151047Y335625D01*
X150895Y335777D01*
X150590Y335929D01*
X150285D01*
X149980Y335777D01*
X149523Y335472D01*
X148000Y333949D01*
Y336082D01*
X150133Y338778D02*
X149676Y338626D01*
X149371Y338321D01*
X149219Y337864D01*
Y337712D01*
X149371Y337255D01*
X149676Y336950D01*
X150133Y336798D01*
X150285D01*
X150742Y336950D01*
X151047Y337255D01*
X151199Y337712D01*
Y337864D01*
X151047Y338321D01*
X150742Y338626D01*
X150133Y338778D01*
X149371D01*
X148609Y338626D01*
X148152Y338321D01*
X148000Y337864D01*
Y337560D01*
X148152Y337103D01*
X148457Y336950D01*
X168786Y345499D02*
X169091Y345347D01*
X169395Y345042D01*
X169548Y344738D01*
X169700Y344281D01*
Y343519D01*
X169548Y343062D01*
X169395Y342757D01*
X169091Y342452D01*
X168786Y342300D01*
X168176D01*
X167872Y342452D01*
X167567Y342757D01*
X167415Y343062D01*
X167262Y343519D01*
Y344281D01*
X167415Y344738D01*
X167567Y345042D01*
X167872Y345347D01*
X168176Y345499D01*
X168786D01*
X168329Y342909D02*
X167415Y341995D01*
X164992Y345499D02*
X166516Y343366D01*
X164231D01*
X164992Y345499D02*
Y342300D01*
X151299Y316600D02*
X148100D01*
X151299D02*
Y317971D01*
X151147Y318428D01*
X150995Y318581D01*
X150690Y318733D01*
X150385D01*
X150081Y318581D01*
X149928Y318428D01*
X149776Y317971D01*
Y316600D01*
Y317666D02*
X148100Y318733D01*
X150538Y319601D02*
X150690D01*
X150995Y319754D01*
X151147Y319906D01*
X151299Y320211D01*
Y320820D01*
X151147Y321125D01*
X150995Y321277D01*
X150690Y321429D01*
X150385D01*
X150081Y321277D01*
X149624Y320972D01*
X148100Y319449D01*
Y321582D01*
X151299Y324126D02*
Y322603D01*
X149928Y322450D01*
X150081Y322603D01*
X150233Y323060D01*
Y323517D01*
X150081Y323974D01*
X149776Y324278D01*
X149319Y324431D01*
X149014D01*
X148557Y324278D01*
X148252Y323974D01*
X148100Y323517D01*
Y323060D01*
X148252Y322603D01*
X148405Y322450D01*
X148709Y322298D01*
X169986Y329199D02*
X170291Y329047D01*
X170595Y328742D01*
X170748Y328438D01*
X170900Y327980D01*
Y327219D01*
X170748Y326762D01*
X170595Y326457D01*
X170291Y326152D01*
X169986Y326000D01*
X169377D01*
X169072Y326152D01*
X168767Y326457D01*
X168615Y326762D01*
X168462Y327219D01*
Y327980D01*
X168615Y328438D01*
X168767Y328742D01*
X169072Y329047D01*
X169377Y329199D01*
X169986D01*
X169529Y326609D02*
X168615Y325695D01*
X167411Y329199D02*
X165735D01*
X166649Y327980D01*
X166192D01*
X165888Y327828D01*
X165735Y327676D01*
X165583Y327219D01*
Y326914D01*
X165735Y326457D01*
X166040Y326152D01*
X166497Y326000D01*
X166954D01*
X167411Y326152D01*
X167564Y326305D01*
X167716Y326609D01*
X159899Y301200D02*
X156700D01*
X159899D02*
Y302571D01*
X159747Y303028D01*
X159595Y303181D01*
X159290Y303333D01*
X158985D01*
X158680Y303181D01*
X158528Y303028D01*
X158376Y302571D01*
Y301200D01*
Y302266D02*
X156700Y303333D01*
X159138Y304201D02*
X159290D01*
X159595Y304354D01*
X159747Y304506D01*
X159899Y304811D01*
Y305420D01*
X159747Y305725D01*
X159595Y305877D01*
X159290Y306029D01*
X158985D01*
X158680Y305877D01*
X158223Y305572D01*
X156700Y304049D01*
Y306182D01*
X159899Y309031D02*
X156700Y307507D01*
X159899Y306898D02*
Y309031D01*
X171638Y293485D02*
X171942Y293333D01*
X172247Y293028D01*
X172399Y292723D01*
Y292114D01*
X172247Y291809D01*
X171942Y291505D01*
X171638Y291352D01*
X171180Y291200D01*
X170419D01*
X169962Y291352D01*
X169657Y291505D01*
X169352Y291809D01*
X169200Y292114D01*
Y292723D01*
X169352Y293028D01*
X169657Y293333D01*
X169962Y293485D01*
X171638Y294536D02*
X171790D01*
X172095Y294689D01*
X172247Y294841D01*
X172399Y295146D01*
Y295755D01*
X172247Y296060D01*
X172095Y296212D01*
X171790Y296365D01*
X171485D01*
X171180Y296212D01*
X170723Y295908D01*
X169200Y294384D01*
Y296517D01*
X172399Y297995D02*
X172247Y297538D01*
X171942Y297385D01*
X171638D01*
X171333Y297538D01*
X171180Y297842D01*
X171028Y298452D01*
X170876Y298909D01*
X170571Y299214D01*
X170266Y299366D01*
X169809D01*
X169505Y299214D01*
X169352Y299061D01*
X169200Y298604D01*
Y297995D01*
X169352Y297538D01*
X169505Y297385D01*
X169809Y297233D01*
X170266D01*
X170571Y297385D01*
X170876Y297690D01*
X171028Y298147D01*
X171180Y298757D01*
X171333Y299061D01*
X171638Y299214D01*
X171942D01*
X172247Y299061D01*
X172399Y298604D01*
Y297995D01*
X177399Y296300D02*
X174200D01*
X177399D02*
Y297671D01*
X177247Y298128D01*
X177095Y298281D01*
X176790Y298433D01*
X176485D01*
X176181Y298281D01*
X176028Y298128D01*
X175876Y297671D01*
Y296300D01*
Y297366D02*
X174200Y298433D01*
X177399Y299454D02*
Y301129D01*
X176181Y300215D01*
Y300672D01*
X176028Y300977D01*
X175876Y301129D01*
X175419Y301282D01*
X175114D01*
X174657Y301129D01*
X174352Y300825D01*
X174200Y300368D01*
Y299911D01*
X174352Y299454D01*
X174505Y299301D01*
X174809Y299149D01*
X177399Y302912D02*
X177247Y302455D01*
X176790Y302150D01*
X176028Y301998D01*
X175571D01*
X174809Y302150D01*
X174352Y302455D01*
X174200Y302912D01*
Y303217D01*
X174352Y303674D01*
X174809Y303978D01*
X175571Y304131D01*
X176028D01*
X176790Y303978D01*
X177247Y303674D01*
X177399Y303217D01*
Y302912D01*
X184499Y321000D02*
X181300D01*
X184499D02*
Y322371D01*
X184347Y322828D01*
X184195Y322980D01*
X183890Y323133D01*
X183585D01*
X183281Y322980D01*
X183128Y322828D01*
X182976Y322371D01*
Y321000D01*
Y322066D02*
X181300Y323133D01*
X183738Y324001D02*
X183890D01*
X184195Y324154D01*
X184347Y324306D01*
X184499Y324611D01*
Y325220D01*
X184347Y325525D01*
X184195Y325677D01*
X183890Y325829D01*
X183585D01*
X183281Y325677D01*
X182824Y325372D01*
X181300Y323849D01*
Y325982D01*
X184499Y328221D02*
X182366Y326698D01*
Y328983D01*
X184499Y328221D02*
X181300D01*
X185299Y334000D02*
X182100D01*
X185299D02*
Y335371D01*
X185147Y335828D01*
X184995Y335981D01*
X184690Y336133D01*
X184385D01*
X184081Y335981D01*
X183928Y335828D01*
X183776Y335371D01*
Y334000D01*
Y335066D02*
X182100Y336133D01*
X184538Y337001D02*
X184690D01*
X184995Y337154D01*
X185147Y337306D01*
X185299Y337611D01*
Y338220D01*
X185147Y338525D01*
X184995Y338677D01*
X184690Y338829D01*
X184385D01*
X184081Y338677D01*
X183624Y338372D01*
X182100Y336849D01*
Y338982D01*
X185299Y340460D02*
X185147Y340002D01*
X184842Y339850D01*
X184538D01*
X184233Y340002D01*
X184081Y340307D01*
X183928Y340917D01*
X183776Y341374D01*
X183471Y341678D01*
X183166Y341831D01*
X182709D01*
X182405Y341678D01*
X182252Y341526D01*
X182100Y341069D01*
Y340460D01*
X182252Y340002D01*
X182405Y339850D01*
X182709Y339698D01*
X183166D01*
X183471Y339850D01*
X183776Y340155D01*
X183928Y340612D01*
X184081Y341221D01*
X184233Y341526D01*
X184538Y341678D01*
X184842D01*
X185147Y341526D01*
X185299Y341069D01*
Y340460D01*
X177700Y359899D02*
Y356700D01*
Y359899D02*
X176329D01*
X175872Y359747D01*
X175719Y359595D01*
X175567Y359290D01*
Y358985D01*
X175719Y358681D01*
X175872Y358528D01*
X176329Y358376D01*
X177700D01*
X176634D02*
X175567Y356700D01*
X174699Y359138D02*
Y359290D01*
X174546Y359595D01*
X174394Y359747D01*
X174089Y359899D01*
X173480D01*
X173175Y359747D01*
X173023Y359595D01*
X172871Y359290D01*
Y358985D01*
X173023Y358681D01*
X173328Y358224D01*
X174851Y356700D01*
X172718D01*
X171850Y359138D02*
Y359290D01*
X171697Y359595D01*
X171545Y359747D01*
X171240Y359899D01*
X170631D01*
X170326Y359747D01*
X170174Y359595D01*
X170022Y359290D01*
Y358985D01*
X170174Y358681D01*
X170479Y358224D01*
X172002Y356700D01*
X169869D01*
X149338Y349385D02*
X149642Y349233D01*
X149947Y348928D01*
X150099Y348623D01*
Y348014D01*
X149947Y347709D01*
X149642Y347405D01*
X149338Y347252D01*
X148881Y347100D01*
X148119D01*
X147662Y347252D01*
X147357Y347405D01*
X147052Y347709D01*
X146900Y348014D01*
Y348623D01*
X147052Y348928D01*
X147357Y349233D01*
X147662Y349385D01*
X149338Y350436D02*
X149490D01*
X149795Y350589D01*
X149947Y350741D01*
X150099Y351046D01*
Y351655D01*
X149947Y351960D01*
X149795Y352112D01*
X149490Y352265D01*
X149185D01*
X148881Y352112D01*
X148424Y351808D01*
X146900Y350284D01*
Y352417D01*
X150099Y355266D02*
X146900Y353742D01*
X150099Y353133D02*
Y355266D01*
X362815Y333138D02*
X362967Y333442D01*
X363272Y333747D01*
X363577Y333899D01*
X364186D01*
X364491Y333747D01*
X364795Y333442D01*
X364948Y333138D01*
X365100Y332681D01*
Y331919D01*
X364948Y331462D01*
X364795Y331157D01*
X364491Y330852D01*
X364186Y330700D01*
X363577D01*
X363272Y330852D01*
X362967Y331157D01*
X362815Y331462D01*
X361764Y333138D02*
Y333290D01*
X361611Y333595D01*
X361459Y333747D01*
X361154Y333899D01*
X360545D01*
X360240Y333747D01*
X360088Y333595D01*
X359935Y333290D01*
Y332985D01*
X360088Y332681D01*
X360392Y332224D01*
X361916Y330700D01*
X359783D01*
X357239Y333899D02*
X358762D01*
X358915Y332528D01*
X358762Y332681D01*
X358305Y332833D01*
X357848D01*
X357391Y332681D01*
X357086Y332376D01*
X356934Y331919D01*
Y331614D01*
X357086Y331157D01*
X357391Y330852D01*
X357848Y330700D01*
X358305D01*
X358762Y330852D01*
X358915Y331005D01*
X359067Y331309D01*
X363915Y303738D02*
X364067Y304042D01*
X364372Y304347D01*
X364676Y304499D01*
X365286D01*
X365591Y304347D01*
X365895Y304042D01*
X366048Y303738D01*
X366200Y303280D01*
Y302519D01*
X366048Y302062D01*
X365895Y301757D01*
X365591Y301452D01*
X365286Y301300D01*
X364676D01*
X364372Y301452D01*
X364067Y301757D01*
X363915Y302062D01*
X362864Y303738D02*
Y303890D01*
X362711Y304195D01*
X362559Y304347D01*
X362254Y304499D01*
X361645D01*
X361340Y304347D01*
X361188Y304195D01*
X361035Y303890D01*
Y303585D01*
X361188Y303280D01*
X361492Y302823D01*
X363016Y301300D01*
X360883D01*
X358644Y304499D02*
X360167Y302366D01*
X357882D01*
X358644Y304499D02*
Y301300D01*
X357715Y301238D02*
X357867Y301542D01*
X358172Y301847D01*
X358476Y301999D01*
X359086D01*
X359391Y301847D01*
X359695Y301542D01*
X359848Y301238D01*
X360000Y300781D01*
Y300019D01*
X359848Y299562D01*
X359695Y299257D01*
X359391Y298952D01*
X359086Y298800D01*
X358476D01*
X358172Y298952D01*
X357867Y299257D01*
X357715Y299562D01*
X356664Y301238D02*
Y301390D01*
X356511Y301695D01*
X356359Y301847D01*
X356054Y301999D01*
X355445D01*
X355140Y301847D01*
X354988Y301695D01*
X354835Y301390D01*
Y301085D01*
X354988Y300781D01*
X355292Y300324D01*
X356816Y298800D01*
X354683D01*
X353662Y301999D02*
X351987D01*
X352901Y300781D01*
X352444D01*
X352139Y300628D01*
X351987Y300476D01*
X351834Y300019D01*
Y299714D01*
X351987Y299257D01*
X352291Y298952D01*
X352748Y298800D01*
X353205D01*
X353662Y298952D01*
X353815Y299105D01*
X353967Y299409D01*
X358015Y310638D02*
X358167Y310942D01*
X358472Y311247D01*
X358776Y311399D01*
X359386D01*
X359691Y311247D01*
X359995Y310942D01*
X360148Y310638D01*
X360300Y310180D01*
Y309419D01*
X360148Y308962D01*
X359995Y308657D01*
X359691Y308352D01*
X359386Y308200D01*
X358776D01*
X358472Y308352D01*
X358167Y308657D01*
X358015Y308962D01*
X357116Y310790D02*
X356811Y310942D01*
X356354Y311399D01*
Y308200D01*
X353856Y311399D02*
X354313Y311247D01*
X354617Y310790D01*
X354770Y310028D01*
Y309571D01*
X354617Y308809D01*
X354313Y308352D01*
X353856Y308200D01*
X353551D01*
X353094Y308352D01*
X352789Y308809D01*
X352637Y309571D01*
Y310028D01*
X352789Y310790D01*
X353094Y311247D01*
X353551Y311399D01*
X353856D01*
X350415Y301438D02*
X350567Y301742D01*
X350872Y302047D01*
X351177Y302199D01*
X351786D01*
X352091Y302047D01*
X352395Y301742D01*
X352548Y301438D01*
X352700Y300980D01*
Y300219D01*
X352548Y299762D01*
X352395Y299457D01*
X352091Y299152D01*
X351786Y299000D01*
X351177D01*
X350872Y299152D01*
X350567Y299457D01*
X350415Y299762D01*
X347992Y302199D02*
X349516Y300066D01*
X347231D01*
X347992Y302199D02*
Y299000D01*
X354300Y325999D02*
Y322800D01*
Y325999D02*
X352929D01*
X352472Y325847D01*
X352320Y325695D01*
X352167Y325390D01*
Y325085D01*
X352320Y324781D01*
X352472Y324628D01*
X352929Y324476D01*
X354300D01*
X353234D02*
X352167Y322800D01*
X349623Y325542D02*
X349775Y325847D01*
X350232Y325999D01*
X350537D01*
X350994Y325847D01*
X351299Y325390D01*
X351451Y324628D01*
Y323866D01*
X351299Y323257D01*
X350994Y322952D01*
X350537Y322800D01*
X350385D01*
X349928Y322952D01*
X349623Y323257D01*
X349471Y323714D01*
Y323866D01*
X349623Y324324D01*
X349928Y324628D01*
X350385Y324781D01*
X350537D01*
X350994Y324628D01*
X351299Y324324D01*
X351451Y323866D01*
X346637Y325999D02*
X348160Y322800D01*
X348770Y325999D02*
X346637D01*
X363015Y327838D02*
X363167Y328142D01*
X363472Y328447D01*
X363776Y328599D01*
X364386D01*
X364691Y328447D01*
X364995Y328142D01*
X365148Y327838D01*
X365300Y327380D01*
Y326619D01*
X365148Y326162D01*
X364995Y325857D01*
X364691Y325552D01*
X364386Y325400D01*
X363776D01*
X363472Y325552D01*
X363167Y325857D01*
X363015Y326162D01*
X362116Y327990D02*
X361811Y328142D01*
X361354Y328599D01*
Y325400D01*
X357789Y327533D02*
X357942Y327076D01*
X358246Y326771D01*
X358703Y326619D01*
X358856D01*
X359313Y326771D01*
X359617Y327076D01*
X359770Y327533D01*
Y327685D01*
X359617Y328142D01*
X359313Y328447D01*
X358856Y328599D01*
X358703D01*
X358246Y328447D01*
X357942Y328142D01*
X357789Y327533D01*
Y326771D01*
X357942Y326009D01*
X358246Y325552D01*
X358703Y325400D01*
X359008D01*
X359465Y325552D01*
X359617Y325857D01*
X201300Y311999D02*
Y308800D01*
Y311999D02*
X199929D01*
X199472Y311847D01*
X199320Y311695D01*
X199167Y311390D01*
Y311085D01*
X199320Y310781D01*
X199472Y310628D01*
X199929Y310476D01*
X201300D01*
X200234D02*
X199167Y308800D01*
X196928Y311999D02*
X198451Y309866D01*
X196166D01*
X196928Y311999D02*
Y308800D01*
X195602Y311390D02*
X195298Y311542D01*
X194840Y311999D01*
Y308800D01*
X272700Y322999D02*
Y319800D01*
Y322999D02*
X271329D01*
X270872Y322847D01*
X270720Y322695D01*
X270567Y322390D01*
Y322085D01*
X270720Y321780D01*
X270872Y321628D01*
X271329Y321476D01*
X272700D01*
X271634D02*
X270567Y319800D01*
X268328Y322999D02*
X269851Y320866D01*
X267566D01*
X268328Y322999D02*
Y319800D01*
X266240Y322999D02*
X266698Y322847D01*
X266850Y322542D01*
Y322238D01*
X266698Y321933D01*
X266393Y321780D01*
X265783Y321628D01*
X265326Y321476D01*
X265022Y321171D01*
X264869Y320866D01*
Y320409D01*
X265022Y320105D01*
X265174Y319952D01*
X265631Y319800D01*
X266240D01*
X266698Y319952D01*
X266850Y320105D01*
X267002Y320409D01*
Y320866D01*
X266850Y321171D01*
X266545Y321476D01*
X266088Y321628D01*
X265479Y321780D01*
X265174Y321933D01*
X265022Y322238D01*
Y322542D01*
X265174Y322847D01*
X265631Y322999D01*
X266240D01*
M02*
