M48
;Layer_Color=9474304
;FILE_FORMAT=2:5
INCH,LZ
;TYPE=PLATED
T1F00S00C0.01200
%
T01
X047669Y02979
X0457626Y0297874
X0455564Y0305736
X045422Y032238
X0455664Y0329436
X0461359Y03332
X0464759
X0453964Y0337244
X045407Y034235
X0457082Y0345118
X0455564Y0353036
X045983Y035649
X0459534Y0360866
X0455966
X045429Y036596
X045436Y036968
X0455864Y0376736
X046034Y037344
X046255Y038197
X0453688Y0384488
X0453862Y0392362
X0455764Y0400236
X046926Y039633
X04875Y039904
X048495Y038914
X04869Y03687
X048668Y03653
X049148Y03649
X04916Y03683
X049634Y036831
X049628Y036491
X050108Y0365
Y03684
X050477Y035712
X050485Y034525
X049562Y035125
X0492979Y035112
X0488255Y0351255
X0483531Y0351231
X047642Y033898
X047193Y034126
X047232Y032898
X04777Y031706
X04849Y031676
X04931Y031724
X049304Y033305
X04897Y03338
X04901Y033793
X049738Y033223
M30
