%FSLAX25Y25*%
%MOIN*%
G70*
G01*
G75*
G04 Layer_Color=65535*
%ADD10R,0.03543X0.03937*%
%ADD11R,0.03937X0.03740*%
%ADD12R,0.03937X0.03543*%
%ADD13R,0.00787X0.07874*%
%ADD14R,0.07874X0.03150*%
%ADD15C,0.00800*%
%ADD16C,0.02000*%
%ADD17C,0.02600*%
%ADD18C,0.04000*%
%ADD19C,0.03200*%
%ADD20C,0.00787*%
%ADD21C,0.01181*%
%ADD22C,0.00700*%
%ADD23R,0.02362X0.22047*%
D15*
X486094Y302802D02*
Y300440D01*
Y302296D02*
X485757Y302633D01*
X485420Y302802D01*
X484913D01*
X484576Y302633D01*
X484239Y302296D01*
X484070Y301789D01*
Y301452D01*
X484239Y300946D01*
X484576Y300609D01*
X484913Y300440D01*
X485420D01*
X485757Y300609D01*
X486094Y300946D01*
X489063Y303982D02*
Y300440D01*
Y302296D02*
X488726Y302633D01*
X488388Y302802D01*
X487882D01*
X487545Y302633D01*
X487208Y302296D01*
X487039Y301789D01*
Y301452D01*
X487208Y300946D01*
X487545Y300609D01*
X487882Y300440D01*
X488388D01*
X488726Y300609D01*
X489063Y300946D01*
X492032Y302802D02*
Y300440D01*
Y302296D02*
X491695Y302633D01*
X491358Y302802D01*
X490851D01*
X490514Y302633D01*
X490177Y302296D01*
X490008Y301789D01*
Y301452D01*
X490177Y300946D01*
X490514Y300609D01*
X490851Y300440D01*
X491358D01*
X491695Y300609D01*
X492032Y300946D01*
X492977Y302802D02*
Y299259D01*
Y302296D02*
X493314Y302633D01*
X493652Y302802D01*
X494158D01*
X494495Y302633D01*
X494833Y302296D01*
X495001Y301789D01*
Y301452D01*
X494833Y300946D01*
X494495Y300609D01*
X494158Y300440D01*
X493652D01*
X493314Y300609D01*
X492977Y300946D01*
X496267Y303982D02*
Y301115D01*
X496435Y300609D01*
X496773Y300440D01*
X497110D01*
X495760Y302802D02*
X496941D01*
X497616Y301789D02*
X499640D01*
Y302127D01*
X499472Y302464D01*
X499303Y302633D01*
X498966Y302802D01*
X498459D01*
X498122Y302633D01*
X497785Y302296D01*
X497616Y301789D01*
Y301452D01*
X497785Y300946D01*
X498122Y300609D01*
X498459Y300440D01*
X498966D01*
X499303Y300609D01*
X499640Y300946D01*
X500399Y302802D02*
Y300440D01*
Y301789D02*
X500568Y302296D01*
X500906Y302633D01*
X501243Y302802D01*
X501749D01*
X478180Y309873D02*
Y306330D01*
X478922Y308692D02*
Y305149D01*
Y308186D02*
X479260Y308523D01*
X479597Y308692D01*
X480103D01*
X480441Y308523D01*
X480778Y308186D01*
X480947Y307680D01*
Y307342D01*
X480778Y306836D01*
X480441Y306499D01*
X480103Y306330D01*
X479597D01*
X479260Y306499D01*
X478922Y306836D01*
X481706Y309873D02*
Y306330D01*
Y308017D02*
X482212Y308523D01*
X482549Y308692D01*
X483055D01*
X483393Y308523D01*
X483561Y308017D01*
Y306330D01*
X485333Y308692D02*
X484995Y308523D01*
X484658Y308186D01*
X484489Y307680D01*
Y307342D01*
X484658Y306836D01*
X484995Y306499D01*
X485333Y306330D01*
X485839D01*
X486176Y306499D01*
X486513Y306836D01*
X486682Y307342D01*
Y307680D01*
X486513Y308186D01*
X486176Y308523D01*
X485839Y308692D01*
X485333D01*
X487458D02*
Y306330D01*
Y308017D02*
X487964Y308523D01*
X488302Y308692D01*
X488808D01*
X489145Y308523D01*
X489314Y308017D01*
Y306330D01*
X490241Y307680D02*
X492266D01*
Y308017D01*
X492097Y308354D01*
X491928Y308523D01*
X491591Y308692D01*
X491085D01*
X490748Y308523D01*
X490410Y308186D01*
X490241Y307680D01*
Y307342D01*
X490410Y306836D01*
X490748Y306499D01*
X491085Y306330D01*
X491591D01*
X491928Y306499D01*
X492266Y306836D01*
X497495Y309873D02*
X495808Y307511D01*
X498339D01*
X497495Y309873D02*
Y306330D01*
X498963Y305824D02*
X501325Y309873D01*
X503248D02*
X501561Y307511D01*
X504091D01*
X503248Y309873D02*
Y306330D01*
X507077Y309366D02*
X506740Y309704D01*
X506234Y309873D01*
X505559D01*
X505053Y309704D01*
X504715Y309366D01*
Y309029D01*
X504884Y308692D01*
X505053Y308523D01*
X505390Y308354D01*
X506402Y308017D01*
X506740Y307848D01*
X506908Y307680D01*
X507077Y307342D01*
Y306836D01*
X506740Y306499D01*
X506234Y306330D01*
X505559D01*
X505053Y306499D01*
X504715Y306836D01*
D20*
X467800Y295932D02*
Y299868D01*
X491131Y325300D02*
X495069D01*
X482932Y325400D02*
X486868D01*
X475732Y325700D02*
X479669D01*
X479594Y340159D02*
X481956D01*
X479594D02*
Y350002D01*
Y362206D02*
X482350D01*
X479594Y350002D02*
Y362206D01*
X481956Y340159D02*
X504003D01*
Y362206D01*
X481956D02*
X504003D01*
X481956Y340159D02*
Y362206D01*
X476800Y394032D02*
Y397969D01*
D21*
X441988Y404961D02*
X451437D01*
X441988Y286063D02*
X451437D01*
X441988D02*
Y404961D01*
D22*
X464290Y305249D02*
Y302050D01*
Y305249D02*
X465661D01*
X466118Y305097D01*
X466270Y304945D01*
X466423Y304640D01*
Y304335D01*
X466270Y304030D01*
X466118Y303878D01*
X465661Y303726D01*
X464290D01*
X465356D02*
X466423Y302050D01*
X467444Y305249D02*
X469119D01*
X468205Y304030D01*
X468662D01*
X468967Y303878D01*
X469119Y303726D01*
X469272Y303269D01*
Y302964D01*
X469119Y302507D01*
X468815Y302202D01*
X468358Y302050D01*
X467901D01*
X467444Y302202D01*
X467291Y302355D01*
X467139Y302659D01*
X473670Y403299D02*
Y400100D01*
Y403299D02*
X475041D01*
X475498Y403147D01*
X475651Y402995D01*
X475803Y402690D01*
Y402385D01*
X475651Y402080D01*
X475498Y401928D01*
X475041Y401776D01*
X473670D01*
X474736D02*
X475803Y400100D01*
X476671Y402538D02*
Y402690D01*
X476824Y402995D01*
X476976Y403147D01*
X477281Y403299D01*
X477890D01*
X478195Y403147D01*
X478347Y402995D01*
X478499Y402690D01*
Y402385D01*
X478347Y402080D01*
X478042Y401623D01*
X476519Y400100D01*
X478652D01*
X475800Y335889D02*
Y332690D01*
Y335889D02*
X477171D01*
X477628Y335737D01*
X477780Y335585D01*
X477933Y335280D01*
Y334975D01*
X477780Y334670D01*
X477628Y334518D01*
X477171Y334366D01*
X475800D01*
X476866D02*
X477933Y332690D01*
X478649Y335280D02*
X478954Y335432D01*
X479411Y335889D01*
Y332690D01*
X476545Y367308D02*
X476393Y367612D01*
X476088Y367917D01*
X475783Y368069D01*
X475174D01*
X474869Y367917D01*
X474565Y367612D01*
X474412Y367308D01*
X474260Y366850D01*
Y366089D01*
X474412Y365632D01*
X474565Y365327D01*
X474869Y365022D01*
X475174Y364870D01*
X475783D01*
X476088Y365022D01*
X476393Y365327D01*
X476545Y365632D01*
X477444Y368069D02*
Y364870D01*
Y368069D02*
X479577Y364870D01*
Y368069D02*
Y364870D01*
X480613Y367308D02*
Y367460D01*
X480765Y367765D01*
X480918Y367917D01*
X481222Y368069D01*
X481832D01*
X482136Y367917D01*
X482289Y367765D01*
X482441Y367460D01*
Y367155D01*
X482289Y366850D01*
X481984Y366393D01*
X480461Y364870D01*
X482593D01*
X457785Y400948D02*
X457633Y401252D01*
X457328Y401557D01*
X457023Y401709D01*
X456414D01*
X456109Y401557D01*
X455805Y401252D01*
X455652Y400948D01*
X455500Y400491D01*
Y399729D01*
X455652Y399272D01*
X455805Y398967D01*
X456109Y398662D01*
X456414Y398510D01*
X457023D01*
X457328Y398662D01*
X457633Y398967D01*
X457785Y399272D01*
X458684Y401709D02*
Y398510D01*
Y401709D02*
X460817Y398510D01*
Y401709D02*
Y398510D01*
X461701Y401100D02*
X462005Y401252D01*
X462462Y401709D01*
Y398510D01*
X484575Y335738D02*
X484423Y336042D01*
X484118Y336347D01*
X483813Y336499D01*
X483204D01*
X482899Y336347D01*
X482595Y336042D01*
X482442Y335738D01*
X482290Y335280D01*
Y334519D01*
X482442Y334062D01*
X482595Y333757D01*
X482899Y333452D01*
X483204Y333300D01*
X483813D01*
X484118Y333452D01*
X484423Y333757D01*
X484575Y334062D01*
X485474Y335890D02*
X485779Y336042D01*
X486236Y336499D01*
Y333300D01*
X492485Y335138D02*
X492333Y335442D01*
X492028Y335747D01*
X491723Y335899D01*
X491114D01*
X490809Y335747D01*
X490505Y335442D01*
X490352Y335138D01*
X490200Y334681D01*
Y333919D01*
X490352Y333462D01*
X490505Y333157D01*
X490809Y332852D01*
X491114Y332700D01*
X491723D01*
X492028Y332852D01*
X492333Y333157D01*
X492485Y333462D01*
X493536Y335138D02*
Y335290D01*
X493689Y335595D01*
X493841Y335747D01*
X494146Y335899D01*
X494755D01*
X495060Y335747D01*
X495212Y335595D01*
X495365Y335290D01*
Y334985D01*
X495212Y334681D01*
X494908Y334224D01*
X493384Y332700D01*
X495517D01*
D23*
X480775Y351183D02*
D03*
M02*
