%FSLAX25Y25*%
%MOIN*%
G70*
G01*
G75*
G04 Layer_Physical_Order=4*
G04 Layer_Color=16711680*
%ADD10R,0.03543X0.03937*%
%ADD11R,0.03937X0.03740*%
%ADD12R,0.03937X0.03543*%
%ADD13R,0.00787X0.07874*%
%ADD14R,0.07874X0.03150*%
%ADD15C,0.00800*%
%ADD16C,0.02000*%
%ADD17C,0.02600*%
%ADD18C,0.04000*%
%ADD19C,0.03200*%
D14*
X447500Y400236D02*
D03*
Y290000D02*
D03*
Y297874D02*
D03*
Y305748D02*
D03*
Y313622D02*
D03*
Y321496D02*
D03*
Y329370D02*
D03*
Y337244D02*
D03*
Y345118D02*
D03*
Y352992D02*
D03*
Y360866D02*
D03*
Y368740D02*
D03*
Y376614D02*
D03*
Y392362D02*
D03*
Y384488D02*
D03*
D15*
X460850Y345634D02*
Y349303D01*
X457566Y342350D02*
X460850Y345634D01*
X454070Y342350D02*
X457566D01*
X454723Y337244D02*
X462450Y344971D01*
X453964Y337244D02*
X454723D01*
X462450Y344971D02*
Y348640D01*
X496190Y364820D02*
X496280Y364910D01*
X496190Y358087D02*
Y364820D01*
X493053Y354950D02*
X496190Y358087D01*
X468760Y354950D02*
X493053D01*
X462450Y348640D02*
X468760Y354950D01*
X499060Y349443D02*
Y362800D01*
X496447Y346830D02*
X499060Y349443D01*
X469967Y346830D02*
X496447D01*
X500660Y364580D02*
X501080Y365000D01*
X500660Y348780D02*
Y364580D01*
X497110Y345230D02*
X500660Y348780D01*
X470630Y345230D02*
X497110D01*
X463859Y338459D02*
X470630Y345230D01*
X463859Y334100D02*
Y338459D01*
Y334100D02*
X464759Y333200D01*
X498580Y363280D02*
X499060Y362800D01*
X498580Y363280D02*
Y366036D01*
X500945Y368400D02*
X501080D01*
X498580Y366036D02*
X500945Y368400D01*
X501450Y389140D02*
X507330Y383260D01*
Y342180D02*
Y383260D01*
X500470Y393770D02*
X508730Y385510D01*
Y338140D02*
Y385510D01*
X499610Y329020D02*
X508730Y338140D01*
X501400Y396330D02*
X510130Y387600D01*
Y334870D02*
Y387600D01*
X501670Y326410D02*
X510130Y334870D01*
X484950Y389140D02*
X501450D01*
X497380Y332230D02*
X507330Y342180D01*
X492480Y329020D02*
X499610D01*
X489700Y331800D02*
X492480Y329020D01*
X489700Y331800D02*
Y333800D01*
X462259Y339122D02*
X469967Y346830D01*
X462259Y334100D02*
Y339122D01*
X461359Y333200D02*
X462259Y334100D01*
X468097Y356550D02*
X492390D01*
X460850Y349303D02*
X468097Y356550D01*
X492390D02*
X494590Y358750D01*
Y363065D01*
X493780Y363875D02*
X494590Y363065D01*
X493780Y363875D02*
Y365946D01*
X453390Y321550D02*
X454220Y322380D01*
X453390Y321541D02*
Y321550D01*
X453345Y321496D02*
X453390Y321541D01*
X447500Y321496D02*
X453345D01*
X489460Y326410D02*
X501670D01*
X487140Y328730D02*
X489460Y326410D01*
X487140Y328730D02*
Y334970D01*
X490100Y337930D01*
X449812Y392362D02*
X452470Y395020D01*
X465660D01*
X466910Y393770D01*
X472320Y301550D02*
Y328980D01*
X460770Y290000D02*
X472320Y301550D01*
X447500Y290000D02*
X460770D01*
X472320Y328980D02*
X476420Y333080D01*
Y338980D01*
X489823Y361500D02*
X489971Y361649D01*
X474760Y361500D02*
X489823D01*
X469240Y367020D02*
X474760Y361500D01*
X455350Y367020D02*
X469240D01*
X454290Y365960D02*
X455350Y367020D01*
X487633Y363000D02*
X488980Y364347D01*
X475523Y363000D02*
X487633D01*
X469903Y368620D02*
X475523Y363000D01*
X455420Y368620D02*
X469903D01*
X496144Y368310D02*
X496340D01*
X493780Y365946D02*
X496144Y368310D01*
X491480Y363157D02*
Y364900D01*
X489971Y361649D02*
X491480Y363157D01*
X488980Y364347D02*
Y365935D01*
X491344Y368300D02*
X491600D01*
X488980Y365935D02*
X491344Y368300D01*
X486680Y365300D02*
Y365385D01*
X483400Y368665D02*
X486680Y365385D01*
X476600Y387800D02*
X483400Y381000D01*
X477263Y389400D02*
X485000Y381663D01*
X456824Y389400D02*
X477263D01*
X485000Y370600D02*
Y381663D01*
X457000Y387800D02*
X476600D01*
X483400Y370700D02*
Y381000D01*
X453688Y384488D02*
X457000Y387800D01*
X485000Y370600D02*
X486900Y368700D01*
X452330Y381970D02*
X462550D01*
X449812Y384488D02*
X452330Y381970D01*
X447500Y384488D02*
X449812D01*
X466910Y393770D02*
X500470D01*
X456240Y396420D02*
X469170D01*
X452424Y400236D02*
X456240Y396420D01*
X469170D02*
X469260Y396330D01*
X447500Y400236D02*
X452424D01*
X447500Y392362D02*
X449812D01*
X469260Y396330D02*
X501400D01*
X453200Y356490D02*
X459830D01*
X449702Y352992D02*
X453200Y356490D01*
X447500Y352992D02*
X449702D01*
X454360Y369680D02*
X455420Y368620D01*
X454300Y373440D02*
X460340D01*
X452740Y375000D02*
X454300Y373440D01*
X452740Y375000D02*
Y375450D01*
X451576Y376614D02*
X452740Y375450D01*
X447500Y376614D02*
X451576D01*
X489971Y361649D02*
X490201Y361879D01*
X483400Y368665D02*
Y370700D01*
Y369800D02*
Y370700D01*
X453862Y392362D02*
X456824Y389400D01*
X455598Y329370D02*
X455664Y329436D01*
X447500Y329370D02*
X455598D01*
X455552Y305748D02*
X455564Y305736D01*
X447500Y305748D02*
X455552D01*
X447500Y297874D02*
X457626D01*
D16*
X468990Y324320D02*
Y338160D01*
X472010Y341180D01*
X471930Y341260D02*
X472010Y341180D01*
X458292Y313622D02*
X468990Y324320D01*
X447500Y313622D02*
X458292D01*
X447632Y345250D02*
X456950D01*
X457082Y345118D01*
X447500D02*
X447632Y345250D01*
X455966Y360866D02*
X459534D01*
X447500D02*
X455966D01*
D17*
X495620Y351250D02*
D03*
X476690Y297900D02*
D03*
X487500Y399040D02*
D03*
X504770Y357120D02*
D03*
X504850Y345250D02*
D03*
X464759Y333200D02*
D03*
X461359D02*
D03*
X471930Y341260D02*
D03*
X454220Y322380D02*
D03*
X472320Y328980D02*
D03*
X476420Y338980D02*
D03*
X490100Y337930D02*
D03*
X489700Y333800D02*
D03*
X492979Y351120D02*
D03*
X497380Y332230D02*
D03*
X493040Y333050D02*
D03*
X493100Y317240D02*
D03*
X484900Y316760D02*
D03*
X477700Y317060D02*
D03*
X486680Y365300D02*
D03*
X491480Y364900D02*
D03*
X496280Y364910D02*
D03*
X496340Y368310D02*
D03*
X501080Y368400D02*
D03*
X491600Y368300D02*
D03*
X453964Y337244D02*
D03*
X454070Y342350D02*
D03*
X484950Y389140D02*
D03*
X462550Y381970D02*
D03*
X469260Y396330D02*
D03*
X459830Y356490D02*
D03*
X460340Y373440D02*
D03*
X501080Y365000D02*
D03*
X454360Y369680D02*
D03*
X454290Y365960D02*
D03*
X486900Y368700D02*
D03*
X483531Y351231D02*
D03*
X488255Y351255D02*
D03*
X453688Y384488D02*
D03*
X453862Y392362D02*
D03*
X457082Y345118D02*
D03*
X459534Y360866D02*
D03*
X455966D02*
D03*
X455564Y305736D02*
D03*
X455664Y329436D02*
D03*
X455564Y353036D02*
D03*
X455864Y376736D02*
D03*
X455764Y400236D02*
D03*
X457626Y297874D02*
D03*
M02*
